<svg width="56" height="56" viewBox="0 0 56 56" fill="none" xmlns="http://www.w3.org/2000/svg">
<path d="M28.147 55.0748C42.9828 55.0748 55.0096 43.0562 55.0096 28.2304C55.0096 13.4046 42.9828 1.38599 28.147 1.38599C13.3113 1.38599 1.28448 13.4046 1.28448 28.2304C1.28448 43.0562 13.3113 55.0748 28.147 55.0748Z" fill="white" stroke="black" stroke-width="1.52258"/>
<path fill-rule="evenodd" clip-rule="evenodd" d="M36.6979 23.9426C34.9806 22.143 32.8118 20.9889 30.4593 20.5948C30.5151 20.4071 30.5452 20.2076 30.5452 20.0009C30.5452 18.8973 29.6884 17.9995 28.6354 17.9995C27.5823 17.9995 26.7256 18.8973 26.7256 20.0009C26.7256 20.2076 26.7557 20.4071 26.8114 20.5948C24.459 20.9889 22.2902 22.143 20.573 23.9426C18.8585 25.7395 17.758 28.008 17.3803 30.4689H39.8906C39.5129 28.008 38.4124 25.7395 36.6979 23.9426Z" fill="black"/>
<path fill-rule="evenodd" clip-rule="evenodd" d="M15.9368 32.0284V33.588H17.6674L18.4852 35.5328H38.7857L39.6035 33.588H41.3341V32.0284H15.9368Z" fill="black"/>
</svg>
