<svg width="310" height="140" viewBox="0 0 310 140" fill="none" xmlns="http://www.w3.org/2000/svg">
<g opacity="0.216301" filter="url(#filter0_f_17_2990)">
<path fill-rule="evenodd" clip-rule="evenodd" d="M13.7732 30.3514C13.7732 25.739 18.8479 22 25.1114 22H284.435C290.697 22 295.773 25.7398 295.773 30.3514V117.649C295.773 122.261 290.699 126 284.435 126H25.1114C18.8495 126 13.7732 122.26 13.7732 117.649V30.3514Z" fill="black"/>
</g>
<path fill-rule="evenodd" clip-rule="evenodd" d="M280.585 0.475342C288.973 0.475342 295.773 6.63023 295.773 14.2247V101.692C295.773 109.285 288.974 115.441 280.585 115.441H29.3112C20.9231 115.441 14.1232 109.286 14.1232 101.692L14.1231 97.0922L8.00024 92.2675L14.1231 87.4423L14.1232 14.2247C14.1232 6.63115 20.9227 0.475342 29.3112 0.475342H280.585Z" fill="white"/>
<path d="M64.6962 34V24.448H61.4322V22.8H70.0242V24.448H66.7442V34H64.6962ZM72.87 34.192C72.1873 34.192 71.6273 34.0853 71.19 33.872C70.7527 33.648 70.4273 33.3547 70.214 32.992C70.0007 32.6293 69.894 32.2293 69.894 31.792C69.894 31.056 70.182 30.4587 70.758 30C71.334 29.5413 72.198 29.312 73.35 29.312H75.366V29.12C75.366 28.576 75.2113 28.176 74.902 27.92C74.5927 27.664 74.2087 27.536 73.75 27.536C73.334 27.536 72.9713 27.6373 72.662 27.84C72.3527 28.032 72.1607 28.32 72.086 28.704H70.086C70.1393 28.128 70.3313 27.6267 70.662 27.2C71.0033 26.7733 71.4407 26.448 71.974 26.224C72.5073 25.9893 73.1047 25.872 73.766 25.872C74.8967 25.872 75.7873 26.1547 76.438 26.72C77.0887 27.2853 77.414 28.0853 77.414 29.12V34H75.67L75.478 32.72C75.2433 33.1467 74.9127 33.4987 74.486 33.776C74.07 34.0533 73.5313 34.192 72.87 34.192ZM73.334 32.592C73.9207 32.592 74.374 32.4 74.694 32.016C75.0247 31.632 75.2327 31.1573 75.318 30.592H73.574C73.03 30.592 72.6407 30.6933 72.406 30.896C72.1713 31.088 72.054 31.328 72.054 31.616C72.054 31.9253 72.1713 32.1653 72.406 32.336C72.6407 32.5067 72.95 32.592 73.334 32.592ZM79.3684 34V22.48H81.4164V29.28L84.2324 26.064H86.6644L83.4164 29.68L87.1924 34H84.6324L81.4164 30.016V34H79.3684ZM91.6619 34.192C90.8619 34.192 90.1525 34.0213 89.5339 33.68C88.9152 33.3387 88.4299 32.8587 88.0779 32.24C87.7259 31.6213 87.5499 30.9067 87.5499 30.096C87.5499 29.2747 87.7205 28.544 88.0619 27.904C88.4139 27.264 88.8939 26.768 89.5019 26.416C90.1205 26.0533 90.8459 25.872 91.6779 25.872C92.4565 25.872 93.1445 26.0427 93.7419 26.384C94.3392 26.7253 94.8032 27.1947 95.1339 27.792C95.4752 28.3787 95.6459 29.0347 95.6459 29.76C95.6459 29.8773 95.6405 30 95.6299 30.128C95.6299 30.256 95.6245 30.3893 95.6139 30.528H89.5819C89.6245 31.1467 89.8379 31.632 90.2219 31.984C90.6165 32.336 91.0912 32.512 91.6459 32.512C92.0619 32.512 92.4085 32.4213 92.6859 32.24C92.9739 32.048 93.1872 31.8027 93.3259 31.504H95.4059C95.2565 32.0053 95.0059 32.464 94.6539 32.88C94.3125 33.2853 93.8859 33.6053 93.3739 33.84C92.8725 34.0747 92.3019 34.192 91.6619 34.192ZM91.6779 27.536C91.1765 27.536 90.7339 27.68 90.3499 27.968C89.9659 28.2453 89.7205 28.672 89.6139 29.248H93.5659C93.5339 28.7253 93.3419 28.3093 92.9899 28C92.6379 27.6907 92.2005 27.536 91.6779 27.536ZM105.069 34.192C104.258 34.192 103.544 34.016 102.925 33.664C102.306 33.312 101.816 32.8213 101.453 32.192C101.101 31.5627 100.925 30.8427 100.925 30.032C100.925 29.2213 101.101 28.5013 101.453 27.872C101.816 27.2427 102.306 26.752 102.925 26.4C103.544 26.048 104.258 25.872 105.069 25.872C106.082 25.872 106.936 26.1387 107.629 26.672C108.322 27.1947 108.765 27.92 108.957 28.848H106.797C106.69 28.464 106.477 28.1653 106.157 27.952C105.848 27.728 105.48 27.616 105.053 27.616C104.488 27.616 104.008 27.8293 103.613 28.256C103.218 28.6827 103.021 29.2747 103.021 30.032C103.021 30.7893 103.218 31.3813 103.613 31.808C104.008 32.2347 104.488 32.448 105.053 32.448C105.48 32.448 105.848 32.3413 106.157 32.128C106.477 31.9147 106.69 31.6107 106.797 31.216H108.957C108.765 32.112 108.322 32.832 107.629 33.376C106.936 33.92 106.082 34.192 105.069 34.192ZM113.511 34.192C112.828 34.192 112.268 34.0853 111.831 33.872C111.393 33.648 111.068 33.3547 110.855 32.992C110.641 32.6293 110.535 32.2293 110.535 31.792C110.535 31.056 110.823 30.4587 111.399 30C111.975 29.5413 112.839 29.312 113.991 29.312H116.007V29.12C116.007 28.576 115.852 28.176 115.543 27.92C115.233 27.664 114.849 27.536 114.391 27.536C113.975 27.536 113.612 27.6373 113.303 27.84C112.993 28.032 112.801 28.32 112.727 28.704H110.727C110.78 28.128 110.972 27.6267 111.303 27.2C111.644 26.7733 112.081 26.448 112.615 26.224C113.148 25.9893 113.745 25.872 114.407 25.872C115.537 25.872 116.428 26.1547 117.079 26.72C117.729 27.2853 118.055 28.0853 118.055 29.12V34H116.311L116.119 32.72C115.884 33.1467 115.553 33.4987 115.127 33.776C114.711 34.0533 114.172 34.192 113.511 34.192ZM113.975 32.592C114.561 32.592 115.015 32.4 115.335 32.016C115.665 31.632 115.873 31.1573 115.959 30.592H114.215C113.671 30.592 113.281 30.6933 113.047 30.896C112.812 31.088 112.695 31.328 112.695 31.616C112.695 31.9253 112.812 32.1653 113.047 32.336C113.281 32.5067 113.591 32.592 113.975 32.592ZM120.009 34V26.064H121.833L122.025 27.552C122.313 27.04 122.702 26.6347 123.193 26.336C123.694 26.0267 124.281 25.872 124.953 25.872V28.032H124.377C123.929 28.032 123.529 28.1013 123.177 28.24C122.825 28.3787 122.548 28.6187 122.345 28.96C122.153 29.3013 122.057 29.776 122.057 30.384V34H120.009ZM130.068 34.192C129.268 34.192 128.559 34.0213 127.94 33.68C127.321 33.3387 126.836 32.8587 126.484 32.24C126.132 31.6213 125.956 30.9067 125.956 30.096C125.956 29.2747 126.127 28.544 126.468 27.904C126.82 27.264 127.3 26.768 127.908 26.416C128.527 26.0533 129.252 25.872 130.084 25.872C130.863 25.872 131.551 26.0427 132.148 26.384C132.745 26.7253 133.209 27.1947 133.54 27.792C133.881 28.3787 134.052 29.0347 134.052 29.76C134.052 29.8773 134.047 30 134.036 30.128C134.036 30.256 134.031 30.3893 134.02 30.528H127.988C128.031 31.1467 128.244 31.632 128.628 31.984C129.023 32.336 129.497 32.512 130.052 32.512C130.468 32.512 130.815 32.4213 131.092 32.24C131.38 32.048 131.593 31.8027 131.732 31.504H133.812C133.663 32.0053 133.412 32.464 133.06 32.88C132.719 33.2853 132.292 33.6053 131.78 33.84C131.279 34.0747 130.708 34.192 130.068 34.192ZM130.084 27.536C129.583 27.536 129.14 27.68 128.756 27.968C128.372 28.2453 128.127 28.672 128.02 29.248H131.972C131.94 28.7253 131.748 28.3093 131.396 28C131.044 27.6907 130.607 27.536 130.084 27.536ZM143.395 34.192C142.627 34.192 141.934 34.016 141.315 33.664C140.707 33.312 140.222 32.8267 139.859 32.208C139.507 31.5787 139.331 30.8533 139.331 30.032C139.331 29.2107 139.512 28.4907 139.875 27.872C140.238 27.2427 140.723 26.752 141.331 26.4C141.95 26.048 142.643 25.872 143.411 25.872C144.168 25.872 144.851 26.048 145.459 26.4C146.078 26.752 146.563 27.2427 146.915 27.872C147.278 28.4907 147.459 29.2107 147.459 30.032C147.459 30.8533 147.278 31.5787 146.915 32.208C146.563 32.8267 146.078 33.312 145.459 33.664C144.84 34.016 144.152 34.192 143.395 34.192ZM143.395 32.416C143.928 32.416 144.392 32.2187 144.787 31.824C145.182 31.4187 145.379 30.8213 145.379 30.032C145.379 29.2427 145.182 28.6507 144.787 28.256C144.392 27.8507 143.934 27.648 143.411 27.648C142.867 27.648 142.398 27.8507 142.003 28.256C141.619 28.6507 141.427 29.2427 141.427 30.032C141.427 30.8213 141.619 31.4187 142.003 31.824C142.398 32.2187 142.862 32.416 143.395 32.416ZM149.658 34V27.776H148.57V26.064H149.658V25.136C149.658 24.176 149.898 23.4933 150.378 23.088C150.869 22.6827 151.53 22.48 152.362 22.48H153.242V24.224H152.682C152.33 24.224 152.08 24.2933 151.93 24.432C151.781 24.5707 151.706 24.8053 151.706 25.136V26.064H153.418V27.776H151.706V34H149.658ZM159.845 37.52L161.685 33.472H161.205L158.117 26.064H160.341L162.565 31.648L164.885 26.064H167.061L162.021 37.52H159.845ZM171.52 34.192C170.752 34.192 170.059 34.016 169.44 33.664C168.832 33.312 168.347 32.8267 167.984 32.208C167.632 31.5787 167.456 30.8533 167.456 30.032C167.456 29.2107 167.637 28.4907 168 27.872C168.363 27.2427 168.848 26.752 169.456 26.4C170.075 26.048 170.768 25.872 171.536 25.872C172.293 25.872 172.976 26.048 173.584 26.4C174.203 26.752 174.688 27.2427 175.04 27.872C175.403 28.4907 175.584 29.2107 175.584 30.032C175.584 30.8533 175.403 31.5787 175.04 32.208C174.688 32.8267 174.203 33.312 173.584 33.664C172.965 34.016 172.277 34.192 171.52 34.192ZM171.52 32.416C172.053 32.416 172.517 32.2187 172.912 31.824C173.307 31.4187 173.504 30.8213 173.504 30.032C173.504 29.2427 173.307 28.6507 172.912 28.256C172.517 27.8507 172.059 27.648 171.536 27.648C170.992 27.648 170.523 27.8507 170.128 28.256C169.744 28.6507 169.552 29.2427 169.552 30.032C169.552 30.8213 169.744 31.4187 170.128 31.824C170.523 32.2187 170.987 32.416 171.52 32.416ZM180.391 34.192C179.399 34.192 178.631 33.8827 178.087 33.264C177.554 32.6453 177.287 31.7387 177.287 30.544V26.064H179.319V30.352C179.319 31.0347 179.458 31.5573 179.735 31.92C180.013 32.2827 180.45 32.464 181.047 32.464C181.613 32.464 182.077 32.2613 182.439 31.856C182.813 31.4507 182.999 30.8853 182.999 30.16V26.064H185.047V34H183.239L183.079 32.656C182.834 33.1253 182.477 33.4987 182.007 33.776C181.549 34.0533 181.01 34.192 180.391 34.192ZM187.15 34V26.064H188.974L189.166 27.552C189.454 27.04 189.843 26.6347 190.334 26.336C190.835 26.0267 191.422 25.872 192.094 25.872V28.032H191.518C191.07 28.032 190.67 28.1013 190.318 28.24C189.966 28.3787 189.688 28.6187 189.486 28.96C189.294 29.3013 189.198 29.776 189.198 30.384V34H187.15ZM197.306 34V22.48H199.354V27.28C199.621 26.8427 199.978 26.5013 200.426 26.256C200.885 26 201.407 25.872 201.994 25.872C202.975 25.872 203.733 26.1813 204.266 26.8C204.81 27.4187 205.082 28.3253 205.082 29.52V34H203.05V29.712C203.05 29.0293 202.911 28.5067 202.634 28.144C202.367 27.7813 201.941 27.6 201.354 27.6C200.778 27.6 200.298 27.8027 199.914 28.208C199.541 28.6133 199.354 29.1787 199.354 29.904V34H197.306ZM210.896 34.192C210.096 34.192 209.387 34.0213 208.768 33.68C208.15 33.3387 207.664 32.8587 207.312 32.24C206.96 31.6213 206.784 30.9067 206.784 30.096C206.784 29.2747 206.955 28.544 207.296 27.904C207.648 27.264 208.128 26.768 208.736 26.416C209.355 26.0533 210.08 25.872 210.912 25.872C211.691 25.872 212.379 26.0427 212.976 26.384C213.574 26.7253 214.038 27.1947 214.368 27.792C214.71 28.3787 214.88 29.0347 214.88 29.76C214.88 29.8773 214.875 30 214.864 30.128C214.864 30.256 214.859 30.3893 214.848 30.528H208.816C208.859 31.1467 209.072 31.632 209.456 31.984C209.851 32.336 210.326 32.512 210.88 32.512C211.296 32.512 211.643 32.4213 211.92 32.24C212.208 32.048 212.422 31.8027 212.56 31.504H214.64C214.491 32.0053 214.24 32.464 213.888 32.88C213.547 33.2853 213.12 33.6053 212.608 33.84C212.107 34.0747 211.536 34.192 210.896 34.192ZM210.912 27.536C210.411 27.536 209.968 27.68 209.584 27.968C209.2 28.2453 208.955 28.672 208.848 29.248H212.8C212.768 28.7253 212.576 28.3093 212.224 28C211.872 27.6907 211.435 27.536 210.912 27.536ZM219.339 34.192C218.656 34.192 218.096 34.0853 217.659 33.872C217.221 33.648 216.896 33.3547 216.683 32.992C216.469 32.6293 216.363 32.2293 216.363 31.792C216.363 31.056 216.651 30.4587 217.227 30C217.803 29.5413 218.667 29.312 219.819 29.312H221.835V29.12C221.835 28.576 221.68 28.176 221.371 27.92C221.061 27.664 220.677 27.536 220.219 27.536C219.803 27.536 219.44 27.6373 219.131 27.84C218.821 28.032 218.629 28.32 218.555 28.704H216.555C216.608 28.128 216.8 27.6267 217.131 27.2C217.472 26.7733 217.909 26.448 218.443 26.224C218.976 25.9893 219.573 25.872 220.235 25.872C221.365 25.872 222.256 26.1547 222.907 26.72C223.557 27.2853 223.883 28.0853 223.883 29.12V34H222.139L221.947 32.72C221.712 33.1467 221.381 33.4987 220.955 33.776C220.539 34.0533 220 34.192 219.339 34.192ZM219.803 32.592C220.389 32.592 220.843 32.4 221.163 32.016C221.493 31.632 221.701 31.1573 221.787 30.592H220.043C219.499 30.592 219.109 30.6933 218.875 30.896C218.64 31.088 218.523 31.328 218.523 31.616C218.523 31.9253 218.64 32.1653 218.875 32.336C219.109 32.5067 219.419 32.592 219.803 32.592ZM225.837 34V22.48H227.885V34H225.837ZM233.514 34C232.682 34 232.015 33.7973 231.514 33.392C231.012 32.9867 230.762 32.2667 230.762 31.232V27.776H229.402V26.064H230.762L231.002 23.936H232.81V26.064H234.954V27.776H232.81V31.248C232.81 31.632 232.89 31.8987 233.05 32.048C233.22 32.1867 233.508 32.256 233.914 32.256H234.906V34H233.514ZM236.712 34V22.48H238.76V27.28C239.027 26.8427 239.384 26.5013 239.832 26.256C240.291 26 240.813 25.872 241.4 25.872C242.381 25.872 243.139 26.1813 243.672 26.8C244.216 27.4187 244.488 28.3253 244.488 29.52V34H242.456V29.712C242.456 29.0293 242.317 28.5067 242.04 28.144C241.773 27.7813 241.347 27.6 240.76 27.6C240.184 27.6 239.704 27.8027 239.32 28.208C238.947 28.6133 238.76 29.1787 238.76 29.904V34H236.712ZM247.326 34.112C246.953 34.112 246.644 33.9947 246.398 33.76C246.164 33.5253 246.046 33.2427 246.046 32.912C246.046 32.5707 246.164 32.2827 246.398 32.048C246.644 31.8133 246.953 31.696 247.326 31.696C247.7 31.696 248.004 31.8133 248.238 32.048C248.484 32.2827 248.606 32.5707 248.606 32.912C248.606 33.2427 248.484 33.5253 248.238 33.76C248.004 33.9947 247.7 34.112 247.326 34.112Z" fill="#FA7303"/>
<path opacity="0.838736" d="M131.888 95.1754V86.7754H134.468C135.948 86.7754 137.036 87.1514 137.732 87.9034C138.436 88.6554 138.788 89.6874 138.788 90.9994C138.788 92.2874 138.436 93.3074 137.732 94.0594C137.036 94.8034 135.948 95.1754 134.468 95.1754H131.888ZM132.896 94.3354H134.444C135.26 94.3354 135.908 94.2034 136.388 93.9394C136.876 93.6674 137.224 93.2834 137.432 92.7874C137.64 92.2834 137.744 91.6874 137.744 90.9994C137.744 90.2954 137.64 89.6914 137.432 89.1874C137.224 88.6834 136.876 88.2954 136.388 88.0234C135.908 87.7514 135.26 87.6154 134.444 87.6154H132.896V94.3354ZM142.86 95.3194C142.292 95.3194 141.788 95.1914 141.348 94.9354C140.908 94.6714 140.56 94.3074 140.304 93.8434C140.056 93.3794 139.932 92.8314 139.932 92.1994C139.932 91.5754 140.056 91.0314 140.304 90.5674C140.552 90.0954 140.896 89.7314 141.336 89.4754C141.784 89.2114 142.3 89.0794 142.884 89.0794C143.46 89.0794 143.956 89.2114 144.372 89.4754C144.796 89.7314 145.12 90.0714 145.344 90.4954C145.568 90.9194 145.68 91.3754 145.68 91.8634C145.68 91.9514 145.676 92.0394 145.668 92.1274C145.668 92.2154 145.668 92.3154 145.668 92.4274H140.928C140.952 92.8834 141.056 93.2634 141.24 93.5674C141.432 93.8634 141.668 94.0874 141.948 94.2394C142.236 94.3914 142.54 94.4674 142.86 94.4674C143.276 94.4674 143.624 94.3714 143.904 94.1794C144.184 93.9874 144.388 93.7274 144.516 93.3994H145.512C145.352 93.9514 145.044 94.4114 144.588 94.7794C144.14 95.1394 143.564 95.3194 142.86 95.3194ZM142.86 89.9314C142.38 89.9314 141.952 90.0794 141.576 90.3754C141.208 90.6634 140.996 91.0874 140.94 91.6474H144.684C144.66 91.1114 144.476 90.6914 144.132 90.3874C143.788 90.0834 143.364 89.9314 142.86 89.9314ZM147.016 95.1754V86.5354H148.024V95.1754H147.016ZM150.288 87.9034C150.088 87.9034 149.92 87.8394 149.784 87.7114C149.656 87.5754 149.592 87.4074 149.592 87.2074C149.592 87.0154 149.656 86.8554 149.784 86.7274C149.92 86.5994 150.088 86.5354 150.288 86.5354C150.48 86.5354 150.644 86.5994 150.78 86.7274C150.916 86.8554 150.984 87.0154 150.984 87.2074C150.984 87.4074 150.916 87.5754 150.78 87.7114C150.644 87.8394 150.48 87.9034 150.288 87.9034ZM149.784 95.1754V89.2234H150.792V95.1754H149.784ZM155.283 95.3194C154.715 95.3194 154.203 95.1914 153.747 94.9354C153.299 94.6714 152.943 94.3074 152.679 93.8434C152.423 93.3714 152.295 92.8234 152.295 92.1994C152.295 91.5754 152.423 91.0314 152.679 90.5674C152.943 90.0954 153.299 89.7314 153.747 89.4754C154.203 89.2114 154.715 89.0794 155.283 89.0794C155.987 89.0794 156.579 89.2634 157.059 89.6314C157.547 89.9994 157.855 90.4914 157.983 91.1074H156.951C156.871 90.7394 156.675 90.4554 156.363 90.2554C156.051 90.0474 155.687 89.9434 155.271 89.9434C154.935 89.9434 154.619 90.0274 154.323 90.1954C154.027 90.3634 153.787 90.6154 153.603 90.9514C153.419 91.2874 153.327 91.7034 153.327 92.1994C153.327 92.6954 153.419 93.1114 153.603 93.4474C153.787 93.7834 154.027 94.0394 154.323 94.2154C154.619 94.3834 154.935 94.4674 155.271 94.4674C155.687 94.4674 156.051 94.3674 156.363 94.1674C156.675 93.9594 156.871 93.6674 156.951 93.2914H157.983C157.863 93.8914 157.559 94.3794 157.071 94.7554C156.583 95.1314 155.987 95.3194 155.283 95.3194ZM160.003 87.9034C159.803 87.9034 159.635 87.8394 159.499 87.7114C159.371 87.5754 159.307 87.4074 159.307 87.2074C159.307 87.0154 159.371 86.8554 159.499 86.7274C159.635 86.5994 159.803 86.5354 160.003 86.5354C160.195 86.5354 160.359 86.5994 160.495 86.7274C160.631 86.8554 160.699 87.0154 160.699 87.2074C160.699 87.4074 160.631 87.5754 160.495 87.7114C160.359 87.8394 160.195 87.9034 160.003 87.9034ZM159.499 95.1754V89.2234H160.507V95.1754H159.499ZM164.974 95.3194C164.414 95.3194 163.91 95.1914 163.462 94.9354C163.014 94.6794 162.658 94.3194 162.394 93.8554C162.138 93.3834 162.01 92.8314 162.01 92.1994C162.01 91.5674 162.142 91.0194 162.406 90.5554C162.67 90.0834 163.026 89.7194 163.474 89.4634C163.93 89.2074 164.438 89.0794 164.998 89.0794C165.558 89.0794 166.062 89.2074 166.51 89.4634C166.958 89.7194 167.31 90.0834 167.566 90.5554C167.83 91.0194 167.962 91.5674 167.962 92.1994C167.962 92.8314 167.83 93.3834 167.566 93.8554C167.302 94.3194 166.942 94.6794 166.486 94.9354C166.038 95.1914 165.534 95.3194 164.974 95.3194ZM164.974 94.4554C165.318 94.4554 165.638 94.3714 165.934 94.2034C166.23 94.0354 166.47 93.7834 166.654 93.4474C166.838 93.1114 166.93 92.6954 166.93 92.1994C166.93 91.7034 166.838 91.2874 166.654 90.9514C166.478 90.6154 166.242 90.3634 165.946 90.1954C165.65 90.0274 165.334 89.9434 164.998 89.9434C164.654 89.9434 164.334 90.0274 164.038 90.1954C163.742 90.3634 163.502 90.6154 163.318 90.9514C163.134 91.2874 163.042 91.7034 163.042 92.1994C163.042 92.6954 163.134 93.1114 163.318 93.4474C163.502 93.7834 163.738 94.0354 164.026 94.2034C164.322 94.3714 164.638 94.4554 164.974 94.4554ZM171.535 95.3194C170.831 95.3194 170.271 95.1074 169.855 94.6834C169.439 94.2514 169.231 93.5914 169.231 92.7034V89.2234H170.239V92.5954C170.239 93.8354 170.747 94.4554 171.763 94.4554C172.283 94.4554 172.711 94.2714 173.047 93.9034C173.391 93.5274 173.563 92.9954 173.563 92.3074V89.2234H174.571V95.1754H173.659L173.587 94.1074C173.403 94.4834 173.127 94.7794 172.759 94.9954C172.399 95.2114 171.991 95.3194 171.535 95.3194ZM178.511 95.3194C177.799 95.3194 177.207 95.1394 176.735 94.7794C176.263 94.4194 175.987 93.9314 175.907 93.3154H176.939C177.003 93.6274 177.167 93.8994 177.431 94.1314C177.703 94.3554 178.067 94.4674 178.523 94.4674C178.947 94.4674 179.259 94.3794 179.459 94.2034C179.659 94.0194 179.759 93.8034 179.759 93.5554C179.759 93.1954 179.627 92.9554 179.363 92.8354C179.107 92.7154 178.743 92.6074 178.271 92.5114C177.951 92.4474 177.631 92.3554 177.311 92.2354C176.991 92.1154 176.723 91.9474 176.507 91.7314C176.291 91.5074 176.183 91.2154 176.183 90.8554C176.183 90.3354 176.375 89.9114 176.759 89.5834C177.151 89.2474 177.679 89.0794 178.343 89.0794C178.975 89.0794 179.491 89.2394 179.891 89.5594C180.299 89.8714 180.535 90.3194 180.599 90.9034H179.603C179.563 90.5994 179.431 90.3634 179.207 90.1954C178.991 90.0194 178.699 89.9314 178.331 89.9314C177.971 89.9314 177.691 90.0074 177.491 90.1594C177.299 90.3114 177.203 90.5114 177.203 90.7594C177.203 90.9994 177.327 91.1874 177.575 91.3234C177.831 91.4594 178.175 91.5754 178.607 91.6714C178.975 91.7514 179.323 91.8514 179.651 91.9714C179.987 92.0834 180.259 92.2554 180.467 92.4874C180.683 92.7114 180.791 93.0394 180.791 93.4714C180.799 94.0074 180.595 94.4514 180.179 94.8034C179.771 95.1474 179.215 95.3194 178.511 95.3194Z" fill="#2A2A2A"/>
<path fill-rule="evenodd" clip-rule="evenodd" d="M149.321 63.9007C149.484 63.9945 149.653 64.0665 149.824 64.1212C150.491 63.604 151.286 63.244 152.153 63.0969C151.935 62.554 151.516 61.7961 150.781 61.372C149.815 60.8139 148.62 61.0184 148.151 61.1323C148.022 61.1636 147.91 61.2473 147.844 61.3619C147.778 61.4766 147.761 61.6154 147.798 61.7427C147.934 62.2056 148.355 63.3426 149.321 63.9007Z" fill="black"/>
<path fill-rule="evenodd" clip-rule="evenodd" d="M153.772 63.0738C153.926 62.6717 154.193 62.315 154.548 62.0549C154.808 61.8642 154.864 61.4988 154.674 61.2387C154.483 60.9785 154.118 60.9224 153.857 61.113C153.208 61.5891 152.752 62.2779 152.557 63.0445C152.715 63.0302 152.874 63.0225 153.035 63.0225C153.283 63.0225 153.529 63.0398 153.772 63.0738Z" fill="black"/>
<path fill-rule="evenodd" clip-rule="evenodd" d="M154.084 77.0131C153.539 75.5148 153.453 73.9216 153.837 72.4056C154.009 71.7251 153.991 71.065 153.784 70.4969C153.303 69.1758 153.365 67.7476 153.958 66.4753C154.259 65.8303 154.678 65.2645 155.19 64.8006C154.555 64.4068 153.815 64.1904 153.035 64.1904C150.781 64.1904 148.947 66.0242 148.947 68.2812C148.947 69.1209 148.669 69.9744 148.142 70.7494C147.395 71.8484 147 73.1478 147 74.5072C147 78.0492 149.707 80.9309 153.035 80.9309C154.108 80.9309 155.156 80.6219 156.071 80.0559C155.195 79.2272 154.512 78.1901 154.084 77.0131Z" fill="black"/>
<path fill-rule="evenodd" clip-rule="evenodd" d="M166.523 72.486C166.058 71.2086 165.242 70.1225 164.165 69.3452C163.405 68.7971 162.851 68.0903 162.564 67.3012L162.563 67.2984C162.19 66.2724 161.439 65.4532 160.449 64.9917C159.46 64.5303 158.35 64.4818 157.324 64.8552C156.297 65.2287 155.478 65.9793 155.017 66.9689C154.555 67.9585 154.507 69.0686 154.881 70.0974C155.169 70.8865 155.199 71.7837 154.969 72.6921C154.643 73.9802 154.717 75.3363 155.182 76.6136C155.766 78.2189 156.901 79.5169 158.378 80.2686C159.245 80.7101 160.169 80.9328 161.091 80.9328C161.752 80.9328 162.413 80.8177 163.049 80.5861C166.176 79.4481 167.734 75.8144 166.523 72.486ZM164.065 76.3973C163.751 77.3715 163.106 78.0795 162.25 78.3911C161.394 78.7026 160.445 78.5745 159.579 78.0302C158.758 77.5151 158.106 76.6811 157.742 75.6816C157.379 74.6822 157.342 73.6241 157.639 72.7023C157.954 71.7281 158.598 71.0201 159.454 70.7085C160.31 70.397 161.259 70.5251 162.126 71.0694C162.946 71.5845 163.598 72.4186 163.962 73.418C164.326 74.4175 164.362 75.4755 164.065 76.3973Z" fill="black"/>
<path fill-rule="evenodd" clip-rule="evenodd" d="M161.505 72.0585C160.95 71.7102 160.363 71.6205 159.853 71.806C159.344 71.9916 158.952 72.4372 158.751 73.0607C158.533 73.7366 158.565 74.5255 158.84 75.2821C159.115 76.0387 159.598 76.6633 160.2 77.041C160.755 77.3894 161.341 77.4791 161.851 77.2935C162.361 77.108 162.752 76.6624 162.953 76.0388C163.171 75.3629 163.14 74.574 162.864 73.8174C162.589 73.0608 162.106 72.4362 161.505 72.0585Z" fill="black"/>
<path opacity="0.838736" d="M58.5722 95.2098C57.7482 95.2098 57.0362 95.0298 56.4362 94.6698C55.8442 94.3018 55.3842 93.7938 55.0562 93.1458C54.7282 92.4898 54.5642 91.7298 54.5642 90.8658C54.5642 90.0098 54.7282 89.2578 55.0562 88.6098C55.3842 87.9538 55.8442 87.4418 56.4362 87.0738C57.0362 86.7058 57.7482 86.5218 58.5722 86.5218C59.5322 86.5218 60.3122 86.7538 60.9122 87.2178C61.5202 87.6738 61.9082 88.3138 62.0762 89.1378H60.9602C60.8322 88.6178 60.5682 88.2018 60.1682 87.8898C59.7762 87.5698 59.2442 87.4098 58.5722 87.4098C57.9722 87.4098 57.4482 87.5498 57.0002 87.8298C56.5522 88.1018 56.2042 88.4978 55.9562 89.0178C55.7162 89.5298 55.5962 90.1458 55.5962 90.8658C55.5962 91.5858 55.7162 92.2058 55.9562 92.7258C56.2042 93.2378 56.5522 93.6338 57.0002 93.9138C57.4482 94.1858 57.9722 94.3218 58.5722 94.3218C59.2442 94.3218 59.7762 94.1698 60.1682 93.8658C60.5682 93.5538 60.8322 93.1418 60.9602 92.6298H62.0762C61.9082 93.4378 61.5202 94.0698 60.9122 94.5258C60.3122 94.9818 59.5322 95.2098 58.5722 95.2098ZM65.445 95.2098C64.949 95.2098 64.537 95.1258 64.209 94.9578C63.881 94.7898 63.637 94.5658 63.477 94.2858C63.317 94.0058 63.237 93.7018 63.237 93.3738C63.237 92.7658 63.469 92.2978 63.933 91.9698C64.397 91.6418 65.029 91.4778 65.829 91.4778H67.437V91.4058C67.437 90.8858 67.301 90.4938 67.029 90.2298C66.757 89.9578 66.393 89.8218 65.937 89.8218C65.545 89.8218 65.205 89.9218 64.917 90.1218C64.637 90.3138 64.461 90.5978 64.389 90.9738H63.357C63.397 90.5418 63.541 90.1778 63.789 89.8818C64.045 89.5858 64.361 89.3618 64.737 89.2098C65.113 89.0498 65.513 88.9698 65.937 88.9698C66.769 88.9698 67.393 89.1938 67.809 89.6418C68.233 90.0818 68.445 90.6698 68.445 91.4058V95.0658H67.545L67.485 93.9978C67.317 94.3338 67.069 94.6218 66.741 94.8618C66.421 95.0938 65.989 95.2098 65.445 95.2098ZM65.601 94.3578C65.985 94.3578 66.313 94.2578 66.585 94.0578C66.865 93.8578 67.077 93.5978 67.221 93.2778C67.365 92.9578 67.437 92.6218 67.437 92.2698V92.2578H65.913C65.321 92.2578 64.901 92.3618 64.653 92.5698C64.413 92.7698 64.293 93.0218 64.293 93.3258C64.293 93.6378 64.405 93.8898 64.629 94.0818C64.861 94.2658 65.185 94.3578 65.601 94.3578ZM69.9572 95.0658V86.4258H70.9652V95.0658H69.9572ZM75.3293 95.2098C74.7693 95.2098 74.2653 95.0818 73.8173 94.8258C73.3693 94.5698 73.0133 94.2098 72.7493 93.7458C72.4933 93.2738 72.3653 92.7218 72.3653 92.0898C72.3653 91.4578 72.4973 90.9098 72.7613 90.4458C73.0253 89.9738 73.3813 89.6098 73.8293 89.3538C74.2853 89.0978 74.7933 88.9698 75.3533 88.9698C75.9133 88.9698 76.4173 89.0978 76.8653 89.3538C77.3133 89.6098 77.6653 89.9738 77.9213 90.4458C78.1853 90.9098 78.3173 91.4578 78.3173 92.0898C78.3173 92.7218 78.1853 93.2738 77.9213 93.7458C77.6573 94.2098 77.2973 94.5698 76.8413 94.8258C76.3933 95.0818 75.8893 95.2098 75.3293 95.2098ZM75.3293 94.3458C75.6733 94.3458 75.9933 94.2618 76.2893 94.0938C76.5853 93.9258 76.8253 93.6738 77.0093 93.3378C77.1933 93.0018 77.2853 92.5858 77.2853 92.0898C77.2853 91.5938 77.1933 91.1778 77.0093 90.8418C76.8333 90.5058 76.5973 90.2538 76.3013 90.0858C76.0053 89.9178 75.6893 89.8338 75.3533 89.8338C75.0093 89.8338 74.6893 89.9178 74.3933 90.0858C74.0973 90.2538 73.8573 90.5058 73.6733 90.8418C73.4893 91.1778 73.3973 91.5938 73.3973 92.0898C73.3973 92.5858 73.4893 93.0018 73.6733 93.3378C73.8573 93.6738 74.0933 93.9258 74.3813 94.0938C74.6773 94.2618 74.9933 94.3458 75.3293 94.3458ZM79.7189 95.0658V89.1138H80.6309L80.7149 90.2538C80.8989 89.8618 81.1789 89.5498 81.5549 89.3178C81.9309 89.0858 82.3949 88.9698 82.9469 88.9698V90.0258H82.6709C82.3189 90.0258 81.9949 90.0898 81.6989 90.2178C81.4029 90.3378 81.1669 90.5458 80.9909 90.8418C80.8149 91.1378 80.7269 91.5458 80.7269 92.0658V95.0658H79.7189ZM84.6902 87.7938C84.4902 87.7938 84.3222 87.7298 84.1862 87.6018C84.0582 87.4658 83.9942 87.2978 83.9942 87.0978C83.9942 86.9058 84.0582 86.7458 84.1862 86.6178C84.3222 86.4898 84.4902 86.4258 84.6902 86.4258C84.8822 86.4258 85.0462 86.4898 85.1822 86.6178C85.3182 86.7458 85.3862 86.9058 85.3862 87.0978C85.3862 87.2978 85.3182 87.4658 85.1822 87.6018C85.0462 87.7298 84.8822 87.7938 84.6902 87.7938ZM84.1862 95.0658V89.1138H85.1942V95.0658H84.1862ZM89.6253 95.2098C89.0573 95.2098 88.5533 95.0818 88.1133 94.8258C87.6733 94.5618 87.3253 94.1978 87.0693 93.7338C86.8213 93.2698 86.6973 92.7218 86.6973 92.0898C86.6973 91.4658 86.8213 90.9218 87.0693 90.4578C87.3173 89.9858 87.6613 89.6218 88.1013 89.3658C88.5493 89.1018 89.0653 88.9698 89.6493 88.9698C90.2253 88.9698 90.7213 89.1018 91.1373 89.3658C91.5613 89.6218 91.8853 89.9618 92.1093 90.3858C92.3333 90.8098 92.4453 91.2658 92.4453 91.7538C92.4453 91.8418 92.4413 91.9298 92.4333 92.0178C92.4333 92.1058 92.4333 92.2058 92.4333 92.3178H87.6933C87.7173 92.7738 87.8213 93.1538 88.0053 93.4578C88.1973 93.7538 88.4333 93.9778 88.7133 94.1298C89.0013 94.2818 89.3053 94.3578 89.6253 94.3578C90.0413 94.3578 90.3893 94.2618 90.6693 94.0698C90.9493 93.8778 91.1533 93.6178 91.2813 93.2898H92.2773C92.1173 93.8418 91.8093 94.3018 91.3533 94.6698C90.9053 95.0298 90.3293 95.2098 89.6253 95.2098ZM89.6253 89.8218C89.1453 89.8218 88.7173 89.9698 88.3413 90.2658C87.9733 90.5538 87.7613 90.9778 87.7053 91.5378H91.4493C91.4253 91.0018 91.2413 90.5818 90.8973 90.2778C90.5533 89.9738 90.1293 89.8218 89.6253 89.8218ZM96.0614 95.2098C95.3494 95.2098 94.7574 95.0298 94.2854 94.6698C93.8134 94.3098 93.5374 93.8218 93.4574 93.2058H94.4894C94.5534 93.5178 94.7174 93.7898 94.9814 94.0218C95.2534 94.2458 95.6174 94.3578 96.0734 94.3578C96.4974 94.3578 96.8094 94.2698 97.0094 94.0938C97.2094 93.9098 97.3094 93.6938 97.3094 93.4458C97.3094 93.0858 97.1774 92.8458 96.9134 92.7258C96.6574 92.6058 96.2934 92.4978 95.8214 92.4018C95.5014 92.3378 95.1814 92.2458 94.8614 92.1258C94.5414 92.0058 94.2734 91.8378 94.0574 91.6218C93.8414 91.3978 93.7334 91.1058 93.7334 90.7458C93.7334 90.2258 93.9254 89.8018 94.3094 89.4738C94.7014 89.1378 95.2294 88.9698 95.8934 88.9698C96.5254 88.9698 97.0414 89.1298 97.4414 89.4498C97.8494 89.7618 98.0854 90.2098 98.1494 90.7938H97.1534C97.1134 90.4898 96.9814 90.2538 96.7574 90.0858C96.5414 89.9098 96.2494 89.8218 95.8814 89.8218C95.5214 89.8218 95.2414 89.8978 95.0414 90.0498C94.8494 90.2018 94.7534 90.4018 94.7534 90.6498C94.7534 90.8898 94.8774 91.0778 95.1254 91.2138C95.3814 91.3498 95.7254 91.4658 96.1574 91.5618C96.5254 91.6418 96.8734 91.7418 97.2014 91.8618C97.5374 91.9738 97.8094 92.1458 98.0174 92.3778C98.2334 92.6018 98.3414 92.9298 98.3414 93.3618C98.3494 93.8978 98.1454 94.3418 97.7294 94.6938C97.3214 95.0378 96.7654 95.2098 96.0614 95.2098Z" fill="#2A2A2A"/>
<path fill-rule="evenodd" clip-rule="evenodd" d="M76.1567 74.3424C75.6177 74.741 74.505 75.7266 74.505 77.0695C74.505 77.9561 75.2455 78.6773 76.1558 78.6773C77.0661 78.6773 77.8066 77.9561 77.8066 77.0695C77.8066 75.7977 76.6933 74.7658 76.1567 74.3424Z" fill="black"/>
<path fill-rule="evenodd" clip-rule="evenodd" d="M80.0249 65.0838C79.8247 64.8638 79.4791 64.8505 79.2611 65.0482L76.7471 67.328V62.5536C76.7471 62.154 76.2512 61.8554 75.8798 62.0737C75.8095 62.115 74.1388 63.1062 72.4507 64.9063C70.3981 67.095 69.0002 69.76 69.0002 72.7486C69.0002 76.5916 72.2102 79.718 76.1558 79.718C74.6564 79.718 73.4365 78.5299 73.4365 77.0695C73.4365 74.7097 75.7946 73.3123 75.8949 73.254C76.0709 73.1518 76.2912 73.1566 76.4623 73.2661C76.5608 73.3292 78.8751 74.8374 78.8751 77.0695C78.8751 78.5299 77.6552 79.718 76.1558 79.718C80.1014 79.718 83.3113 76.5916 83.3113 72.7486C83.3113 69.8468 81.9935 67.2459 80.0249 65.0838Z" fill="black"/>
<path fill-rule="evenodd" clip-rule="evenodd" d="M241.845 62.805C241.581 62.3082 241.06 62 240.483 62H235.86C235.001 62 234.303 62.6985 234.303 63.5572V65.6336C234.303 66.4923 235.001 67.1908 235.86 67.1908H237.417V65.1145H236.898C236.611 65.1145 236.379 64.8823 236.379 64.5954C236.379 64.3085 236.611 64.0763 236.898 64.0763H237.971C238.258 64.0763 238.49 64.3085 238.49 64.5954V67.1908H239.009C239.296 67.1908 239.528 67.4235 239.528 67.7099V71.8376C240.14 72.0047 240.742 72.218 241.318 72.5056C241.574 72.6339 241.678 72.9456 241.55 73.2021C241.424 73.4554 241.113 73.5634 240.853 73.4343C238.399 72.2065 235.432 72.2065 232.977 73.4343C232.721 73.5615 232.409 73.4586 232.281 73.2021C232.153 72.9456 232.257 72.6339 232.513 72.5056C233.29 72.1171 234.112 71.8511 234.95 71.6825C233.771 70.5534 232.132 70.1196 230.512 70.5251C228.867 70.9362 227.518 72.2689 227.128 73.9225C226.796 75.3545 227.119 76.822 228.015 77.9494C228.908 79.0733 230.276 79.718 231.707 79.718C236.493 79.718 240.449 78.5646 244.433 76.5483C244.609 76.4601 244.719 76.2806 244.719 76.0845V73.8317C244.719 69.9802 243.723 66.1177 241.845 62.805Z" fill="black"/>
<path opacity="0.838736" d="M214.888 95.0658V86.6658H215.896V90.3738H220.252V86.6658H221.26V95.0658H220.252V91.2018H215.896V95.0658H214.888ZM225.649 95.2098C225.081 95.2098 224.577 95.0818 224.137 94.8258C223.697 94.5618 223.349 94.1978 223.093 93.7338C222.845 93.2698 222.721 92.7218 222.721 92.0898C222.721 91.4658 222.845 90.9218 223.093 90.4578C223.341 89.9858 223.685 89.6218 224.125 89.3658C224.573 89.1018 225.089 88.9698 225.673 88.9698C226.249 88.9698 226.745 89.1018 227.161 89.3658C227.585 89.6218 227.909 89.9618 228.133 90.3858C228.357 90.8098 228.469 91.2658 228.469 91.7538C228.469 91.8418 228.465 91.9298 228.457 92.0178C228.457 92.1058 228.457 92.2058 228.457 92.3178H223.717C223.741 92.7738 223.845 93.1538 224.029 93.4578C224.221 93.7538 224.457 93.9778 224.737 94.1298C225.025 94.2818 225.329 94.3578 225.649 94.3578C226.065 94.3578 226.413 94.2618 226.693 94.0698C226.973 93.8778 227.177 93.6178 227.305 93.2898H228.301C228.141 93.8418 227.833 94.3018 227.377 94.6698C226.929 95.0298 226.353 95.2098 225.649 95.2098ZM225.649 89.8218C225.169 89.8218 224.741 89.9698 224.365 90.2658C223.997 90.5538 223.785 90.9778 223.729 91.5378H227.473C227.449 91.0018 227.265 90.5818 226.921 90.2778C226.577 89.9738 226.153 89.8218 225.649 89.8218ZM231.785 95.2098C231.289 95.2098 230.877 95.1258 230.549 94.9578C230.221 94.7898 229.977 94.5658 229.817 94.2858C229.657 94.0058 229.577 93.7018 229.577 93.3738C229.577 92.7658 229.809 92.2978 230.273 91.9698C230.737 91.6418 231.369 91.4778 232.169 91.4778H233.777V91.4058C233.777 90.8858 233.641 90.4938 233.369 90.2298C233.097 89.9578 232.733 89.8218 232.277 89.8218C231.885 89.8218 231.545 89.9218 231.257 90.1218C230.977 90.3138 230.801 90.5978 230.729 90.9738H229.697C229.737 90.5418 229.881 90.1778 230.129 89.8818C230.385 89.5858 230.701 89.3618 231.077 89.2098C231.453 89.0498 231.853 88.9698 232.277 88.9698C233.109 88.9698 233.733 89.1938 234.149 89.6418C234.573 90.0818 234.785 90.6698 234.785 91.4058V95.0658H233.885L233.825 93.9978C233.657 94.3338 233.409 94.6218 233.081 94.8618C232.761 95.0938 232.329 95.2098 231.785 95.2098ZM231.941 94.3578C232.325 94.3578 232.653 94.2578 232.925 94.0578C233.205 93.8578 233.417 93.5978 233.561 93.2778C233.705 92.9578 233.777 92.6218 233.777 92.2698V92.2578H232.253C231.661 92.2578 231.241 92.3618 230.993 92.5698C230.753 92.7698 230.633 93.0218 230.633 93.3258C230.633 93.6378 230.745 93.8898 230.969 94.0818C231.201 94.2658 231.525 94.3578 231.941 94.3578ZM236.297 95.0658V86.4258H237.305V95.0658H236.297ZM241.309 95.0658C240.765 95.0658 240.337 94.9338 240.025 94.6698C239.713 94.4058 239.557 93.9298 239.557 93.2418V89.9658H238.525V89.1138H239.557L239.689 87.6858H240.565V89.1138H242.317V89.9658H240.565V93.2418C240.565 93.6178 240.641 93.8738 240.793 94.0098C240.945 94.1378 241.213 94.2018 241.597 94.2018H242.221V95.0658H241.309ZM243.598 95.0658V86.4258H244.606V90.1338C244.806 89.7658 245.09 89.4818 245.458 89.2818C245.826 89.0738 246.226 88.9698 246.658 88.9698C247.346 88.9698 247.898 89.1858 248.314 89.6178C248.73 90.0418 248.938 90.6978 248.938 91.5858V95.0658H247.942V91.6938C247.942 90.4538 247.442 89.8338 246.442 89.8338C245.922 89.8338 245.486 90.0218 245.134 90.3978C244.782 90.7658 244.606 91.2938 244.606 91.9818V95.0658H243.598ZM250.937 97.7058L252.413 94.4898H252.065L249.701 89.1138H250.793L252.761 93.7458L254.849 89.1138H255.893L251.993 97.7058H250.937Z" fill="#2A2A2A"/>
<defs>
<filter id="filter0_f_17_2990" x="0.431887" y="8.65866" width="308.683" height="130.683" filterUnits="userSpaceOnUse" color-interpolation-filters="sRGB">
<feFlood flood-opacity="0" result="BackgroundImageFix"/>
<feBlend mode="normal" in="SourceGraphic" in2="BackgroundImageFix" result="shape"/>
<feGaussianBlur stdDeviation="6.67067" result="effect1_foregroundBlur_17_2990"/>
</filter>
</defs>
</svg>
