<svg width="363" height="122" viewBox="0 0 363 122" fill="none" xmlns="http://www.w3.org/2000/svg">
<g opacity="0.216301" filter="url(#filter0_f_17_2984)">
<path d="M331.469 17.2184H31.5312C23.506 17.2184 17.0002 21.9445 17.0002 27.7745V94.6622C17.0002 100.492 23.506 105.218 31.5312 105.218H331.469C339.495 105.218 346 100.492 346 94.6622V27.7745C346 21.9445 339.495 17.2184 331.469 17.2184Z" fill="black"/>
</g>
<path fill-rule="evenodd" clip-rule="evenodd" d="M17.0002 25.1438C17.0002 15.6756 25.3281 8 35.593 8H326.396C336.664 8 344.989 15.678 344.989 25.1438V78.4567C344.989 87.925 336.661 95.6006 326.396 95.6006H35.593C25.3245 95.6006 17.0002 87.9225 17.0002 78.4567V25.1438Z" fill="white"/>
<mask id="mask0_17_2984" style="mask-type:alpha" maskUnits="userSpaceOnUse" x="17" y="8" width="99" height="88">
<path d="M17.2574 25.1899C17.2574 15.6962 24.9554 8 34.4492 8H115.753V95.836H34.4492C24.9544 95.836 17.2574 88.1373 17.2574 78.6461V25.1899Z" fill="white"/>
</mask>
<g mask="url(#mask0_17_2984)">
<path d="M17.2574 25.1899C17.2574 15.6962 24.9554 8 34.4492 8H115.753V95.836H34.4492C24.9544 95.836 17.2574 88.1373 17.2574 78.6461V25.1899Z" fill="white"/>
<g filter="url(#filter1_d_17_2984)">
<path fill-rule="evenodd" clip-rule="evenodd" d="M96.4514 23.0408H39.9002V44.406C39.9002 56.9798 96.4516 56.9798 96.4516 44.406V23.0408H96.4514Z" fill="url(#paint0_linear_17_2984)"/>
<path fill-rule="evenodd" clip-rule="evenodd" d="M96.4514 23.0407C96.4514 35.6146 39.9 35.6146 39.9 23.0407C39.9 10.4669 96.4514 10.4669 96.4514 23.0407Z" fill="url(#paint1_linear_17_2984)"/>
<path fill-rule="evenodd" clip-rule="evenodd" d="M84.6242 22.0269C84.6242 19.9834 80.7603 18.6402 75.6809 17.9974C65.9396 16.7646 54.7444 18.1078 54.7444 22.0269C54.7444 24.2242 56.1947 25.6118 61.8369 26.1897C71.5056 27.18 84.6242 25.7923 84.6242 22.0269Z" fill="url(#paint2_linear_17_2984)"/>
<path fill-rule="evenodd" clip-rule="evenodd" d="M77.1774 25.8404C73.214 24.9065 70.334 22.0886 70.334 18.757C70.334 18.361 70.3757 17.9727 70.454 17.5934C77.8526 17.844 84.6242 19.3218 84.6242 22.027C84.6242 23.8644 81.4998 25.1354 77.1774 25.8404Z" fill="url(#paint3_linear_17_2984)"/>
<path fill-rule="evenodd" clip-rule="evenodd" d="M75.7709 18.0092C75.0646 20.5318 71.1837 22.4611 66.5009 22.4611C62.1547 22.4611 58.4999 20.7989 57.4321 18.5431C62.4855 17.4378 69.9429 17.2599 75.7709 18.0092Z" fill="url(#paint4_linear_17_2984)"/>
<path fill-rule="evenodd" clip-rule="evenodd" d="M51.7276 22.027C51.7276 19.8902 55.9524 18.5193 61.374 17.9141C63.7758 17.646 66.0017 19.379 66.1452 21.7575C66.1503 21.8421 66.1528 21.927 66.1528 22.0123C66.1528 22.4436 66.0871 22.8635 65.9629 23.2675C65.3727 25.1848 63.4133 26.3666 61.3937 26.1418C55.9626 25.5379 51.7276 24.1664 51.7276 22.027Z" fill="url(#paint5_linear_17_2984)"/>
<path fill-rule="evenodd" clip-rule="evenodd" d="M73.0405 24.1704C73.9971 22.2654 76.3393 21.4854 78.2719 22.4283L82.3715 24.4285C80.5199 25.2789 77.6855 25.8674 74.4733 26.1939C73.3528 26.3076 72.5408 25.1657 73.0405 24.1704Z" fill="url(#paint6_linear_17_2984)"/>
<g opacity="0.6">
<g opacity="0.6">
<g opacity="0.6">
<path opacity="0.6" d="M45.6413 22.3427C46.2082 22.3427 46.6678 21.8896 46.6678 21.3308C46.6678 20.772 46.2082 20.319 45.6413 20.319C45.0743 20.319 44.6147 20.772 44.6147 21.3308C44.6147 21.8896 45.0743 22.3427 45.6413 22.3427Z" fill="url(#paint7_linear_17_2984)"/>
<path opacity="0.6" d="M46.4245 25.2567C46.872 25.2567 47.2348 24.899 47.2348 24.4579C47.2348 24.0167 46.872 23.6591 46.4245 23.6591C45.9769 23.6591 45.6141 24.0167 45.6141 24.4579C45.6141 24.899 45.9769 25.2567 46.4245 25.2567Z" fill="url(#paint8_linear_17_2984)"/>
<path opacity="0.6" d="M49.3 22.8713C49.6064 22.8713 49.8548 22.6229 49.8548 22.3165C49.8548 22.0101 49.6064 21.7617 49.3 21.7617C48.9936 21.7617 48.7452 22.0101 48.7452 22.3165C48.7452 22.6229 48.9936 22.8713 49.3 22.8713Z" fill="url(#paint9_linear_17_2984)"/>
</g>
<g opacity="0.6">
<path opacity="0.6" d="M87.9024 25.6828C88.4693 25.6828 88.9289 25.2297 88.9289 24.6709C88.9289 24.1121 88.4693 23.6591 87.9024 23.6591C87.3355 23.6591 86.8759 24.1121 86.8759 24.6709C86.8759 25.2297 87.3355 25.6828 87.9024 25.6828Z" fill="url(#paint10_linear_17_2984)"/>
<path opacity="0.6" d="M85.9966 28.086C86.4441 28.086 86.8069 27.7284 86.8069 27.2872C86.8069 26.846 86.4441 26.4884 85.9966 26.4884C85.549 26.4884 85.1862 26.846 85.1862 27.2872C85.1862 27.7284 85.549 28.086 85.9966 28.086Z" fill="url(#paint11_linear_17_2984)"/>
<path opacity="0.6" d="M89.5951 28.5857C89.9015 28.5857 90.1499 28.3374 90.1499 28.031C90.1499 27.7246 89.9015 27.4762 89.5951 27.4762C89.2887 27.4762 89.0403 27.7246 89.0403 28.031C89.0403 28.3374 89.2887 28.5857 89.5951 28.5857Z" fill="url(#paint12_linear_17_2984)"/>
</g>
<g opacity="0.6">
<path opacity="0.6" d="M49.7512 18.502C50.17 18.502 50.5096 18.1673 50.5096 17.7544C50.5096 17.3415 50.17 17.0068 49.7512 17.0068C49.3323 17.0068 48.9928 17.3415 48.9928 17.7544C48.9928 18.1673 49.3323 18.502 49.7512 18.502Z" fill="url(#paint13_linear_17_2984)"/>
<path opacity="0.6" d="M48.3899 20.3105C48.7206 20.3105 48.9887 20.0463 48.9887 19.7203C48.9887 19.3944 48.7206 19.1301 48.3899 19.1301C48.0593 19.1301 47.7912 19.3944 47.7912 19.7203C47.7912 20.0463 48.0593 20.3105 48.3899 20.3105Z" fill="url(#paint14_linear_17_2984)"/>
<path opacity="0.6" d="M51.2051 20.908C51.5115 20.908 51.7599 20.6596 51.7599 20.3532C51.7599 20.0468 51.5115 19.7985 51.2051 19.7985C50.8987 19.7985 50.6503 20.0468 50.6503 20.3532C50.6503 20.6596 50.8987 20.908 51.2051 20.908Z" fill="url(#paint15_linear_17_2984)"/>
</g>
</g>
</g>
<path fill-rule="evenodd" clip-rule="evenodd" d="M74.0585 53.6525L55.6879 35.5441C53.1956 32.6754 47.1364 30.7679 39.9005 29.8209V44.4062C39.9003 51.5706 58.2609 54.6526 74.0585 53.6525Z" fill="url(#paint16_linear_17_2984)"/>
<path fill-rule="evenodd" clip-rule="evenodd" d="M56.9078 38.5504H0.356445V59.9156C0.356445 72.4895 56.9078 72.4895 56.9078 59.9156V38.5504Z" fill="url(#paint17_linear_17_2984)"/>
<path fill-rule="evenodd" clip-rule="evenodd" d="M56.9078 38.5504C56.9078 51.1243 0.356445 51.1243 0.356445 38.5504C0.356445 25.9766 56.9078 25.9768 56.9078 38.5504Z" fill="url(#paint18_linear_17_2984)"/>
<path fill-rule="evenodd" clip-rule="evenodd" d="M12.1838 37.5368C12.1838 35.4971 16.0333 34.1551 21.0986 33.511C30.8407 32.2718 42.1413 33.6138 42.1413 37.5368C42.1413 39.6971 40.7626 41.0747 35.2555 41.6695C25.5618 42.7168 12.1838 41.3392 12.1838 37.5368Z" fill="url(#paint19_linear_17_2984)"/>
<path fill-rule="evenodd" clip-rule="evenodd" d="M19.6306 41.3502C23.594 40.4164 26.474 37.5985 26.474 34.2669C26.474 33.8709 26.4324 33.4825 26.354 33.1033C18.9555 33.3539 12.1838 34.8317 12.1838 37.5369C12.1838 39.3741 15.3081 40.6452 19.6306 41.3502Z" fill="url(#paint20_linear_17_2984)"/>
<path fill-rule="evenodd" clip-rule="evenodd" d="M21.037 33.5191C21.7432 36.0417 25.6241 37.971 30.307 37.971C34.6532 37.971 38.308 36.3089 39.3757 34.0531C34.3225 32.9476 26.865 32.7698 21.037 33.5191Z" fill="url(#paint21_linear_17_2984)"/>
<path fill-rule="evenodd" clip-rule="evenodd" d="M45.0805 37.5367C45.0805 35.4 40.8556 34.0291 35.4341 33.4239C33.0323 33.1557 30.8063 34.8888 30.6629 37.2673C30.6578 37.3518 30.6553 37.4368 30.6553 37.5221C30.6553 37.9534 30.7209 38.3733 30.8452 38.7772C31.4354 40.6946 33.3948 41.8764 35.4144 41.6516C40.8455 41.0475 45.0805 39.676 45.0805 37.5367Z" fill="url(#paint22_linear_17_2984)"/>
<path fill-rule="evenodd" clip-rule="evenodd" d="M23.7673 39.6802C22.8108 37.7751 20.4685 36.9952 18.5359 37.9381L14.4363 39.9383C16.2879 40.7887 19.1223 41.3772 22.3345 41.7037C23.455 41.8173 24.2672 40.6755 23.7673 39.6802Z" fill="url(#paint23_linear_17_2984)"/>
<g opacity="0.6">
<g opacity="0.6">
<g opacity="0.6">
<path opacity="0.6" d="M48.3587 41.1925C48.9256 41.1925 49.3852 40.7395 49.3852 40.1807C49.3852 39.6218 48.9256 39.1688 48.3587 39.1688C47.7918 39.1688 47.3322 39.6218 47.3322 40.1807C47.3322 40.7395 47.7918 41.1925 48.3587 41.1925Z" fill="url(#paint24_linear_17_2984)"/>
<path opacity="0.6" d="M46.453 43.5959C46.9006 43.5959 47.2634 43.2383 47.2634 42.7971C47.2634 42.3559 46.9006 41.9983 46.453 41.9983C46.0055 41.9983 45.6426 42.3559 45.6426 42.7971C45.6426 43.2383 46.0055 43.5959 46.453 43.5959Z" fill="url(#paint25_linear_17_2984)"/>
<path opacity="0.6" d="M50.0514 44.0953C50.3578 44.0953 50.6062 43.8469 50.6062 43.5405C50.6062 43.2341 50.3578 42.9857 50.0514 42.9857C49.745 42.9857 49.4966 43.2341 49.4966 43.5405C49.4966 43.8469 49.745 44.0953 50.0514 44.0953Z" fill="url(#paint26_linear_17_2984)"/>
</g>
</g>
</g>
<path fill-rule="evenodd" clip-rule="evenodd" d="M100.017 54.0601H43.4658V75.4252C43.4658 87.9991 100.017 87.9991 100.017 75.4252V54.0601Z" fill="url(#paint27_linear_17_2984)"/>
<path fill-rule="evenodd" clip-rule="evenodd" d="M100.017 54.0602C100.017 66.634 43.4658 66.634 43.4658 54.0602C43.4658 41.4863 100.017 41.4863 100.017 54.0602Z" fill="url(#paint28_linear_17_2984)"/>
<path fill-rule="evenodd" clip-rule="evenodd" d="M55.2932 53.0464C55.2932 55.0882 59.1508 56.431 64.2241 57.0743C73.9659 58.3098 86.2151 56.9672 86.2151 53.0464C86.2151 50.825 83.6239 49.4312 77.8942 48.8649C68.2444 47.9112 55.2932 49.3051 55.2932 53.0464Z" fill="url(#paint29_linear_17_2984)"/>
<path fill-rule="evenodd" clip-rule="evenodd" d="M62.74 49.233C66.7033 50.1669 69.5833 52.9848 69.5833 56.3164C69.5833 56.7124 69.5417 57.1007 69.4633 57.48C62.0648 57.2294 55.2932 55.7516 55.2932 53.0464C55.2932 51.209 58.4176 49.938 62.74 49.233Z" fill="url(#paint30_linear_17_2984)"/>
<path fill-rule="evenodd" clip-rule="evenodd" d="M64.1463 57.0642C64.8526 54.5416 68.7335 52.6123 73.4163 52.6123C77.7625 52.6123 81.4173 54.2745 82.4851 56.5303C77.4319 57.6355 69.9743 57.8135 64.1463 57.0642Z" fill="url(#paint31_linear_17_2984)"/>
<path fill-rule="evenodd" clip-rule="evenodd" d="M88.1898 53.0464C88.1898 55.1832 83.9649 56.5541 78.5434 57.1593C76.1416 57.4274 73.9156 55.6944 73.7722 53.3159C73.7671 53.2313 73.7646 53.1464 73.7646 53.0611C73.7646 52.6298 73.8302 52.2098 73.9545 51.8059C74.5446 49.8885 76.5041 48.7068 78.5236 48.9316C83.9548 49.5355 88.1898 50.9071 88.1898 53.0464Z" fill="url(#paint32_linear_17_2984)"/>
<path fill-rule="evenodd" clip-rule="evenodd" d="M76.6063 50.9029C77.5628 52.808 79.905 53.5879 81.8377 52.645L85.9374 50.6448C84.0859 49.7944 81.2514 49.2059 78.0392 48.8794C76.9185 48.7658 76.1066 49.9078 76.6063 50.9029Z" fill="url(#paint33_linear_17_2984)"/>
<g opacity="0.6">
<g opacity="0.6">
<g opacity="0.6">
<path opacity="0.6" d="M49.2068 53.3622C49.7737 53.3622 50.2333 52.9092 50.2333 52.3504C50.2333 51.7915 49.7737 51.3385 49.2068 51.3385C48.6399 51.3385 48.1803 51.7915 48.1803 52.3504C48.1803 52.9092 48.6399 53.3622 49.2068 53.3622Z" fill="url(#paint34_linear_17_2984)"/>
<path opacity="0.6" d="M49.9902 56.2762C50.4377 56.2762 50.8006 55.9186 50.8006 55.4774C50.8006 55.0362 50.4377 54.6786 49.9902 54.6786C49.5426 54.6786 49.1798 55.0362 49.1798 55.4774C49.1798 55.9186 49.5426 56.2762 49.9902 56.2762Z" fill="url(#paint35_linear_17_2984)"/>
<path opacity="0.6" d="M52.8655 53.8907C53.1719 53.8907 53.4203 53.6423 53.4203 53.3359C53.4203 53.0295 53.1719 52.7811 52.8655 52.7811C52.5591 52.7811 52.3107 53.0295 52.3107 53.3359C52.3107 53.6423 52.5591 53.8907 52.8655 53.8907Z" fill="url(#paint36_linear_17_2984)"/>
</g>
<g opacity="0.6">
<path opacity="0.6" d="M91.4682 56.7023C92.0351 56.7023 92.4947 56.2493 92.4947 55.6904C92.4947 55.1316 92.0351 54.6786 91.4682 54.6786C90.9013 54.6786 90.4417 55.1316 90.4417 55.6904C90.4417 56.2493 90.9013 56.7023 91.4682 56.7023Z" fill="url(#paint37_linear_17_2984)"/>
<path opacity="0.6" d="M89.5624 59.1056C90.0099 59.1056 90.3727 58.7479 90.3727 58.3067C90.3727 57.8656 90.0099 57.5079 89.5624 57.5079C89.1148 57.5079 88.752 57.8656 88.752 58.3067C88.752 58.7479 89.1148 59.1056 89.5624 59.1056Z" fill="url(#paint38_linear_17_2984)"/>
<path opacity="0.6" d="M93.1607 59.605C93.4671 59.605 93.7155 59.3566 93.7155 59.0503C93.7155 58.7439 93.4671 58.4955 93.1607 58.4955C92.8543 58.4955 92.6059 58.7439 92.6059 59.0503C92.6059 59.3566 92.8543 59.605 93.1607 59.605Z" fill="url(#paint39_linear_17_2984)"/>
</g>
<g opacity="0.6">
<path opacity="0.6" d="M53.3167 49.5215C53.7356 49.5215 54.0751 49.1868 54.0751 48.7739C54.0751 48.3611 53.7356 48.0264 53.3167 48.0264C52.8979 48.0264 52.5583 48.3611 52.5583 48.7739C52.5583 49.1868 52.8979 49.5215 53.3167 49.5215Z" fill="url(#paint40_linear_17_2984)"/>
<path opacity="0.6" d="M51.9555 51.3301C52.2862 51.3301 52.5542 51.0658 52.5542 50.7399C52.5542 50.4139 52.2862 50.1497 51.9555 50.1497C51.6248 50.1497 51.3568 50.4139 51.3568 50.7399C51.3568 51.0658 51.6248 51.3301 51.9555 51.3301Z" fill="url(#paint41_linear_17_2984)"/>
<path opacity="0.6" d="M54.7706 51.9273C55.077 51.9273 55.3254 51.6789 55.3254 51.3725C55.3254 51.0661 55.077 50.8177 54.7706 50.8177C54.4642 50.8177 54.2158 51.0661 54.2158 51.3725C54.2158 51.6789 54.4642 51.9273 54.7706 51.9273Z" fill="url(#paint42_linear_17_2984)"/>
</g>
</g>
</g>
<path fill-rule="evenodd" clip-rule="evenodd" d="M43.4658 67.6948V75.4254C43.4658 81.8838 58.3861 85.0246 72.8993 84.8483L61.3744 73.488C58.5047 70.4332 51.5279 68.5025 43.4658 67.6948Z" fill="url(#paint43_linear_17_2984)"/>
<path fill-rule="evenodd" clip-rule="evenodd" d="M62.7694 76.6896H6.21802V98.0548C6.21802 110.629 62.7694 110.629 62.7694 98.0548V76.6896Z" fill="url(#paint44_linear_17_2984)"/>
<path fill-rule="evenodd" clip-rule="evenodd" d="M62.7694 76.6897C62.7694 89.2635 6.21802 89.2635 6.21802 76.6897C6.21802 64.1158 62.7694 64.1158 62.7694 76.6897Z" fill="url(#paint45_linear_17_2984)"/>
<path fill-rule="evenodd" clip-rule="evenodd" d="M50.942 75.6758C50.942 77.7167 47.0885 79.0589 42.0193 79.7028C32.257 80.3063 19.9995 79.5978 19.9995 75.6758C19.9995 73.4855 22.4848 72.0996 28.1017 71.5186C32.0895 71.106 36.6712 71.0991 40.6791 71.4976C42.062 71.6352 43.1796 72.1294 44.3783 72.3635C46.0084 72.6819 47.6206 72.7813 48.6998 73.2784C50.1058 73.926 50.942 74.7252 50.942 75.6758Z" fill="url(#paint46_linear_17_2984)"/>
<path fill-rule="evenodd" clip-rule="evenodd" d="M43.4952 71.8624C39.5319 72.7963 36.6519 75.6141 36.6519 78.9458C36.6519 79.3418 36.6935 79.7301 36.7718 80.1092C44.1704 79.8586 50.942 78.3808 50.942 75.6756C50.942 73.8384 47.8178 72.5674 43.4952 71.8624Z" fill="url(#paint47_linear_17_2984)"/>
<path fill-rule="evenodd" clip-rule="evenodd" d="M42.0888 79.6935C41.3826 77.1709 37.5017 75.2416 32.8188 75.2416C28.4726 75.2416 24.8178 76.9037 23.7501 79.1595C28.8032 80.2648 36.2608 80.4428 42.0888 79.6935Z" fill="url(#paint48_linear_17_2984)"/>
<path fill-rule="evenodd" clip-rule="evenodd" d="M18.0454 75.6758C18.0454 77.8126 22.2702 79.1835 27.6918 79.7887C30.0936 80.0568 32.3196 78.3238 32.463 75.9453C32.4681 75.8607 32.4706 75.7758 32.4706 75.6904C32.4706 75.2592 32.405 74.8392 32.2807 74.4353C31.6905 72.5179 29.7311 71.3362 27.7115 71.561C22.2804 72.1649 18.0454 73.5365 18.0454 75.6758Z" fill="url(#paint49_linear_17_2984)"/>
<path fill-rule="evenodd" clip-rule="evenodd" d="M39.3585 73.5325C40.315 75.4375 42.6573 76.2175 44.5899 75.2746L48.6895 73.2744C46.8379 72.4239 44.0035 71.8355 40.7913 71.509C39.6708 71.3951 38.8586 72.5372 39.3585 73.5325Z" fill="url(#paint50_linear_17_2984)"/>
<g opacity="0.6">
<g opacity="0.6">
<g opacity="0.6">
<path opacity="0.6" d="M54.2205 79.3316C54.7874 79.3316 55.247 78.8785 55.247 78.3197C55.247 77.7609 54.7874 77.3079 54.2205 77.3079C53.6536 77.3079 53.194 77.7609 53.194 78.3197C53.194 78.8785 53.6536 79.3316 54.2205 79.3316Z" fill="url(#paint51_linear_17_2984)"/>
<path opacity="0.6" d="M52.3146 81.7349C52.7621 81.7349 53.125 81.3773 53.125 80.9361C53.125 80.495 52.7621 80.1373 52.3146 80.1373C51.867 80.1373 51.5042 80.495 51.5042 80.9361C51.5042 81.3773 51.867 81.7349 52.3146 81.7349Z" fill="url(#paint52_linear_17_2984)"/>
<path opacity="0.6" d="M55.9129 82.2345C56.2193 82.2345 56.4677 81.9862 56.4677 81.6798C56.4677 81.3734 56.2193 81.125 55.9129 81.125C55.6065 81.125 55.3582 81.3734 55.3582 81.6798C55.3582 81.9862 55.6065 82.2345 55.9129 82.2345Z" fill="url(#paint53_linear_17_2984)"/>
</g>
<g opacity="0.6">
<path opacity="0.6" d="M17.5229 74.5568C17.8293 74.5568 18.0777 74.3084 18.0777 74.002C18.0777 73.6956 17.8293 73.4473 17.5229 73.4473C17.2165 73.4473 16.9681 73.6956 16.9681 74.002C16.9681 74.3084 17.2165 74.5568 17.5229 74.5568Z" fill="url(#paint54_linear_17_2984)"/>
</g>
</g>
</g>
</g>
</g>
<path d="M121.184 46.2184V35.0184H122.528V45.1464H127.744V46.2184H121.184ZM132.735 46.4104C131.977 46.4104 131.305 46.2397 130.719 45.8984C130.132 45.5464 129.668 45.0611 129.327 44.4424C128.996 43.8237 128.831 43.0931 128.831 42.2504C128.831 41.4184 128.996 40.6931 129.327 40.0744C129.657 39.4451 130.116 38.9597 130.703 38.6184C131.3 38.2664 131.988 38.0904 132.767 38.0904C133.535 38.0904 134.196 38.2664 134.751 38.6184C135.316 38.9597 135.748 39.4131 136.047 39.9784C136.345 40.5437 136.495 41.1517 136.495 41.8024C136.495 41.9197 136.489 42.0371 136.479 42.1544C136.479 42.2717 136.479 42.4051 136.479 42.5544H130.159C130.191 43.1624 130.329 43.6691 130.575 44.0744C130.831 44.4691 131.145 44.7677 131.519 44.9704C131.903 45.1731 132.308 45.2744 132.735 45.2744C133.289 45.2744 133.753 45.1464 134.127 44.8904C134.5 44.6344 134.772 44.2877 134.943 43.8504H136.271C136.057 44.5864 135.647 45.1997 135.039 45.6904C134.441 46.1704 133.673 46.4104 132.735 46.4104ZM132.735 39.2264C132.095 39.2264 131.524 39.4237 131.023 39.8184C130.532 40.2024 130.249 40.7677 130.175 41.5144H135.167C135.135 40.7997 134.889 40.2397 134.431 39.8344C133.972 39.4291 133.407 39.2264 132.735 39.2264ZM140.916 46.4104C140.255 46.4104 139.705 46.2984 139.268 46.0744C138.831 45.8504 138.505 45.5517 138.292 45.1784C138.079 44.8051 137.972 44.3997 137.972 43.9624C137.972 43.1517 138.281 42.5277 138.9 42.0904C139.519 41.6531 140.361 41.4344 141.428 41.4344H143.572V41.3384C143.572 40.6451 143.391 40.1224 143.028 39.7704C142.665 39.4077 142.18 39.2264 141.572 39.2264C141.049 39.2264 140.596 39.3597 140.212 39.6264C139.839 39.8824 139.604 40.2611 139.508 40.7624H138.132C138.185 40.1864 138.377 39.7011 138.708 39.3064C139.049 38.9117 139.471 38.6131 139.972 38.4104C140.473 38.1971 141.007 38.0904 141.572 38.0904C142.681 38.0904 143.513 38.3891 144.068 38.9864C144.633 39.5731 144.916 40.3571 144.916 41.3384V46.2184H143.716L143.636 44.7944C143.412 45.2424 143.081 45.6264 142.644 45.9464C142.217 46.2557 141.641 46.4104 140.916 46.4104ZM141.124 45.2744C141.636 45.2744 142.073 45.1411 142.436 44.8744C142.809 44.6077 143.092 44.2611 143.284 43.8344C143.476 43.4077 143.572 42.9597 143.572 42.4904V42.4744H141.54C140.751 42.4744 140.191 42.6131 139.86 42.8904C139.54 43.1571 139.38 43.4931 139.38 43.8984C139.38 44.3144 139.529 44.6504 139.828 44.9064C140.137 45.1517 140.569 45.2744 141.124 45.2744ZM146.932 46.2184V38.2824H148.148L148.26 39.8024C148.506 39.2797 148.879 38.8637 149.38 38.5544C149.882 38.2451 150.5 38.0904 151.236 38.0904V39.4984H150.868C150.399 39.4984 149.967 39.5837 149.572 39.7544C149.178 39.9144 148.863 40.1917 148.628 40.5864C148.394 40.9811 148.276 41.5251 148.276 42.2184V46.2184H146.932ZM152.745 46.2184V38.2824H153.961L154.041 39.7064C154.297 39.2051 154.665 38.8104 155.145 38.5224C155.625 38.2344 156.169 38.0904 156.777 38.0904C157.716 38.0904 158.462 38.3784 159.017 38.9544C159.582 39.5197 159.865 40.3944 159.865 41.5784V46.2184H158.521V41.7224C158.521 40.0691 157.838 39.2424 156.473 39.2424C155.79 39.2424 155.22 39.4931 154.761 39.9944C154.313 40.4851 154.089 41.1891 154.089 42.1064V46.2184H152.745ZM166.135 46.2184V38.2824H167.351L167.431 39.7064C167.687 39.2051 168.055 38.8104 168.535 38.5224C169.015 38.2344 169.559 38.0904 170.167 38.0904C171.106 38.0904 171.853 38.3784 172.407 38.9544C172.973 39.5197 173.255 40.3944 173.255 41.5784V46.2184H171.911V41.7224C171.911 40.0691 171.229 39.2424 169.863 39.2424C169.181 39.2424 168.61 39.4931 168.151 39.9944C167.703 40.4851 167.479 41.1891 167.479 42.1064V46.2184H166.135ZM178.86 46.4104C178.102 46.4104 177.43 46.2397 176.844 45.8984C176.257 45.5464 175.793 45.0611 175.452 44.4424C175.121 43.8237 174.956 43.0931 174.956 42.2504C174.956 41.4184 175.121 40.6931 175.452 40.0744C175.782 39.4451 176.241 38.9597 176.828 38.6184C177.425 38.2664 178.113 38.0904 178.892 38.0904C179.66 38.0904 180.321 38.2664 180.876 38.6184C181.441 38.9597 181.873 39.4131 182.172 39.9784C182.47 40.5437 182.62 41.1517 182.62 41.8024C182.62 41.9197 182.614 42.0371 182.604 42.1544C182.604 42.2717 182.604 42.4051 182.604 42.5544H176.284C176.316 43.1624 176.454 43.6691 176.7 44.0744C176.956 44.4691 177.27 44.7677 177.644 44.9704C178.028 45.1731 178.433 45.2744 178.86 45.2744C179.414 45.2744 179.878 45.1464 180.252 44.8904C180.625 44.6344 180.897 44.2877 181.068 43.8504H182.396C182.182 44.5864 181.772 45.1997 181.164 45.6904C180.566 46.1704 179.798 46.4104 178.86 46.4104ZM178.86 39.2264C178.22 39.2264 177.649 39.4237 177.148 39.8184C176.657 40.2024 176.374 40.7677 176.3 41.5144H181.292C181.26 40.7997 181.014 40.2397 180.556 39.8344C180.097 39.4291 179.532 39.2264 178.86 39.2264ZM185.689 46.2184L183.369 38.2824H184.713L186.393 44.5064L188.249 38.2824H189.769L191.641 44.5064L193.305 38.2824H194.665L192.345 46.2184H190.969L189.017 39.6744L187.065 46.2184H185.689ZM201.985 46.2184L199.665 38.2824H201.009L202.689 44.5064L204.545 38.2824H206.065L207.937 44.5064L209.601 38.2824H210.961L208.641 46.2184H207.265L205.313 39.6744L203.361 46.2184H201.985ZM214.807 46.4104C214.145 46.4104 213.596 46.2984 213.159 46.0744C212.721 45.8504 212.396 45.5517 212.183 45.1784C211.969 44.8051 211.863 44.3997 211.863 43.9624C211.863 43.1517 212.172 42.5277 212.791 42.0904C213.409 41.6531 214.252 41.4344 215.319 41.4344H217.463V41.3384C217.463 40.6451 217.281 40.1224 216.919 39.7704C216.556 39.4077 216.071 39.2264 215.463 39.2264C214.94 39.2264 214.487 39.3597 214.103 39.6264C213.729 39.8824 213.495 40.2611 213.399 40.7624H212.023C212.076 40.1864 212.268 39.7011 212.599 39.3064C212.94 38.9117 213.361 38.6131 213.863 38.4104C214.364 38.1971 214.897 38.0904 215.463 38.0904C216.572 38.0904 217.404 38.3891 217.959 38.9864C218.524 39.5731 218.807 40.3571 218.807 41.3384V46.2184H217.607L217.527 44.7944C217.303 45.2424 216.972 45.6264 216.535 45.9464C216.108 46.2557 215.532 46.4104 214.807 46.4104ZM215.015 45.2744C215.527 45.2744 215.964 45.1411 216.327 44.8744C216.7 44.6077 216.983 44.2611 217.175 43.8344C217.367 43.4077 217.463 42.9597 217.463 42.4904V42.4744H215.431C214.641 42.4744 214.081 42.6131 213.751 42.8904C213.431 43.1571 213.271 43.4931 213.271 43.8984C213.271 44.3144 213.42 44.6504 213.719 44.9064C214.028 45.1517 214.46 45.2744 215.015 45.2744ZM221.453 49.7384L223.421 45.4504H222.957L219.805 38.2824H221.261L223.885 44.4584L226.669 38.2824H228.061L222.861 49.7384H221.453ZM232.05 46.4104C231.101 46.4104 230.312 46.1704 229.682 45.6904C229.053 45.2104 228.685 44.5597 228.578 43.7384H229.954C230.04 44.1544 230.258 44.5171 230.61 44.8264C230.973 45.1251 231.458 45.2744 232.066 45.2744C232.632 45.2744 233.048 45.1571 233.314 44.9224C233.581 44.6771 233.714 44.3891 233.714 44.0584C233.714 43.5784 233.538 43.2584 233.186 43.0984C232.845 42.9384 232.36 42.7944 231.73 42.6664C231.304 42.5811 230.877 42.4584 230.45 42.2984C230.024 42.1384 229.666 41.9144 229.378 41.6264C229.09 41.3277 228.946 40.9384 228.946 40.4584C228.946 39.7651 229.202 39.1997 229.714 38.7624C230.237 38.3144 230.941 38.0904 231.826 38.0904C232.669 38.0904 233.357 38.3037 233.89 38.7304C234.434 39.1464 234.749 39.7437 234.834 40.5224H233.506C233.453 40.1171 233.277 39.8024 232.978 39.5784C232.69 39.3437 232.301 39.2264 231.81 39.2264C231.33 39.2264 230.957 39.3277 230.69 39.5304C230.434 39.7331 230.306 39.9997 230.306 40.3304C230.306 40.6504 230.472 40.9011 230.802 41.0824C231.144 41.2637 231.602 41.4184 232.178 41.5464C232.669 41.6531 233.133 41.7864 233.57 41.9464C234.018 42.0957 234.381 42.3251 234.658 42.6344C234.946 42.9331 235.09 43.3704 235.09 43.9464C235.101 44.6611 234.829 45.2531 234.274 45.7224C233.73 46.1811 232.989 46.4104 232.05 46.4104ZM244.381 46.2184C243.656 46.2184 243.085 46.0424 242.669 45.6904C242.253 45.3384 242.045 44.7037 242.045 43.7864V39.4184H240.669V38.2824H242.045L242.221 36.3784H243.389V38.2824H245.725V39.4184H243.389V43.7864C243.389 44.2877 243.49 44.6291 243.693 44.8104C243.896 44.9811 244.253 45.0664 244.765 45.0664H245.597V46.2184H244.381ZM250.83 46.4104C250.083 46.4104 249.411 46.2397 248.814 45.8984C248.216 45.5571 247.742 45.0771 247.39 44.4584C247.048 43.8291 246.878 43.0931 246.878 42.2504C246.878 41.4077 247.054 40.6771 247.406 40.0584C247.758 39.429 248.232 38.9437 248.83 38.6024C249.438 38.2611 250.115 38.0904 250.862 38.0904C251.608 38.0904 252.28 38.2611 252.878 38.6024C253.475 38.9437 253.944 39.429 254.286 40.0584C254.638 40.6771 254.814 41.4077 254.814 42.2504C254.814 43.0931 254.638 43.8291 254.286 44.4584C253.934 45.0771 253.454 45.5571 252.846 45.8984C252.248 46.2397 251.576 46.4104 250.83 46.4104ZM250.83 45.2584C251.288 45.2584 251.715 45.1464 252.11 44.9224C252.504 44.6984 252.824 44.3624 253.07 43.9144C253.315 43.4664 253.438 42.9117 253.438 42.2504C253.438 41.5891 253.315 41.0344 253.07 40.5864C252.835 40.1384 252.52 39.8024 252.126 39.5784C251.731 39.3544 251.31 39.2424 250.862 39.2424C250.403 39.2424 249.976 39.3544 249.582 39.5784C249.187 39.8024 248.867 40.1384 248.622 40.5864C248.376 41.0344 248.254 41.5891 248.254 42.2504C248.254 42.9117 248.376 43.4664 248.622 43.9144C248.867 44.3624 249.182 44.6984 249.566 44.9224C249.96 45.1464 250.382 45.2584 250.83 45.2584ZM261.733 36.5224C261.466 36.5224 261.242 36.4371 261.061 36.2664C260.89 36.085 260.805 35.861 260.805 35.5944C260.805 35.3384 260.89 35.125 261.061 34.9544C261.242 34.7837 261.466 34.6984 261.733 34.6984C261.989 34.6984 262.207 34.7837 262.389 34.9544C262.57 35.125 262.661 35.3384 262.661 35.5944C262.661 35.861 262.57 36.085 262.389 36.2664C262.207 36.4371 261.989 36.5224 261.733 36.5224ZM261.061 46.2184V38.2824H262.405V46.2184H261.061ZM264.745 46.2184V38.2824H265.961L266.057 39.4344C266.313 39.0077 266.654 38.6771 267.081 38.4424C267.508 38.2077 267.988 38.0904 268.521 38.0904C269.15 38.0904 269.689 38.2184 270.137 38.4744C270.596 38.7304 270.948 39.1197 271.193 39.6424C271.47 39.1624 271.849 38.7837 272.329 38.5064C272.82 38.2291 273.348 38.0904 273.913 38.0904C274.862 38.0904 275.62 38.3784 276.185 38.9544C276.75 39.5197 277.033 40.3944 277.033 41.5784V46.2184H275.705V41.7224C275.705 40.9011 275.54 40.2824 275.209 39.8664C274.878 39.4504 274.404 39.2424 273.785 39.2424C273.145 39.2424 272.612 39.4931 272.185 39.9944C271.769 40.4851 271.561 41.1891 271.561 42.1064V46.2184H270.217V41.7224C270.217 40.9011 270.052 40.2824 269.721 39.8664C269.39 39.4504 268.916 39.2424 268.297 39.2424C267.668 39.2424 267.14 39.4931 266.713 39.9944C266.297 40.4851 266.089 41.1891 266.089 42.1064V46.2184H264.745ZM279.057 49.7384V38.2824H280.273L280.401 39.5944C280.657 39.2104 281.02 38.8637 281.489 38.5544C281.969 38.2451 282.577 38.0904 283.313 38.0904C284.103 38.0904 284.791 38.2717 285.377 38.6344C285.964 38.997 286.417 39.4931 286.737 40.1224C287.068 40.7517 287.233 41.4664 287.233 42.2664C287.233 43.0664 287.068 43.7811 286.737 44.4104C286.417 45.0291 285.959 45.5197 285.361 45.8824C284.775 46.2344 284.087 46.4104 283.297 46.4104C282.647 46.4104 282.065 46.2771 281.553 46.0104C281.052 45.7437 280.668 45.3704 280.401 44.8904V49.7384H279.057ZM283.153 45.2424C283.687 45.2424 284.156 45.1197 284.561 44.8744C284.967 44.6184 285.287 44.2664 285.521 43.8184C285.756 43.3704 285.873 42.8477 285.873 42.2504C285.873 41.6531 285.756 41.1304 285.521 40.6824C285.287 40.2344 284.967 39.8877 284.561 39.6424C284.156 39.3864 283.687 39.2584 283.153 39.2584C282.62 39.2584 282.151 39.3864 281.745 39.6424C281.34 39.8877 281.02 40.2344 280.785 40.6824C280.551 41.1304 280.433 41.6531 280.433 42.2504C280.433 42.8477 280.551 43.3704 280.785 43.8184C281.02 44.2664 281.34 44.6184 281.745 44.8744C282.151 45.1197 282.62 45.2424 283.153 45.2424ZM289.104 46.2184V38.2824H290.32L290.432 39.8024C290.678 39.2797 291.051 38.8637 291.552 38.5544C292.054 38.2451 292.672 38.0904 293.408 38.0904V39.4984H293.04C292.571 39.4984 292.139 39.5837 291.744 39.7544C291.35 39.9144 291.035 40.1917 290.8 40.5864C290.566 40.9811 290.448 41.5251 290.448 42.2184V46.2184H289.104ZM298.236 46.4104C297.489 46.4104 296.817 46.2397 296.22 45.8984C295.623 45.5571 295.148 45.0771 294.796 44.4584C294.455 43.8291 294.284 43.0931 294.284 42.2504C294.284 41.4077 294.46 40.6771 294.812 40.0584C295.164 39.429 295.639 38.9437 296.236 38.6024C296.844 38.2611 297.521 38.0904 298.268 38.0904C299.015 38.0904 299.687 38.2611 300.284 38.6024C300.881 38.9437 301.351 39.429 301.692 40.0584C302.044 40.6771 302.22 41.4077 302.22 42.2504C302.22 43.0931 302.044 43.8291 301.692 44.4584C301.34 45.0771 300.86 45.5571 300.252 45.8984C299.655 46.2397 298.983 46.4104 298.236 46.4104ZM298.236 45.2584C298.695 45.2584 299.121 45.1464 299.516 44.9224C299.911 44.6984 300.231 44.3624 300.476 43.9144C300.721 43.4664 300.844 42.9117 300.844 42.2504C300.844 41.5891 300.721 41.0344 300.476 40.5864C300.241 40.1384 299.927 39.8024 299.532 39.5784C299.137 39.3544 298.716 39.2424 298.268 39.2424C297.809 39.2424 297.383 39.3544 296.988 39.5784C296.593 39.8024 296.273 40.1384 296.028 40.5864C295.783 41.0344 295.66 41.5891 295.66 42.2504C295.66 42.9117 295.783 43.4664 296.028 43.9144C296.273 44.3624 296.588 44.6984 296.972 44.9224C297.367 45.1464 297.788 45.2584 298.236 45.2584ZM305.97 46.2184L302.962 38.2824H304.37L306.754 44.9224L309.154 38.2824H310.53L307.522 46.2184H305.97ZM315.188 46.4104C314.431 46.4104 313.759 46.2397 313.172 45.8984C312.585 45.5464 312.121 45.0611 311.78 44.4424C311.449 43.8237 311.284 43.0931 311.284 42.2504C311.284 41.4184 311.449 40.6931 311.78 40.0744C312.111 39.4451 312.569 38.9597 313.156 38.6184C313.753 38.2664 314.441 38.0904 315.22 38.0904C315.988 38.0904 316.649 38.2664 317.204 38.6184C317.769 38.9597 318.201 39.4131 318.5 39.9784C318.799 40.5437 318.948 41.1517 318.948 41.8024C318.948 41.9197 318.943 42.0371 318.932 42.1544C318.932 42.2717 318.932 42.4051 318.932 42.5544H312.612C312.644 43.1624 312.783 43.6691 313.028 44.0744C313.284 44.4691 313.599 44.7677 313.972 44.9704C314.356 45.1731 314.761 45.2744 315.188 45.2744C315.743 45.2744 316.207 45.1464 316.58 44.8904C316.953 44.6344 317.225 44.2877 317.396 43.8504H318.724C318.511 44.5864 318.1 45.1997 317.492 45.6904C316.895 46.1704 316.127 46.4104 315.188 46.4104ZM315.188 39.2264C314.548 39.2264 313.977 39.4237 313.476 39.8184C312.985 40.2024 312.703 40.7677 312.628 41.5144H317.62C317.588 40.7997 317.343 40.2397 316.884 39.8344C316.425 39.4291 315.86 39.2264 315.188 39.2264ZM121.968 70.7384L123.936 66.4504H123.472L120.32 59.2824H121.776L124.4 65.4584L127.184 59.2824H128.576L123.376 70.7384H121.968ZM132.861 67.4104C132.114 67.4104 131.442 67.2397 130.845 66.8984C130.248 66.5571 129.773 66.0771 129.421 65.4584C129.08 64.8291 128.909 64.0931 128.909 63.2504C128.909 62.4077 129.085 61.6771 129.437 61.0584C129.789 60.429 130.264 59.9437 130.861 59.6024C131.469 59.2611 132.146 59.0904 132.893 59.0904C133.64 59.0904 134.312 59.2611 134.909 59.6024C135.506 59.9437 135.976 60.429 136.317 61.0584C136.669 61.6771 136.845 62.4077 136.845 63.2504C136.845 64.0931 136.669 64.8291 136.317 65.4584C135.965 66.0771 135.485 66.5571 134.877 66.8984C134.28 67.2397 133.608 67.4104 132.861 67.4104ZM132.861 66.2584C133.32 66.2584 133.746 66.1464 134.141 65.9224C134.536 65.6984 134.856 65.3624 135.101 64.9144C135.346 64.4664 135.469 63.9117 135.469 63.2504C135.469 62.5891 135.346 62.0344 135.101 61.5864C134.866 61.1384 134.552 60.8024 134.157 60.5784C133.762 60.3544 133.341 60.2424 132.893 60.2424C132.434 60.2424 132.008 60.3544 131.613 60.5784C131.218 60.8024 130.898 61.1384 130.653 61.5864C130.408 62.0344 130.285 62.5891 130.285 63.2504C130.285 63.9117 130.408 64.4664 130.653 64.9144C130.898 65.3624 131.213 65.6984 131.597 65.9224C131.992 66.1464 132.413 66.2584 132.861 66.2584ZM141.61 67.4104C140.671 67.4104 139.924 67.1277 139.37 66.5624C138.815 65.9864 138.538 65.1064 138.538 63.9224V59.2824H139.882V63.7784C139.882 65.4317 140.559 66.2584 141.914 66.2584C142.607 66.2584 143.178 66.0131 143.626 65.5224C144.084 65.0211 144.314 64.3117 144.314 63.3944V59.2824H145.658V67.2184H144.442L144.346 65.7944C144.1 66.2957 143.732 66.6904 143.242 66.9784C142.762 67.2664 142.218 67.4104 141.61 67.4104ZM147.87 67.2184V59.2824H149.086L149.198 60.8024C149.443 60.2797 149.817 59.8637 150.318 59.5544C150.819 59.2451 151.438 59.0904 152.174 59.0904V60.4984H151.806C151.337 60.4984 150.905 60.5837 150.51 60.7544C150.115 60.9144 149.801 61.1917 149.566 61.5864C149.331 61.9811 149.214 62.5251 149.214 63.2184V67.2184H147.87ZM157.917 67.2184V55.6984H159.261V60.6424C159.527 60.1517 159.906 59.7731 160.397 59.5064C160.887 59.2291 161.421 59.0904 161.997 59.0904C162.914 59.0904 163.65 59.3784 164.205 59.9544C164.759 60.5197 165.037 61.3944 165.037 62.5784V67.2184H163.709V62.7224C163.709 61.0691 163.042 60.2424 161.709 60.2424C161.015 60.2424 160.434 60.4931 159.965 60.9944C159.495 61.4851 159.261 62.1891 159.261 63.1064V67.2184H157.917ZM170.641 67.4104C169.884 67.4104 169.212 67.2397 168.625 66.8984C168.038 66.5464 167.574 66.0611 167.233 65.4424C166.902 64.8237 166.737 64.0931 166.737 63.2504C166.737 62.4184 166.902 61.6931 167.233 61.0744C167.564 60.4451 168.022 59.9597 168.609 59.6184C169.206 59.2664 169.894 59.0904 170.673 59.0904C171.441 59.0904 172.102 59.2664 172.657 59.6184C173.222 59.9597 173.654 60.4131 173.953 60.9784C174.252 61.5437 174.401 62.1517 174.401 62.8024C174.401 62.9197 174.396 63.0371 174.385 63.1544C174.385 63.2717 174.385 63.4051 174.385 63.5544H168.065C168.097 64.1624 168.236 64.6691 168.481 65.0744C168.737 65.4691 169.052 65.7677 169.425 65.9704C169.809 66.1731 170.214 66.2744 170.641 66.2744C171.196 66.2744 171.66 66.1464 172.033 65.8904C172.406 65.6344 172.678 65.2877 172.849 64.8504H174.177C173.964 65.5864 173.553 66.1997 172.945 66.6904C172.348 67.1704 171.58 67.4104 170.641 67.4104ZM170.641 60.2264C170.001 60.2264 169.43 60.4237 168.929 60.8184C168.438 61.2024 168.156 61.7677 168.081 62.5144H173.073C173.041 61.7997 172.796 61.2397 172.337 60.8344C171.878 60.4291 171.313 60.2264 170.641 60.2264ZM178.822 67.4104C178.161 67.4104 177.612 67.2984 177.174 67.0744C176.737 66.8504 176.412 66.5517 176.198 66.1784C175.985 65.8051 175.878 65.3997 175.878 64.9624C175.878 64.1517 176.188 63.5277 176.806 63.0904C177.425 62.6531 178.268 62.4344 179.334 62.4344H181.478V62.3384C181.478 61.6451 181.297 61.1224 180.934 60.7704C180.572 60.4077 180.086 60.2264 179.478 60.2264C178.956 60.2264 178.502 60.3597 178.118 60.6264C177.745 60.8824 177.51 61.2611 177.414 61.7624H176.038C176.092 61.1864 176.284 60.7011 176.614 60.3064C176.956 59.9117 177.377 59.6131 177.878 59.4104C178.38 59.1971 178.913 59.0904 179.478 59.0904C180.588 59.0904 181.42 59.3891 181.974 59.9864C182.54 60.5731 182.822 61.3571 182.822 62.3384V67.2184H181.622L181.542 65.7944C181.318 66.2424 180.988 66.6264 180.55 66.9464C180.124 67.2557 179.548 67.4104 178.822 67.4104ZM179.03 66.2744C179.542 66.2744 179.98 66.1411 180.342 65.8744C180.716 65.6077 180.998 65.2611 181.19 64.8344C181.382 64.4077 181.478 63.9597 181.478 63.4904V63.4744H179.446C178.657 63.4744 178.097 63.6131 177.766 63.8904C177.446 64.1571 177.286 64.4931 177.286 64.8984C177.286 65.3144 177.436 65.6504 177.734 65.9064C178.044 66.1517 178.476 66.2744 179.03 66.2744ZM184.839 67.2184V55.6984H186.183V67.2184H184.839ZM191.521 67.2184C190.796 67.2184 190.225 67.0424 189.809 66.6904C189.393 66.3384 189.185 65.7037 189.185 64.7864V60.4184H187.809V59.2824H189.185L189.361 57.3784H190.529V59.2824H192.865V60.4184H190.529V64.7864C190.529 65.2877 190.631 65.6291 190.833 65.8104C191.036 65.9811 191.393 66.0664 191.905 66.0664H192.737V67.2184H191.521ZM194.573 67.2184V55.6984H195.917V60.6424C196.184 60.1517 196.562 59.7731 197.053 59.5064C197.544 59.2291 198.077 59.0904 198.653 59.0904C199.57 59.0904 200.306 59.3784 200.861 59.9544C201.416 60.5197 201.693 61.3944 201.693 62.5784V67.2184H200.365V62.7224C200.365 61.0691 199.698 60.2424 198.365 60.2424C197.672 60.2424 197.09 60.4931 196.621 60.9944C196.152 61.4851 195.917 62.1891 195.917 63.1064V67.2184H194.573ZM208.78 57.5224C208.513 57.5224 208.289 57.4371 208.108 57.2664C207.937 57.085 207.852 56.861 207.852 56.5944C207.852 56.3384 207.937 56.125 208.108 55.9544C208.289 55.7837 208.513 55.6984 208.78 55.6984C209.036 55.6984 209.254 55.7837 209.436 55.9544C209.617 56.125 209.708 56.3384 209.708 56.5944C209.708 56.861 209.617 57.085 209.436 57.2664C209.254 57.4371 209.036 57.5224 208.78 57.5224ZM208.108 67.2184V59.2824H209.452V67.2184H208.108ZM211.792 67.2184V59.2824H213.008L213.088 60.7064C213.344 60.2051 213.712 59.8104 214.192 59.5224C214.672 59.2344 215.216 59.0904 215.824 59.0904C216.762 59.0904 217.509 59.3784 218.064 59.9544C218.629 60.5197 218.912 61.3944 218.912 62.5784V67.2184H217.568V62.7224C217.568 61.0691 216.885 60.2424 215.52 60.2424C214.837 60.2424 214.266 60.4931 213.808 60.9944C213.36 61.4851 213.136 62.1891 213.136 63.1064V67.2184H211.792ZM226.046 70.7384L228.014 66.4504H227.55L224.398 59.2824H225.854L228.478 65.4584L231.262 59.2824H232.654L227.454 70.7384H226.046ZM236.939 67.4104C236.192 67.4104 235.52 67.2397 234.923 66.8984C234.326 66.5571 233.851 66.0771 233.499 65.4584C233.158 64.8291 232.987 64.0931 232.987 63.2504C232.987 62.4077 233.163 61.6771 233.515 61.0584C233.867 60.429 234.342 59.9437 234.939 59.6024C235.547 59.2611 236.224 59.0904 236.971 59.0904C237.718 59.0904 238.39 59.2611 238.987 59.6024C239.584 59.9437 240.054 60.429 240.395 61.0584C240.747 61.6771 240.923 62.4077 240.923 63.2504C240.923 64.0931 240.747 64.8291 240.395 65.4584C240.043 66.0771 239.563 66.5571 238.955 66.8984C238.358 67.2397 237.686 67.4104 236.939 67.4104ZM236.939 66.2584C237.398 66.2584 237.824 66.1464 238.219 65.9224C238.614 65.6984 238.934 65.3624 239.179 64.9144C239.424 64.4664 239.547 63.9117 239.547 63.2504C239.547 62.5891 239.424 62.0344 239.179 61.5864C238.944 61.1384 238.63 60.8024 238.235 60.5784C237.84 60.3544 237.419 60.2424 236.971 60.2424C236.512 60.2424 236.086 60.3544 235.691 60.5784C235.296 60.8024 234.976 61.1384 234.731 61.5864C234.486 62.0344 234.363 62.5891 234.363 63.2504C234.363 63.9117 234.486 64.4664 234.731 64.9144C234.976 65.3624 235.291 65.6984 235.675 65.9224C236.07 66.1464 236.491 66.2584 236.939 66.2584ZM245.688 67.4104C244.749 67.4104 244.002 67.1277 243.448 66.5624C242.893 65.9864 242.616 65.1064 242.616 63.9224V59.2824H243.96V63.7784C243.96 65.4317 244.637 66.2584 245.992 66.2584C246.685 66.2584 247.256 66.0131 247.704 65.5224C248.162 65.0211 248.392 64.3117 248.392 63.3944V59.2824H249.736V67.2184H248.52L248.424 65.7944C248.178 66.2957 247.81 66.6904 247.32 66.9784C246.84 67.2664 246.296 67.4104 245.688 67.4104ZM251.948 67.2184V59.2824H253.164L253.276 60.8024C253.521 60.2797 253.895 59.8637 254.396 59.5544C254.897 59.2451 255.516 59.0904 256.252 59.0904V60.4984H255.884C255.415 60.4984 254.983 60.5837 254.588 60.7544C254.193 60.9144 253.879 61.1917 253.644 61.5864C253.409 61.9811 253.292 62.5251 253.292 63.2184V67.2184H251.948ZM261.995 67.2184V59.2824H263.211L263.323 60.8024C263.568 60.2797 263.942 59.8637 264.443 59.5544C264.944 59.2451 265.563 59.0904 266.299 59.0904V60.4984H265.931C265.462 60.4984 265.03 60.5837 264.635 60.7544C264.24 60.9144 263.926 61.1917 263.691 61.5864C263.456 61.9811 263.339 62.5251 263.339 63.2184V67.2184H261.995ZM271.126 67.4104C270.38 67.4104 269.708 67.2397 269.11 66.8984C268.513 66.5571 268.038 66.0771 267.686 65.4584C267.345 64.8291 267.174 64.0931 267.174 63.2504C267.174 62.4077 267.35 61.6771 267.702 61.0584C268.054 60.429 268.529 59.9437 269.126 59.6024C269.734 59.2611 270.412 59.0904 271.158 59.0904C271.905 59.0904 272.577 59.2611 273.174 59.6024C273.772 59.9437 274.241 60.429 274.582 61.0584C274.934 61.6771 275.11 62.4077 275.11 63.2504C275.11 64.0931 274.934 64.8291 274.582 65.4584C274.23 66.0771 273.75 66.5571 273.142 66.8984C272.545 67.2397 271.873 67.4104 271.126 67.4104ZM271.126 66.2584C271.585 66.2584 272.012 66.1464 272.406 65.9224C272.801 65.6984 273.121 65.3624 273.366 64.9144C273.612 64.4664 273.734 63.9117 273.734 63.2504C273.734 62.5891 273.612 62.0344 273.366 61.5864C273.132 61.1384 272.817 60.8024 272.422 60.5784C272.028 60.3544 271.606 60.2424 271.158 60.2424C270.7 60.2424 270.273 60.3544 269.878 60.5784C269.484 60.8024 269.164 61.1384 268.918 61.5864C268.673 62.0344 268.55 62.5891 268.55 63.2504C268.55 63.9117 268.673 64.4664 268.918 64.9144C269.164 65.3624 269.478 65.6984 269.862 65.9224C270.257 66.1464 270.678 66.2584 271.126 66.2584ZM279.875 67.4104C278.937 67.4104 278.19 67.1277 277.635 66.5624C277.081 65.9864 276.803 65.1064 276.803 63.9224V59.2824H278.147V63.7784C278.147 65.4317 278.825 66.2584 280.179 66.2584C280.873 66.2584 281.443 66.0131 281.891 65.5224C282.35 65.0211 282.579 64.3117 282.579 63.3944V59.2824H283.923V67.2184H282.707L282.611 65.7944C282.366 66.2957 281.998 66.6904 281.507 66.9784C281.027 67.2664 280.483 67.4104 279.875 67.4104ZM289.271 67.2184C288.546 67.2184 287.975 67.0424 287.559 66.6904C287.143 66.3384 286.935 65.7037 286.935 64.7864V60.4184H285.559V59.2824H286.935L287.111 57.3784H288.279V59.2824H290.615V60.4184H288.279V64.7864C288.279 65.2877 288.381 65.6291 288.583 65.8104C288.786 65.9811 289.143 66.0664 289.655 66.0664H290.487V67.2184H289.271ZM293.139 57.5224C292.872 57.5224 292.648 57.4371 292.467 57.2664C292.296 57.085 292.211 56.861 292.211 56.5944C292.211 56.3384 292.296 56.125 292.467 55.9544C292.648 55.7837 292.872 55.6984 293.139 55.6984C293.395 55.6984 293.614 55.7837 293.795 55.9544C293.976 56.125 294.067 56.3384 294.067 56.5944C294.067 56.861 293.976 57.085 293.795 57.2664C293.614 57.4371 293.395 57.5224 293.139 57.5224ZM292.467 67.2184V59.2824H293.811V67.2184H292.467ZM296.151 67.2184V59.2824H297.367L297.447 60.7064C297.703 60.2051 298.071 59.8104 298.551 59.5224C299.031 59.2344 299.575 59.0904 300.183 59.0904C301.122 59.0904 301.868 59.3784 302.423 59.9544C302.988 60.5197 303.271 61.3944 303.271 62.5784V67.2184H301.927V62.7224C301.927 61.0691 301.244 60.2424 299.879 60.2424C299.196 60.2424 298.626 60.4931 298.167 60.9944C297.719 61.4851 297.495 62.1891 297.495 63.1064V67.2184H296.151ZM308.875 67.4104C308.118 67.4104 307.446 67.2397 306.859 66.8984C306.273 66.5464 305.809 66.0611 305.467 65.4424C305.137 64.8237 304.971 64.0931 304.971 63.2504C304.971 62.4184 305.137 61.6931 305.467 61.0744C305.798 60.4451 306.257 59.9597 306.843 59.6184C307.441 59.2664 308.129 59.0904 308.907 59.0904C309.675 59.0904 310.337 59.2664 310.891 59.6184C311.457 59.9597 311.889 60.4131 312.187 60.9784C312.486 61.5437 312.635 62.1517 312.635 62.8024C312.635 62.9197 312.63 63.0371 312.619 63.1544C312.619 63.2717 312.619 63.4051 312.619 63.5544H306.299C306.331 64.1624 306.47 64.6691 306.715 65.0744C306.971 65.4691 307.286 65.7677 307.659 65.9704C308.043 66.1731 308.449 66.2744 308.875 66.2744C309.43 66.2744 309.894 66.1464 310.267 65.8904C310.641 65.6344 310.913 65.2877 311.083 64.8504H312.411C312.198 65.5864 311.787 66.1997 311.179 66.6904C310.582 67.1704 309.814 67.4104 308.875 67.4104ZM308.875 60.2264C308.235 60.2264 307.665 60.4237 307.163 60.8184C306.673 61.2024 306.39 61.7677 306.315 62.5144H311.307C311.275 61.7997 311.03 61.2397 310.571 60.8344C310.113 60.4291 309.547 60.2264 308.875 60.2264Z" fill="black"/>
<defs>
<filter id="filter0_f_17_2984" x="0.323574" y="0.541714" width="362.353" height="121.353" filterUnits="userSpaceOnUse" color-interpolation-filters="sRGB">
<feFlood flood-opacity="0" result="BackgroundImageFix"/>
<feBlend mode="normal" in="SourceGraphic" in2="BackgroundImageFix" result="shape"/>
<feGaussianBlur stdDeviation="8.33834" result="effect1_foregroundBlur_17_2984"/>
</filter>
<filter id="filter1_d_17_2984" x="-4.41389" y="11.2252" width="109.201" height="103.415" filterUnits="userSpaceOnUse" color-interpolation-filters="sRGB">
<feFlood flood-opacity="0" result="BackgroundImageFix"/>
<feColorMatrix in="SourceAlpha" type="matrix" values="0 0 0 0 0 0 0 0 0 0 0 0 0 0 0 0 0 0 127 0" result="hardAlpha"/>
<feOffset dy="2.38517"/>
<feGaussianBlur stdDeviation="2.38517"/>
<feColorMatrix type="matrix" values="0 0 0 0 0 0 0 0 0 0 0 0 0 0 0 0 0 0 0.15 0"/>
<feBlend mode="normal" in2="BackgroundImageFix" result="effect1_dropShadow_17_2984"/>
<feBlend mode="normal" in="SourceGraphic" in2="effect1_dropShadow_17_2984" result="shape"/>
</filter>
<linearGradient id="paint0_linear_17_2984" x1="63.4057" y1="35.82" x2="71.6442" y2="44.4331" gradientUnits="userSpaceOnUse">
<stop stop-color="#464F00"/>
<stop offset="0.2883" stop-color="#454518"/>
<stop offset="0.7468" stop-color="#443738"/>
<stop offset="1" stop-color="#433244"/>
</linearGradient>
<linearGradient id="paint1_linear_17_2984" x1="65.9017" y1="22.1094" x2="67.0869" y2="26.4732" gradientUnits="userSpaceOnUse">
<stop stop-color="#F8F6FB"/>
<stop offset="1" stop-color="#EFDCFB"/>
</linearGradient>
<linearGradient id="paint2_linear_17_2984" x1="69.7578" y1="22.062" x2="70.1649" y2="22.959" gradientUnits="userSpaceOnUse">
<stop stop-color="#FF6359"/>
<stop offset="0.2243" stop-color="#FE5B50"/>
<stop offset="0.5952" stop-color="#FC4637"/>
<stop offset="1" stop-color="#F82814"/>
</linearGradient>
<linearGradient id="paint3_linear_17_2984" x1="75.9006" y1="20.9242" x2="78.4838" y2="23.9443" gradientUnits="userSpaceOnUse">
<stop stop-color="#FFA936"/>
<stop offset="0.4112" stop-color="#FF8548"/>
<stop offset="0.7781" stop-color="#FF6C54"/>
<stop offset="1" stop-color="#FF6359"/>
</linearGradient>
<linearGradient id="paint4_linear_17_2984" x1="65.6749" y1="19.7765" x2="66.7149" y2="21.4852" gradientUnits="userSpaceOnUse">
<stop stop-color="#BADA00"/>
<stop offset="0.2269" stop-color="#B0CE00"/>
<stop offset="0.6378" stop-color="#95AE00"/>
<stop offset="1" stop-color="#798C00"/>
</linearGradient>
<linearGradient id="paint5_linear_17_2984" x1="57.7299" y1="21.3864" x2="60.1382" y2="24.4386" gradientUnits="userSpaceOnUse">
<stop stop-color="#FFD945"/>
<stop offset="0.3043" stop-color="#FFCD3E"/>
<stop offset="0.8558" stop-color="#FFAD2B"/>
<stop offset="1" stop-color="#FFA325"/>
</linearGradient>
<linearGradient id="paint6_linear_17_2984" x1="74.7263" y1="24.2392" x2="79.4061" y2="22.6486" gradientUnits="userSpaceOnUse">
<stop stop-color="#FFDECF"/>
<stop offset="0.3791" stop-color="#FDC4B0"/>
<stop offset="0.7655" stop-color="#FBAE97"/>
<stop offset="1" stop-color="#FAA68E"/>
</linearGradient>
<linearGradient id="paint7_linear_17_2984" x1="47.0912" y1="21.5458" x2="42.2798" y2="20.8944" gradientUnits="userSpaceOnUse">
<stop stop-color="#EFDCFB" stop-opacity="0"/>
<stop offset="0.0287" stop-color="#E9D6F7" stop-opacity="0.029"/>
<stop offset="0.2203" stop-color="#C5B5DE" stop-opacity="0.22"/>
<stop offset="0.4138" stop-color="#AA9BCB" stop-opacity="0.414"/>
<stop offset="0.6078" stop-color="#9688BD" stop-opacity="0.608"/>
<stop offset="0.8028" stop-color="#8A7DB5" stop-opacity="0.803"/>
<stop offset="1" stop-color="#8679B2"/>
</linearGradient>
<linearGradient id="paint8_linear_17_2984" x1="47.5478" y1="24.6306" x2="43.7493" y2="24.1163" gradientUnits="userSpaceOnUse">
<stop stop-color="#EFDCFB" stop-opacity="0"/>
<stop offset="0.0287" stop-color="#E9D6F7" stop-opacity="0.029"/>
<stop offset="0.2203" stop-color="#C5B5DE" stop-opacity="0.22"/>
<stop offset="0.4138" stop-color="#AA9BCB" stop-opacity="0.414"/>
<stop offset="0.6078" stop-color="#9688BD" stop-opacity="0.608"/>
<stop offset="0.8028" stop-color="#8A7DB5" stop-opacity="0.803"/>
<stop offset="1" stop-color="#8679B2"/>
</linearGradient>
<linearGradient id="paint9_linear_17_2984" x1="50.0252" y1="22.4459" x2="47.4233" y2="22.0885" gradientUnits="userSpaceOnUse">
<stop stop-color="#EFDCFB" stop-opacity="0"/>
<stop offset="0.0287" stop-color="#E9D6F7" stop-opacity="0.029"/>
<stop offset="0.2203" stop-color="#C5B5DE" stop-opacity="0.22"/>
<stop offset="0.4138" stop-color="#AA9BCB" stop-opacity="0.414"/>
<stop offset="0.6078" stop-color="#9688BD" stop-opacity="0.608"/>
<stop offset="0.8028" stop-color="#8A7DB5" stop-opacity="0.803"/>
<stop offset="1" stop-color="#8679B2"/>
</linearGradient>
<linearGradient id="paint10_linear_17_2984" x1="88.5766" y1="26.1018" x2="86.0062" y2="22.1479" gradientUnits="userSpaceOnUse">
<stop stop-color="#EFDCFB" stop-opacity="0"/>
<stop offset="0.0287" stop-color="#E9D6F7" stop-opacity="0.029"/>
<stop offset="0.2203" stop-color="#C5B5DE" stop-opacity="0.22"/>
<stop offset="0.4138" stop-color="#AA9BCB" stop-opacity="0.414"/>
<stop offset="0.6078" stop-color="#9688BD" stop-opacity="0.608"/>
<stop offset="0.8028" stop-color="#8A7DB5" stop-opacity="0.803"/>
<stop offset="1" stop-color="#8679B2"/>
</linearGradient>
<linearGradient id="paint11_linear_17_2984" x1="86.4925" y1="28.4541" x2="84.4633" y2="25.3329" gradientUnits="userSpaceOnUse">
<stop stop-color="#EFDCFB" stop-opacity="0"/>
<stop offset="0.0287" stop-color="#E9D6F7" stop-opacity="0.029"/>
<stop offset="0.2203" stop-color="#C5B5DE" stop-opacity="0.22"/>
<stop offset="0.4138" stop-color="#AA9BCB" stop-opacity="0.414"/>
<stop offset="0.6078" stop-color="#9688BD" stop-opacity="0.608"/>
<stop offset="0.8028" stop-color="#8A7DB5" stop-opacity="0.803"/>
<stop offset="1" stop-color="#8679B2"/>
</linearGradient>
<linearGradient id="paint12_linear_17_2984" x1="89.8599" y1="28.9458" x2="88.4426" y2="26.7339" gradientUnits="userSpaceOnUse">
<stop stop-color="#EFDCFB" stop-opacity="0"/>
<stop offset="0.0287" stop-color="#E9D6F7" stop-opacity="0.029"/>
<stop offset="0.2203" stop-color="#C5B5DE" stop-opacity="0.22"/>
<stop offset="0.4138" stop-color="#AA9BCB" stop-opacity="0.414"/>
<stop offset="0.6078" stop-color="#9688BD" stop-opacity="0.608"/>
<stop offset="0.8028" stop-color="#8A7DB5" stop-opacity="0.803"/>
<stop offset="1" stop-color="#8679B2"/>
</linearGradient>
<linearGradient id="paint13_linear_17_2984" x1="50.3125" y1="18.8417" x2="48.3412" y2="15.964" gradientUnits="userSpaceOnUse">
<stop stop-color="#EFDCFB" stop-opacity="0"/>
<stop offset="0.0287" stop-color="#E9D6F7" stop-opacity="0.029"/>
<stop offset="0.2203" stop-color="#C5B5DE" stop-opacity="0.22"/>
<stop offset="0.4138" stop-color="#AA9BCB" stop-opacity="0.414"/>
<stop offset="0.6078" stop-color="#9688BD" stop-opacity="0.608"/>
<stop offset="0.8028" stop-color="#8A7DB5" stop-opacity="0.803"/>
<stop offset="1" stop-color="#8679B2"/>
</linearGradient>
<linearGradient id="paint14_linear_17_2984" x1="48.8151" y1="20.6157" x2="47.2589" y2="18.3441" gradientUnits="userSpaceOnUse">
<stop stop-color="#EFDCFB" stop-opacity="0"/>
<stop offset="0.0287" stop-color="#E9D6F7" stop-opacity="0.029"/>
<stop offset="0.2203" stop-color="#C5B5DE" stop-opacity="0.22"/>
<stop offset="0.4138" stop-color="#AA9BCB" stop-opacity="0.414"/>
<stop offset="0.6078" stop-color="#9688BD" stop-opacity="0.608"/>
<stop offset="0.8028" stop-color="#8A7DB5" stop-opacity="0.803"/>
<stop offset="1" stop-color="#8679B2"/>
</linearGradient>
<linearGradient id="paint15_linear_17_2984" x1="51.5491" y1="21.3278" x2="50.0788" y2="19.1501" gradientUnits="userSpaceOnUse">
<stop stop-color="#EFDCFB" stop-opacity="0"/>
<stop offset="0.0287" stop-color="#E9D6F7" stop-opacity="0.029"/>
<stop offset="0.2203" stop-color="#C5B5DE" stop-opacity="0.22"/>
<stop offset="0.4138" stop-color="#AA9BCB" stop-opacity="0.414"/>
<stop offset="0.6078" stop-color="#9688BD" stop-opacity="0.608"/>
<stop offset="0.8028" stop-color="#8A7DB5" stop-opacity="0.803"/>
<stop offset="1" stop-color="#8679B2"/>
</linearGradient>
<linearGradient id="paint16_linear_17_2984" x1="66.8829" y1="50.6595" x2="49.6382" y2="33.661" gradientUnits="userSpaceOnUse">
<stop offset="0.001" stop-color="#433244" stop-opacity="0"/>
<stop offset="0.4841" stop-color="#362637" stop-opacity="0.484"/>
<stop offset="1" stop-color="#2D1E2E"/>
</linearGradient>
<linearGradient id="paint17_linear_17_2984" x1="23.8619" y1="51.3296" x2="32.1006" y2="59.9428" gradientUnits="userSpaceOnUse">
<stop stop-color="#464F00"/>
<stop offset="0.2883" stop-color="#454518"/>
<stop offset="0.7468" stop-color="#443738"/>
<stop offset="1" stop-color="#433244"/>
</linearGradient>
<linearGradient id="paint18_linear_17_2984" x1="26.3581" y1="37.6191" x2="27.5433" y2="41.9828" gradientUnits="userSpaceOnUse">
<stop stop-color="#F8F6FB"/>
<stop offset="1" stop-color="#EFDCFB"/>
</linearGradient>
<linearGradient id="paint19_linear_17_2984" x1="27.8198" y1="37.7285" x2="27.9972" y2="38.3168" gradientUnits="userSpaceOnUse">
<stop stop-color="#FF6359"/>
<stop offset="0.2243" stop-color="#FE5B50"/>
<stop offset="0.5952" stop-color="#FC4637"/>
<stop offset="1" stop-color="#F82814"/>
</linearGradient>
<linearGradient id="paint20_linear_17_2984" x1="19.4882" y1="36.7949" x2="20.956" y2="39.5019" gradientUnits="userSpaceOnUse">
<stop stop-color="#FFA936"/>
<stop offset="0.4112" stop-color="#FF8548"/>
<stop offset="0.7781" stop-color="#FF6C54"/>
<stop offset="1" stop-color="#FF6359"/>
</linearGradient>
<linearGradient id="paint21_linear_17_2984" x1="30.4205" y1="35.4303" x2="30.7764" y2="36.1786" gradientUnits="userSpaceOnUse">
<stop stop-color="#BADA00"/>
<stop offset="0.2269" stop-color="#B0CE00"/>
<stop offset="0.6378" stop-color="#95AE00"/>
<stop offset="1" stop-color="#798C00"/>
</linearGradient>
<linearGradient id="paint22_linear_17_2984" x1="36.7164" y1="36.8766" x2="38.2568" y2="39.958" gradientUnits="userSpaceOnUse">
<stop stop-color="#FFD945"/>
<stop offset="0.3043" stop-color="#FFCD3E"/>
<stop offset="0.8558" stop-color="#FFAD2B"/>
<stop offset="1" stop-color="#FFA325"/>
</linearGradient>
<linearGradient id="paint23_linear_17_2984" x1="18.3845" y1="39.4086" x2="19.0576" y2="40.6251" gradientUnits="userSpaceOnUse">
<stop stop-color="#FFDECF"/>
<stop offset="0.3791" stop-color="#FDC4B0"/>
<stop offset="0.7655" stop-color="#FBAE97"/>
<stop offset="1" stop-color="#FAA68E"/>
</linearGradient>
<linearGradient id="paint24_linear_17_2984" x1="49.0145" y1="41.6235" x2="46.444" y2="37.6696" gradientUnits="userSpaceOnUse">
<stop stop-color="#EFDCFB" stop-opacity="0"/>
<stop offset="0.0287" stop-color="#E9D6F7" stop-opacity="0.029"/>
<stop offset="0.2203" stop-color="#C5B5DE" stop-opacity="0.22"/>
<stop offset="0.4138" stop-color="#AA9BCB" stop-opacity="0.414"/>
<stop offset="0.6078" stop-color="#9688BD" stop-opacity="0.608"/>
<stop offset="0.8028" stop-color="#8A7DB5" stop-opacity="0.803"/>
<stop offset="1" stop-color="#8679B2"/>
</linearGradient>
<linearGradient id="paint25_linear_17_2984" x1="46.9303" y1="43.9759" x2="44.9012" y2="40.8546" gradientUnits="userSpaceOnUse">
<stop stop-color="#EFDCFB" stop-opacity="0"/>
<stop offset="0.0287" stop-color="#E9D6F7" stop-opacity="0.029"/>
<stop offset="0.2203" stop-color="#C5B5DE" stop-opacity="0.22"/>
<stop offset="0.4138" stop-color="#AA9BCB" stop-opacity="0.414"/>
<stop offset="0.6078" stop-color="#9688BD" stop-opacity="0.608"/>
<stop offset="0.8028" stop-color="#8A7DB5" stop-opacity="0.803"/>
<stop offset="1" stop-color="#8679B2"/>
</linearGradient>
<linearGradient id="paint26_linear_17_2984" x1="50.2953" y1="44.4697" x2="48.8777" y2="42.2578" gradientUnits="userSpaceOnUse">
<stop stop-color="#EFDCFB" stop-opacity="0"/>
<stop offset="0.0287" stop-color="#E9D6F7" stop-opacity="0.029"/>
<stop offset="0.2203" stop-color="#C5B5DE" stop-opacity="0.22"/>
<stop offset="0.4138" stop-color="#AA9BCB" stop-opacity="0.414"/>
<stop offset="0.6078" stop-color="#9688BD" stop-opacity="0.608"/>
<stop offset="0.8028" stop-color="#8A7DB5" stop-opacity="0.803"/>
<stop offset="1" stop-color="#8679B2"/>
</linearGradient>
<linearGradient id="paint27_linear_17_2984" x1="66.9714" y1="66.8393" x2="75.2099" y2="75.4523" gradientUnits="userSpaceOnUse">
<stop stop-color="#464F00"/>
<stop offset="0.2883" stop-color="#454518"/>
<stop offset="0.7468" stop-color="#443738"/>
<stop offset="1" stop-color="#433244"/>
</linearGradient>
<linearGradient id="paint28_linear_17_2984" x1="69.4674" y1="53.1288" x2="70.6526" y2="57.4925" gradientUnits="userSpaceOnUse">
<stop stop-color="#F8F6FB"/>
<stop offset="1" stop-color="#EFDCFB"/>
</linearGradient>
<linearGradient id="paint29_linear_17_2984" x1="71.1113" y1="52.713" x2="71.0837" y2="53.0214" gradientUnits="userSpaceOnUse">
<stop stop-color="#FF6359"/>
<stop offset="0.2243" stop-color="#FE5B50"/>
<stop offset="0.5952" stop-color="#FC4637"/>
<stop offset="1" stop-color="#F82814"/>
</linearGradient>
<linearGradient id="paint30_linear_17_2984" x1="61.2597" y1="52.7623" x2="62.4257" y2="55.4014" gradientUnits="userSpaceOnUse">
<stop stop-color="#FFA936"/>
<stop offset="0.4112" stop-color="#FF8548"/>
<stop offset="0.7781" stop-color="#FF6C54"/>
<stop offset="1" stop-color="#FF6359"/>
</linearGradient>
<linearGradient id="paint31_linear_17_2984" x1="72.1839" y1="54.9459" x2="72.5207" y2="55.9579" gradientUnits="userSpaceOnUse">
<stop stop-color="#BADA00"/>
<stop offset="0.2269" stop-color="#B0CE00"/>
<stop offset="0.6378" stop-color="#95AE00"/>
<stop offset="1" stop-color="#798C00"/>
</linearGradient>
<linearGradient id="paint32_linear_17_2984" x1="80.3218" y1="52.8639" x2="82.6394" y2="56.1578" gradientUnits="userSpaceOnUse">
<stop stop-color="#FFD945"/>
<stop offset="0.3043" stop-color="#FFCD3E"/>
<stop offset="0.8558" stop-color="#FFAD2B"/>
<stop offset="1" stop-color="#FFA325"/>
</linearGradient>
<linearGradient id="paint33_linear_17_2984" x1="78.2919" y1="50.8341" x2="82.9718" y2="52.4249" gradientUnits="userSpaceOnUse">
<stop stop-color="#FFDECF"/>
<stop offset="0.3791" stop-color="#FDC4B0"/>
<stop offset="0.7655" stop-color="#FBAE97"/>
<stop offset="1" stop-color="#FAA68E"/>
</linearGradient>
<linearGradient id="paint34_linear_17_2984" x1="50.6496" y1="52.5701" x2="45.8381" y2="51.9189" gradientUnits="userSpaceOnUse">
<stop stop-color="#EFDCFB" stop-opacity="0"/>
<stop offset="0.0287" stop-color="#E9D6F7" stop-opacity="0.029"/>
<stop offset="0.2203" stop-color="#C5B5DE" stop-opacity="0.22"/>
<stop offset="0.4138" stop-color="#AA9BCB" stop-opacity="0.414"/>
<stop offset="0.6078" stop-color="#9688BD" stop-opacity="0.608"/>
<stop offset="0.8028" stop-color="#8A7DB5" stop-opacity="0.803"/>
<stop offset="1" stop-color="#8679B2"/>
</linearGradient>
<linearGradient id="paint35_linear_17_2984" x1="51.1062" y1="55.655" x2="47.3079" y2="55.1408" gradientUnits="userSpaceOnUse">
<stop stop-color="#EFDCFB" stop-opacity="0"/>
<stop offset="0.0287" stop-color="#E9D6F7" stop-opacity="0.029"/>
<stop offset="0.2203" stop-color="#C5B5DE" stop-opacity="0.22"/>
<stop offset="0.4138" stop-color="#AA9BCB" stop-opacity="0.414"/>
<stop offset="0.6078" stop-color="#9688BD" stop-opacity="0.608"/>
<stop offset="0.8028" stop-color="#8A7DB5" stop-opacity="0.803"/>
<stop offset="1" stop-color="#8679B2"/>
</linearGradient>
<linearGradient id="paint36_linear_17_2984" x1="53.5829" y1="53.4712" x2="50.9809" y2="53.114" gradientUnits="userSpaceOnUse">
<stop stop-color="#EFDCFB" stop-opacity="0"/>
<stop offset="0.0287" stop-color="#E9D6F7" stop-opacity="0.029"/>
<stop offset="0.2203" stop-color="#C5B5DE" stop-opacity="0.22"/>
<stop offset="0.4138" stop-color="#AA9BCB" stop-opacity="0.414"/>
<stop offset="0.6078" stop-color="#9688BD" stop-opacity="0.608"/>
<stop offset="0.8028" stop-color="#8A7DB5" stop-opacity="0.803"/>
<stop offset="1" stop-color="#8679B2"/>
</linearGradient>
<linearGradient id="paint37_linear_17_2984" x1="92.1476" y1="57.1365" x2="89.5771" y2="53.1826" gradientUnits="userSpaceOnUse">
<stop stop-color="#EFDCFB" stop-opacity="0"/>
<stop offset="0.0287" stop-color="#E9D6F7" stop-opacity="0.029"/>
<stop offset="0.2203" stop-color="#C5B5DE" stop-opacity="0.22"/>
<stop offset="0.4138" stop-color="#AA9BCB" stop-opacity="0.414"/>
<stop offset="0.6078" stop-color="#9688BD" stop-opacity="0.608"/>
<stop offset="0.8028" stop-color="#8A7DB5" stop-opacity="0.803"/>
<stop offset="1" stop-color="#8679B2"/>
</linearGradient>
<linearGradient id="paint38_linear_17_2984" x1="90.0634" y1="59.4889" x2="88.0343" y2="56.3674" gradientUnits="userSpaceOnUse">
<stop stop-color="#EFDCFB" stop-opacity="0"/>
<stop offset="0.0287" stop-color="#E9D6F7" stop-opacity="0.029"/>
<stop offset="0.2203" stop-color="#C5B5DE" stop-opacity="0.22"/>
<stop offset="0.4138" stop-color="#AA9BCB" stop-opacity="0.414"/>
<stop offset="0.6078" stop-color="#9688BD" stop-opacity="0.608"/>
<stop offset="0.8028" stop-color="#8A7DB5" stop-opacity="0.803"/>
<stop offset="1" stop-color="#8679B2"/>
</linearGradient>
<linearGradient id="paint39_linear_17_2984" x1="93.4316" y1="59.9829" x2="92.0143" y2="57.771" gradientUnits="userSpaceOnUse">
<stop stop-color="#EFDCFB" stop-opacity="0"/>
<stop offset="0.0287" stop-color="#E9D6F7" stop-opacity="0.029"/>
<stop offset="0.2203" stop-color="#C5B5DE" stop-opacity="0.22"/>
<stop offset="0.4138" stop-color="#AA9BCB" stop-opacity="0.414"/>
<stop offset="0.6078" stop-color="#9688BD" stop-opacity="0.608"/>
<stop offset="0.8028" stop-color="#8A7DB5" stop-opacity="0.803"/>
<stop offset="1" stop-color="#8679B2"/>
</linearGradient>
<linearGradient id="paint40_linear_17_2984" x1="53.8894" y1="49.8746" x2="51.9183" y2="46.997" gradientUnits="userSpaceOnUse">
<stop stop-color="#EFDCFB" stop-opacity="0"/>
<stop offset="0.0287" stop-color="#E9D6F7" stop-opacity="0.029"/>
<stop offset="0.2203" stop-color="#C5B5DE" stop-opacity="0.22"/>
<stop offset="0.4138" stop-color="#AA9BCB" stop-opacity="0.414"/>
<stop offset="0.6078" stop-color="#9688BD" stop-opacity="0.608"/>
<stop offset="0.8028" stop-color="#8A7DB5" stop-opacity="0.803"/>
<stop offset="1" stop-color="#8679B2"/>
</linearGradient>
<linearGradient id="paint41_linear_17_2984" x1="52.3922" y1="51.6488" x2="50.8359" y2="49.377" gradientUnits="userSpaceOnUse">
<stop stop-color="#EFDCFB" stop-opacity="0"/>
<stop offset="0.0287" stop-color="#E9D6F7" stop-opacity="0.029"/>
<stop offset="0.2203" stop-color="#C5B5DE" stop-opacity="0.22"/>
<stop offset="0.4138" stop-color="#AA9BCB" stop-opacity="0.414"/>
<stop offset="0.6078" stop-color="#9688BD" stop-opacity="0.608"/>
<stop offset="0.8028" stop-color="#8A7DB5" stop-opacity="0.803"/>
<stop offset="1" stop-color="#8679B2"/>
</linearGradient>
<linearGradient id="paint42_linear_17_2984" x1="55.1324" y1="52.3689" x2="53.6618" y2="50.1912" gradientUnits="userSpaceOnUse">
<stop stop-color="#EFDCFB" stop-opacity="0"/>
<stop offset="0.0287" stop-color="#E9D6F7" stop-opacity="0.029"/>
<stop offset="0.2203" stop-color="#C5B5DE" stop-opacity="0.22"/>
<stop offset="0.4138" stop-color="#AA9BCB" stop-opacity="0.414"/>
<stop offset="0.6078" stop-color="#9688BD" stop-opacity="0.608"/>
<stop offset="0.8028" stop-color="#8A7DB5" stop-opacity="0.803"/>
<stop offset="1" stop-color="#8679B2"/>
</linearGradient>
<linearGradient id="paint43_linear_17_2984" x1="75.6544" y1="83.7525" x2="61.9608" y2="70.2544" gradientUnits="userSpaceOnUse">
<stop offset="0.001" stop-color="#433244" stop-opacity="0"/>
<stop offset="0.4841" stop-color="#362637" stop-opacity="0.484"/>
<stop offset="1" stop-color="#2D1E2E"/>
</linearGradient>
<linearGradient id="paint44_linear_17_2984" x1="29.7237" y1="89.4688" x2="37.9622" y2="98.0819" gradientUnits="userSpaceOnUse">
<stop stop-color="#464F00"/>
<stop offset="0.2883" stop-color="#454518"/>
<stop offset="0.7468" stop-color="#443738"/>
<stop offset="1" stop-color="#433244"/>
</linearGradient>
<linearGradient id="paint45_linear_17_2984" x1="32.2197" y1="75.7583" x2="33.4048" y2="80.122" gradientUnits="userSpaceOnUse">
<stop stop-color="#F8F6FB"/>
<stop offset="1" stop-color="#EFDCFB"/>
</linearGradient>
<linearGradient id="paint46_linear_17_2984" x1="35.1133" y1="75.2438" x2="35.1394" y2="75.5347" gradientUnits="userSpaceOnUse">
<stop stop-color="#FF6359"/>
<stop offset="0.2243" stop-color="#FE5B50"/>
<stop offset="0.5952" stop-color="#FC4637"/>
<stop offset="1" stop-color="#F82814"/>
</linearGradient>
<linearGradient id="paint47_linear_17_2984" x1="43.1728" y1="75.5904" x2="43.5799" y2="77.3783" gradientUnits="userSpaceOnUse">
<stop stop-color="#FFA936"/>
<stop offset="0.4112" stop-color="#FF8548"/>
<stop offset="0.7781" stop-color="#FF6C54"/>
<stop offset="1" stop-color="#FF6359"/>
</linearGradient>
<linearGradient id="paint48_linear_17_2984" x1="31.5617" y1="77.6295" x2="32.5095" y2="79.4156" gradientUnits="userSpaceOnUse">
<stop stop-color="#BADA00"/>
<stop offset="0.2269" stop-color="#B0CE00"/>
<stop offset="0.6378" stop-color="#95AE00"/>
<stop offset="1" stop-color="#798C00"/>
</linearGradient>
<linearGradient id="paint49_linear_17_2984" x1="25.3709" y1="75.6135" x2="27.1304" y2="78.3716" gradientUnits="userSpaceOnUse">
<stop stop-color="#FFD945"/>
<stop offset="0.3043" stop-color="#FFCD3E"/>
<stop offset="0.8558" stop-color="#FFAD2B"/>
<stop offset="1" stop-color="#FFA325"/>
</linearGradient>
<linearGradient id="paint50_linear_17_2984" x1="41.0441" y1="73.4636" x2="45.7241" y2="75.0544" gradientUnits="userSpaceOnUse">
<stop stop-color="#FFDECF"/>
<stop offset="0.3791" stop-color="#FDC4B0"/>
<stop offset="0.7655" stop-color="#FBAE97"/>
<stop offset="1" stop-color="#FAA68E"/>
</linearGradient>
<linearGradient id="paint51_linear_17_2984" x1="54.8834" y1="79.781" x2="52.3129" y2="75.8272" gradientUnits="userSpaceOnUse">
<stop stop-color="#EFDCFB" stop-opacity="0"/>
<stop offset="0.0287" stop-color="#E9D6F7" stop-opacity="0.029"/>
<stop offset="0.2203" stop-color="#C5B5DE" stop-opacity="0.22"/>
<stop offset="0.4138" stop-color="#AA9BCB" stop-opacity="0.414"/>
<stop offset="0.6078" stop-color="#9688BD" stop-opacity="0.608"/>
<stop offset="0.8028" stop-color="#8A7DB5" stop-opacity="0.803"/>
<stop offset="1" stop-color="#8679B2"/>
</linearGradient>
<linearGradient id="paint52_linear_17_2984" x1="52.7992" y1="82.1335" x2="50.7699" y2="79.012" gradientUnits="userSpaceOnUse">
<stop stop-color="#EFDCFB" stop-opacity="0"/>
<stop offset="0.0287" stop-color="#E9D6F7" stop-opacity="0.029"/>
<stop offset="0.2203" stop-color="#C5B5DE" stop-opacity="0.22"/>
<stop offset="0.4138" stop-color="#AA9BCB" stop-opacity="0.414"/>
<stop offset="0.6078" stop-color="#9688BD" stop-opacity="0.608"/>
<stop offset="0.8028" stop-color="#8A7DB5" stop-opacity="0.803"/>
<stop offset="1" stop-color="#8679B2"/>
</linearGradient>
<linearGradient id="paint53_linear_17_2984" x1="56.1652" y1="82.6305" x2="54.7476" y2="80.4186" gradientUnits="userSpaceOnUse">
<stop stop-color="#EFDCFB" stop-opacity="0"/>
<stop offset="0.0287" stop-color="#E9D6F7" stop-opacity="0.029"/>
<stop offset="0.2203" stop-color="#C5B5DE" stop-opacity="0.22"/>
<stop offset="0.4138" stop-color="#AA9BCB" stop-opacity="0.414"/>
<stop offset="0.6078" stop-color="#9688BD" stop-opacity="0.608"/>
<stop offset="0.8028" stop-color="#8A7DB5" stop-opacity="0.803"/>
<stop offset="1" stop-color="#8679B2"/>
</linearGradient>
<linearGradient id="paint54_linear_17_2984" x1="17.8678" y1="75.0327" x2="16.3975" y2="72.855" gradientUnits="userSpaceOnUse">
<stop stop-color="#EFDCFB" stop-opacity="0"/>
<stop offset="0.0287" stop-color="#E9D6F7" stop-opacity="0.029"/>
<stop offset="0.2203" stop-color="#C5B5DE" stop-opacity="0.22"/>
<stop offset="0.4138" stop-color="#AA9BCB" stop-opacity="0.414"/>
<stop offset="0.6078" stop-color="#9688BD" stop-opacity="0.608"/>
<stop offset="0.8028" stop-color="#8A7DB5" stop-opacity="0.803"/>
<stop offset="1" stop-color="#8679B2"/>
</linearGradient>
</defs>
</svg>
