<svg width="26" height="26" viewBox="0 0 26 26" fill="none" xmlns="http://www.w3.org/2000/svg">
<path d="M13.0002 26C20.1799 26 26.0002 20.1797 26.0002 13C26.0002 5.8203 20.1799 0 13.0002 0C5.82054 0 0.000244141 5.8203 0.000244141 13C0.000244141 20.1797 5.82054 26 13.0002 26Z" fill="#FF9D0C"/>
<mask id="mask0_17_2181" style="mask-type:alpha" maskUnits="userSpaceOnUse" x="0" y="0" width="27" height="26">
<path d="M13.0002 26C20.1799 26 26.0002 20.1797 26.0002 13C26.0002 5.8203 20.1799 0 13.0002 0C5.82054 0 0.000244141 5.8203 0.000244141 13C0.000244141 20.1797 5.82054 26 13.0002 26Z" fill="white"/>
</mask>
<g mask="url(#mask0_17_2181)">
<path fill-rule="evenodd" clip-rule="evenodd" d="M12.7015 3.94965C9.06633 3.94965 6.11945 6.93157 6.11945 10.61V26.3831H19.2835V10.61C19.2835 6.93157 16.3366 3.94965 12.7015 3.94965Z" fill="#FFD064"/>
<path fill-rule="evenodd" clip-rule="evenodd" d="M15.1637 4.43185C12.7482 5.41814 10.3136 7.81275 10.3136 10.61V26.3833H6.11951V10.61C6.11951 6.93164 9.0663 3.94977 12.7014 3.94977C13.5721 3.94977 14.4032 4.12084 15.1637 4.43185Z" fill="#FFC250"/>
<path fill-rule="evenodd" clip-rule="evenodd" d="M18.3532 26.3837H7.04959C7.96722 24.8141 9.50476 23.6598 11.3214 23.2664V20.8463H14.0814V23.2664C15.898 23.6598 17.4356 24.8141 18.3532 26.3837Z" fill="#FFDDCE"/>
<path fill-rule="evenodd" clip-rule="evenodd" d="M14.0817 20.8463V21.8474C13.769 21.9115 13.4452 21.9454 13.1138 21.9454H12.2894C11.958 21.9454 11.6341 21.9115 11.3214 21.8474V20.8463H14.0817Z" fill="#FFCBBE"/>
<path fill-rule="evenodd" clip-rule="evenodd" d="M12.1184 20.846V23.2664C11.3507 23.6595 10.7012 24.8142 10.3135 26.3837H7.04959C7.96717 24.8142 9.50481 23.6595 11.3212 23.2664V20.846H12.1184Z" fill="#FFCBBE"/>
<path d="M18.8362 17.6945C19.8121 17.6945 20.6033 16.8939 20.6033 15.9063C20.6033 14.9188 19.8121 14.1182 18.8362 14.1182C17.8602 14.1182 17.0691 14.9188 17.0691 15.9063C17.0691 16.8939 17.8602 17.6945 18.8362 17.6945Z" fill="#FFCBBE"/>
<path fill-rule="evenodd" clip-rule="evenodd" d="M17.9511 9.79108V16.0496C17.9511 18.753 15.7854 20.9444 13.1138 20.9444H12.2895C9.61791 20.9444 7.45175 18.753 7.45175 16.0496V13.6807C7.45175 13.6807 12.2003 14.5171 17.9511 9.79108Z" fill="#FFDDCE"/>
<path fill-rule="evenodd" clip-rule="evenodd" d="M14.1519 20.8312C13.8177 20.9056 13.4702 20.9445 13.1138 20.9445H12.2895C9.61791 20.9445 7.45175 18.753 7.45175 16.0496V13.6807C7.45175 13.6807 8.55936 13.8757 10.3522 13.5453V16.0496C10.3522 18.3923 11.979 20.3509 14.1519 20.8312Z" fill="#FFCBBE"/>
<path fill-rule="evenodd" clip-rule="evenodd" d="M9.88663 25.1872H15.5162V26.3837H9.88663V25.1872Z" fill="#61A2F9"/>
<path fill-rule="evenodd" clip-rule="evenodd" d="M20.9376 15.9061C20.9376 15.0131 20.3906 14.2474 19.618 13.9328V10.6099C19.618 6.75075 16.5153 3.61111 12.7015 3.61111C10.5873 3.61111 8.61701 4.57059 7.29559 6.24348C7.18024 6.3895 7.2037 6.60256 7.34805 6.71929C7.4924 6.83606 7.70295 6.81227 7.81826 6.66621C9.01202 5.15496 10.7919 4.2882 12.7015 4.2882C16.1463 4.2882 18.9489 7.12409 18.9489 10.6099V13.7827C18.9115 13.7807 18.8739 13.7795 18.836 13.7795C18.6494 13.7795 18.4643 13.8049 18.2857 13.8538V9.79108C18.2857 9.66049 18.2114 9.54155 18.0949 9.48545C17.9785 9.42925 17.8404 9.44599 17.7402 9.52833C14.7442 11.9906 12.0363 12.8907 10.2923 13.2122C8.59373 13.5253 7.52394 13.3497 7.5086 13.3471C7.41122 13.3301 7.31188 13.3574 7.23644 13.4216C7.16088 13.4859 7.11721 13.5808 7.11721 13.6807V16.0496C7.11721 18.4802 8.76342 20.529 10.9869 21.1148V22.9982C9.28698 23.4388 7.80368 24.5336 6.86232 26.0447H6.45376V10.6099C6.45376 9.58407 6.68888 8.60569 7.15258 7.70187C7.23774 7.53594 7.17381 7.3316 7.00984 7.24543C6.84581 7.15921 6.64387 7.22394 6.55876 7.38987C6.05233 8.37692 5.78464 9.49041 5.78464 10.6099V26.3832C5.78464 26.5702 5.93439 26.7218 6.1192 26.7218H19.2834C19.4682 26.7218 19.6179 26.5702 19.6179 26.3832V24.7758C19.6179 24.5889 19.4682 24.4373 19.2834 24.4373C19.0986 24.4373 18.9488 24.5889 18.9488 24.7758V26.0447H18.5401C17.5992 24.5336 16.116 23.4388 14.4159 22.9982V21.1149C16.0627 20.6812 17.3928 19.4448 17.972 17.8451C18.2413 17.9684 18.5338 18.0328 18.8359 18.0328C18.8738 18.0328 18.9114 18.0317 18.9488 18.0296V23.4244C18.9488 23.6113 19.0985 23.7629 19.2833 23.7629C19.4681 23.7629 19.6179 23.6113 19.6179 23.4244V17.8795C20.3906 17.5649 20.9376 16.7992 20.9376 15.9061ZM15.1816 26.0447H10.2212V25.5257H15.1816V26.0447ZM9.5519 24.323V26.0447H7.67066C8.17767 25.3434 8.82029 24.7582 9.5519 24.323ZM17.732 26.0447H15.851V24.323C16.5826 24.7582 17.2251 25.3434 17.732 26.0447ZM14.0114 23.5974C14.4155 23.6849 14.8073 23.8134 15.1819 23.9784V24.8486H10.221V23.9784C10.5956 23.8133 10.9873 23.6848 11.3914 23.5974C11.5458 23.564 11.6561 23.4261 11.6561 23.2663V21.2436C11.8637 21.2694 12.0751 21.2829 12.2895 21.2829H13.1138C13.3281 21.2829 13.5393 21.2694 13.7468 21.2437V23.2663C13.7468 23.4261 13.8571 23.564 14.0114 23.5974ZM13.1139 20.6059H12.2895C9.80648 20.6059 7.78637 18.562 7.78637 16.0496V14.0573C8.27242 14.0923 9.18781 14.104 10.4122 13.8783C12.126 13.5623 14.7272 12.7145 17.6166 10.4881V16.0496C17.6166 18.562 15.5967 20.6059 13.1139 20.6059ZM18.836 17.3557C18.598 17.3557 18.3689 17.297 18.1626 17.1854C18.2361 16.8509 18.2778 16.5045 18.2844 16.1496C18.3904 16.0026 18.5531 15.9178 18.7795 15.8916C19.0034 15.8658 19.1989 15.9105 19.2051 15.912C19.3841 15.9555 19.5645 15.8446 19.6084 15.6635C19.6525 15.4819 19.5427 15.2986 19.3632 15.2541C19.3333 15.2466 19.0612 15.1826 18.7285 15.2162C18.5675 15.2326 18.4196 15.2693 18.2856 15.3245V14.5677C18.4592 14.4947 18.6464 14.4566 18.836 14.4566C19.6258 14.4566 20.2684 15.1069 20.2684 15.9061C20.2684 16.7054 19.6259 17.3557 18.836 17.3557Z" fill="black"/>
<path fill-rule="evenodd" clip-rule="evenodd" d="M10.2082 14.337C10.0816 14.337 9.96456 14.3936 9.8687 14.4887L9.64749 14.3295C9.4968 14.221 9.28799 14.2568 9.18094 14.4091C9.07383 14.5614 9.10907 14.7728 9.25962 14.8812L9.62304 15.1428C9.62304 15.1448 9.62282 15.1466 9.62282 15.1486C9.62282 15.5961 9.88543 15.9601 10.2082 15.9601C10.531 15.9601 10.7936 15.5961 10.7936 15.1486C10.7936 14.7011 10.531 14.337 10.2082 14.337Z" fill="black"/>
<path fill-rule="evenodd" clip-rule="evenodd" d="M15.7557 14.3294L15.5345 14.4887C15.4386 14.3936 15.3216 14.337 15.195 14.337C14.8722 14.337 14.6096 14.7011 14.6096 15.1486C14.6096 15.5961 14.8722 15.9601 15.195 15.9601C15.5177 15.9601 15.7804 15.5961 15.7804 15.1486C15.7804 15.1466 15.7801 15.1447 15.7801 15.1428L16.1435 14.8812C16.2941 14.7728 16.3293 14.5615 16.2222 14.4091C16.1152 14.2567 15.9063 14.221 15.7557 14.3294Z" fill="black"/>
<path fill-rule="evenodd" clip-rule="evenodd" d="M15.2108 13.2153C15.3926 13.2153 15.5636 13.287 15.6922 13.4171C15.7575 13.4832 15.8431 13.5163 15.9288 13.5163C16.0144 13.5163 16.1 13.4832 16.1653 13.4171C16.296 13.2849 16.296 13.0706 16.1654 12.9384C15.9104 12.6803 15.5714 12.5382 15.2108 12.5382C14.8503 12.5382 14.5113 12.6803 14.2563 12.9384C14.1256 13.0706 14.1256 13.2849 14.2563 13.4171C14.387 13.5493 14.5988 13.5493 14.7294 13.4171C14.858 13.287 15.0289 13.2153 15.2108 13.2153Z" fill="black"/>
<path fill-rule="evenodd" clip-rule="evenodd" d="M13.8251 16.3128C13.648 16.2596 13.4617 16.3617 13.4091 16.5409C13.3171 16.8546 13.0261 17.0736 12.7016 17.0736C12.3774 17.0736 12.0865 16.8544 11.994 16.5406C11.9411 16.3614 11.755 16.2593 11.5778 16.3129C11.4007 16.3663 11.2999 16.5549 11.3528 16.734C11.5292 17.3326 12.0838 17.7507 12.7016 17.7507C13.3201 17.7507 13.8749 17.3325 14.0506 16.7337C14.1031 16.5544 14.0022 16.366 13.8251 16.3128Z" fill="black"/>
</g>
</svg>
