<svg width="281" height="169" viewBox="0 0 281 169" fill="none" xmlns="http://www.w3.org/2000/svg">
<g opacity="0.216301" filter="url(#filter0_f_17_2991)">
<path d="M253.741 60H27.2594C21.0411 60 16.0002 64.2461 16.0002 69.484V143.516C16.0002 148.754 21.0411 153 27.2594 153H253.741C259.959 153 265 148.754 265 143.516V69.484C265 64.2461 259.959 60 253.741 60Z" fill="black"/>
</g>
<path fill-rule="evenodd" clip-rule="evenodd" d="M249.777 49.8838C258.323 49.8838 265.251 56.8066 265.251 65.3564V127.4C265.251 135.945 258.325 142.872 249.777 142.872L238.784 142.872L235.654 146.932L232.524 142.872L31.0088 142.872C22.4627 142.872 15.5347 135.95 15.5347 127.4V65.3564C15.5347 56.8111 22.4601 49.8838 31.0088 49.8838H249.777Z" fill="white"/>
<path d="M78.5506 93.0085L82.6786 81.8085H84.1026L88.2146 93.0085H86.7906L85.7666 90.1285H80.9986L79.9586 93.0085H78.5506ZM81.3986 89.0405H85.3666L83.3826 83.5045L81.3986 89.0405ZM89.7996 93.0085V81.4885H91.1436V93.0085H89.7996ZM93.3464 93.0085V81.4885H94.6904V93.0085H93.3464ZM101.992 96.5285L103.96 92.2405H103.496L100.344 85.0725H101.8L104.424 91.2485L107.208 85.0725H108.6L103.4 96.5285H101.992ZM112.884 93.2005C112.138 93.2005 111.466 93.0299 110.868 92.6885C110.271 92.3472 109.796 91.8672 109.444 91.2485C109.103 90.6192 108.932 89.8832 108.932 89.0405C108.932 88.1979 109.108 87.4672 109.46 86.8485C109.812 86.2192 110.287 85.7339 110.884 85.3925C111.492 85.0512 112.17 84.8805 112.916 84.8805C113.663 84.8805 114.335 85.0512 114.932 85.3925C115.53 85.7339 115.999 86.2192 116.34 86.8485C116.692 87.4672 116.868 88.1979 116.868 89.0405C116.868 89.8832 116.692 90.6192 116.34 91.2485C115.988 91.8672 115.508 92.3472 114.9 92.6885C114.303 93.0299 113.631 93.2005 112.884 93.2005ZM112.884 92.0485C113.343 92.0485 113.77 91.9365 114.164 91.7125C114.559 91.4885 114.879 91.1525 115.124 90.7045C115.37 90.2565 115.492 89.7019 115.492 89.0405C115.492 88.3792 115.37 87.8245 115.124 87.3765C114.89 86.9285 114.575 86.5925 114.18 86.3685C113.786 86.1445 113.364 86.0325 112.916 86.0325C112.458 86.0325 112.031 86.1445 111.636 86.3685C111.242 86.5925 110.922 86.9285 110.676 87.3765C110.431 87.8245 110.308 88.3792 110.308 89.0405C110.308 89.7019 110.431 90.2565 110.676 90.7045C110.922 91.1525 111.236 91.4885 111.62 91.7125C112.015 91.9365 112.436 92.0485 112.884 92.0485ZM121.633 93.2005C120.694 93.2005 119.948 92.9179 119.393 92.3525C118.838 91.7765 118.561 90.8965 118.561 89.7125V85.0725H119.905V89.5685C119.905 91.2219 120.582 92.0485 121.937 92.0485C122.63 92.0485 123.201 91.8032 123.649 91.3125C124.108 90.8112 124.337 90.1019 124.337 89.1845V85.0725H125.681V93.0085H124.465L124.369 91.5845C124.124 92.0859 123.756 92.4805 123.265 92.7685C122.785 93.0565 122.241 93.2005 121.633 93.2005ZM127.893 93.0085V85.0725H129.109L129.221 86.5925C129.467 86.0699 129.84 85.6539 130.341 85.3445C130.843 85.0352 131.461 84.8805 132.197 84.8805V86.2885H131.829C131.36 86.2885 130.928 86.3739 130.533 86.5445C130.139 86.7045 129.824 86.9819 129.589 87.3765C129.355 87.7712 129.237 88.3152 129.237 89.0085V93.0085H127.893ZM137.94 93.0085V85.0725H139.156L139.252 86.2245C139.508 85.7979 139.85 85.4672 140.276 85.2325C140.703 84.9979 141.183 84.8805 141.716 84.8805C142.346 84.8805 142.884 85.0085 143.332 85.2645C143.791 85.5205 144.143 85.9099 144.388 86.4325C144.666 85.9525 145.044 85.5739 145.524 85.2965C146.015 85.0192 146.543 84.8805 147.108 84.8805C148.058 84.8805 148.815 85.1685 149.38 85.7445C149.946 86.3099 150.228 87.1845 150.228 88.3685V93.0085H148.9V88.5125C148.9 87.6912 148.735 87.0725 148.404 86.6565C148.074 86.2405 147.599 86.0325 146.98 86.0325C146.34 86.0325 145.807 86.2832 145.38 86.7845C144.964 87.2752 144.756 87.9792 144.756 88.8965V93.0085H143.412V88.5125C143.412 87.6912 143.247 87.0725 142.916 86.6565C142.586 86.2405 142.111 86.0325 141.492 86.0325C140.863 86.0325 140.335 86.2832 139.908 86.7845C139.492 87.2752 139.284 87.9792 139.284 88.8965V93.0085H137.94ZM155.821 93.2005C155.063 93.2005 154.391 93.0299 153.805 92.6885C153.218 92.3365 152.754 91.8512 152.413 91.2325C152.082 90.6139 151.917 89.8832 151.917 89.0405C151.917 88.2085 152.082 87.4832 152.413 86.8645C152.743 86.2352 153.202 85.7499 153.789 85.4085C154.386 85.0565 155.074 84.8805 155.853 84.8805C156.621 84.8805 157.282 85.0565 157.837 85.4085C158.402 85.7499 158.834 86.2032 159.133 86.7685C159.431 87.3339 159.581 87.9419 159.581 88.5925C159.581 88.7099 159.575 88.8272 159.565 88.9445C159.565 89.0619 159.565 89.1952 159.565 89.3445H153.245C153.277 89.9525 153.415 90.4592 153.661 90.8645C153.917 91.2592 154.231 91.5579 154.605 91.7605C154.989 91.9632 155.394 92.0645 155.821 92.0645C156.375 92.0645 156.839 91.9365 157.213 91.6805C157.586 91.4245 157.858 91.0779 158.029 90.6405H159.357C159.143 91.3765 158.733 91.9899 158.125 92.4805C157.527 92.9605 156.759 93.2005 155.821 93.2005ZM155.821 86.0165C155.181 86.0165 154.61 86.2139 154.109 86.6085C153.618 86.9925 153.335 87.5579 153.261 88.3045H158.253C158.221 87.5899 157.975 87.0299 157.517 86.6245C157.058 86.2192 156.493 86.0165 155.821 86.0165ZM164.002 93.2005C163.341 93.2005 162.791 93.0885 162.354 92.8645C161.917 92.6405 161.591 92.3419 161.378 91.9685C161.165 91.5952 161.058 91.1899 161.058 90.7525C161.058 89.9419 161.367 89.3179 161.986 88.8805C162.605 88.4432 163.447 88.2245 164.514 88.2245H166.658V88.1285C166.658 87.4352 166.477 86.9125 166.114 86.5605C165.751 86.1979 165.266 86.0165 164.658 86.0165C164.135 86.0165 163.682 86.1499 163.298 86.4165C162.925 86.6725 162.69 87.0512 162.594 87.5525H161.218C161.271 86.9765 161.463 86.4912 161.794 86.0965C162.135 85.7019 162.557 85.4032 163.058 85.2005C163.559 84.9872 164.093 84.8805 164.658 84.8805C165.767 84.8805 166.599 85.1792 167.154 85.7765C167.719 86.3632 168.002 87.1472 168.002 88.1285V93.0085H166.802L166.722 91.5845C166.498 92.0325 166.167 92.4165 165.73 92.7365C165.303 93.0459 164.727 93.2005 164.002 93.2005ZM164.21 92.0645C164.722 92.0645 165.159 91.9312 165.522 91.6645C165.895 91.3979 166.178 91.0512 166.37 90.6245C166.562 90.1979 166.658 89.7499 166.658 89.2805V89.2645H164.626C163.837 89.2645 163.277 89.4032 162.946 89.6805C162.626 89.9472 162.466 90.2832 162.466 90.6885C162.466 91.1045 162.615 91.4405 162.914 91.6965C163.223 91.9419 163.655 92.0645 164.21 92.0645ZM170.018 93.0085V81.4885H171.362V93.0085H170.018ZM176.605 93.2005C175.656 93.2005 174.867 92.9605 174.237 92.4805C173.608 92.0005 173.24 91.3499 173.133 90.5285H174.509C174.595 90.9445 174.813 91.3072 175.165 91.6165C175.528 91.9152 176.013 92.0645 176.621 92.0645C177.187 92.0645 177.603 91.9472 177.869 91.7125C178.136 91.4672 178.269 91.1792 178.269 90.8485C178.269 90.3685 178.093 90.0485 177.741 89.8885C177.4 89.7285 176.915 89.5845 176.285 89.4565C175.859 89.3712 175.432 89.2485 175.005 89.0885C174.579 88.9285 174.221 88.7045 173.933 88.4165C173.645 88.1179 173.501 87.7285 173.501 87.2485C173.501 86.5552 173.757 85.9899 174.269 85.5525C174.792 85.1045 175.496 84.8805 176.381 84.8805C177.224 84.8805 177.912 85.0939 178.445 85.5205C178.989 85.9365 179.304 86.5339 179.389 87.3125H178.061C178.008 86.9072 177.832 86.5925 177.533 86.3685C177.245 86.1339 176.856 86.0165 176.365 86.0165C175.885 86.0165 175.512 86.1179 175.245 86.3205C174.989 86.5232 174.861 86.7899 174.861 87.1205C174.861 87.4405 175.027 87.6912 175.357 87.8725C175.699 88.0539 176.157 88.2085 176.733 88.3365C177.224 88.4432 177.688 88.5765 178.125 88.7365C178.573 88.8859 178.936 89.1152 179.213 89.4245C179.501 89.7232 179.645 90.1605 179.645 90.7365C179.656 91.4512 179.384 92.0432 178.829 92.5125C178.285 92.9712 177.544 93.2005 176.605 93.2005ZM187.4 93.0085L185.08 85.0725H186.424L188.104 91.2965L189.96 85.0725H191.48L193.352 91.2965L195.016 85.0725H196.376L194.056 93.0085H192.68L190.728 86.4645L188.776 93.0085H187.4ZM198.678 83.3125C198.411 83.3125 198.187 83.2272 198.006 83.0565C197.835 82.8752 197.75 82.6512 197.75 82.3845C197.75 82.1285 197.835 81.9152 198.006 81.7445C198.187 81.5739 198.411 81.4885 198.678 81.4885C198.934 81.4885 199.153 81.5739 199.334 81.7445C199.515 81.9152 199.606 82.1285 199.606 82.3845C199.606 82.6512 199.515 82.8752 199.334 83.0565C199.153 83.2272 198.934 83.3125 198.678 83.3125ZM198.006 93.0085V85.0725H199.35V93.0085H198.006ZM204.826 93.0085C204.101 93.0085 203.53 92.8325 203.114 92.4805C202.698 92.1285 202.49 91.4939 202.49 90.5765V86.2085H201.114V85.0725H202.49L202.666 83.1685H203.834V85.0725H206.17V86.2085H203.834V90.5765C203.834 91.0779 203.936 91.4192 204.138 91.6005C204.341 91.7712 204.698 91.8565 205.21 91.8565H206.042V93.0085H204.826ZM207.878 93.0085V81.4885H209.222V86.4325C209.488 85.9419 209.867 85.5632 210.358 85.2965C210.848 85.0192 211.382 84.8805 211.958 84.8805C212.875 84.8805 213.611 85.1685 214.166 85.7445C214.72 86.3099 214.998 87.1845 214.998 88.3685V93.0085H213.67V88.5125C213.67 86.8592 213.003 86.0325 211.67 86.0325C210.976 86.0325 210.395 86.2832 209.926 86.7845C209.456 87.2752 209.222 87.9792 209.222 88.8965V93.0085H207.878ZM70.0496 117.529V106.073H71.2656L71.3936 107.385C71.6496 107.001 72.0122 106.654 72.4816 106.345C72.9616 106.035 73.5696 105.881 74.3056 105.881C75.0949 105.881 75.7829 106.062 76.3696 106.425C76.9562 106.787 77.4096 107.283 77.7296 107.913C78.0602 108.542 78.2256 109.257 78.2256 110.057C78.2256 110.857 78.0602 111.571 77.7296 112.201C77.4096 112.819 76.9509 113.31 76.3536 113.673C75.7669 114.025 75.0789 114.201 74.2896 114.201C73.6389 114.201 73.0576 114.067 72.5456 113.801C72.0442 113.534 71.6602 113.161 71.3936 112.681V117.529H70.0496ZM74.1456 113.033C74.6789 113.033 75.1482 112.91 75.5536 112.665C75.9589 112.409 76.2789 112.057 76.5136 111.609C76.7482 111.161 76.8656 110.638 76.8656 110.041C76.8656 109.443 76.7482 108.921 76.5136 108.473C76.2789 108.025 75.9589 107.678 75.5536 107.433C75.1482 107.177 74.6789 107.049 74.1456 107.049C73.6122 107.049 73.1429 107.177 72.7376 107.433C72.3322 107.678 72.0122 108.025 71.7776 108.473C71.5429 108.921 71.4256 109.443 71.4256 110.041C71.4256 110.638 71.5429 111.161 71.7776 111.609C72.0122 112.057 72.3322 112.409 72.7376 112.665C73.1429 112.91 73.6122 113.033 74.1456 113.033ZM83.6644 114.201C82.9071 114.201 82.2351 114.03 81.6484 113.689C81.0618 113.337 80.5978 112.851 80.2564 112.233C79.9258 111.614 79.7604 110.883 79.7604 110.041C79.7604 109.209 79.9258 108.483 80.2564 107.865C80.5871 107.235 81.0458 106.75 81.6324 106.409C82.2298 106.057 82.9178 105.881 83.6964 105.881C84.4644 105.881 85.1258 106.057 85.6804 106.409C86.2458 106.75 86.6778 107.203 86.9764 107.769C87.2751 108.334 87.4244 108.942 87.4244 109.593C87.4244 109.71 87.4191 109.827 87.4084 109.945C87.4084 110.062 87.4084 110.195 87.4084 110.345H81.0884C81.1204 110.953 81.2591 111.459 81.5044 111.865C81.7604 112.259 82.0751 112.558 82.4484 112.761C82.8324 112.963 83.2378 113.065 83.6644 113.065C84.2191 113.065 84.6831 112.937 85.0564 112.681C85.4298 112.425 85.7018 112.078 85.8724 111.641H87.2004C86.9871 112.377 86.5764 112.99 85.9684 113.481C85.3711 113.961 84.6031 114.201 83.6644 114.201ZM83.6644 107.017C83.0244 107.017 82.4538 107.214 81.9524 107.609C81.4618 107.993 81.1791 108.558 81.1044 109.305H86.0964C86.0644 108.59 85.8191 108.03 85.3604 107.625C84.9018 107.219 84.3364 107.017 83.6644 107.017ZM89.2058 114.009V106.073H90.4218L90.5338 107.593C90.7791 107.07 91.1525 106.654 91.6538 106.345C92.1551 106.035 92.7738 105.881 93.5098 105.881V107.289H93.1418C92.6725 107.289 92.2405 107.374 91.8458 107.545C91.4511 107.705 91.1365 107.982 90.9018 108.377C90.6671 108.771 90.5498 109.315 90.5498 110.009V114.009H89.2058ZM98.0583 114.201C97.109 114.201 96.3196 113.961 95.6903 113.481C95.061 113.001 94.693 112.35 94.5863 111.529H95.9623C96.0476 111.945 96.2663 112.307 96.6183 112.617C96.981 112.915 97.4663 113.065 98.0743 113.065C98.6396 113.065 99.0556 112.947 99.3223 112.713C99.589 112.467 99.7223 112.179 99.7223 111.849C99.7223 111.369 99.5463 111.049 99.1943 110.889C98.853 110.729 98.3676 110.585 97.7383 110.457C97.3116 110.371 96.885 110.249 96.4583 110.089C96.0316 109.929 95.6743 109.705 95.3863 109.417C95.0983 109.118 94.9543 108.729 94.9543 108.249C94.9543 107.555 95.2103 106.99 95.7223 106.553C96.245 106.105 96.949 105.881 97.8343 105.881C98.677 105.881 99.365 106.094 99.8983 106.521C100.442 106.937 100.757 107.534 100.842 108.313H99.5143C99.461 107.907 99.285 107.593 98.9863 107.369C98.6983 107.134 98.309 107.017 97.8183 107.017C97.3383 107.017 96.965 107.118 96.6983 107.321C96.4423 107.523 96.3143 107.79 96.3143 108.121C96.3143 108.441 96.4796 108.691 96.8103 108.873C97.1516 109.054 97.6103 109.209 98.1863 109.337C98.677 109.443 99.141 109.577 99.5783 109.737C100.026 109.886 100.389 110.115 100.666 110.425C100.954 110.723 101.098 111.161 101.098 111.737C101.109 112.451 100.837 113.043 100.282 113.513C99.7383 113.971 98.997 114.201 98.0583 114.201ZM106.634 114.201C105.888 114.201 105.216 114.03 104.618 113.689C104.021 113.347 103.546 112.867 103.194 112.249C102.853 111.619 102.682 110.883 102.682 110.041C102.682 109.198 102.858 108.467 103.21 107.849C103.562 107.219 104.037 106.734 104.634 106.393C105.242 106.051 105.92 105.881 106.666 105.881C107.413 105.881 108.085 106.051 108.682 106.393C109.28 106.734 109.749 107.219 110.09 107.849C110.442 108.467 110.618 109.198 110.618 110.041C110.618 110.883 110.442 111.619 110.09 112.249C109.738 112.867 109.258 113.347 108.65 113.689C108.053 114.03 107.381 114.201 106.634 114.201ZM106.634 113.049C107.093 113.049 107.52 112.937 107.914 112.713C108.309 112.489 108.629 112.153 108.874 111.705C109.12 111.257 109.242 110.702 109.242 110.041C109.242 109.379 109.12 108.825 108.874 108.377C108.64 107.929 108.325 107.593 107.93 107.369C107.536 107.145 107.114 107.033 106.666 107.033C106.208 107.033 105.781 107.145 105.386 107.369C104.992 107.593 104.672 107.929 104.426 108.377C104.181 108.825 104.058 109.379 104.058 110.041C104.058 110.702 104.181 111.257 104.426 111.705C104.672 112.153 104.986 112.489 105.37 112.713C105.765 112.937 106.186 113.049 106.634 113.049ZM112.487 114.009V106.073H113.703L113.783 107.497C114.039 106.995 114.407 106.601 114.887 106.313C115.367 106.025 115.911 105.881 116.519 105.881C117.458 105.881 118.204 106.169 118.759 106.745C119.324 107.31 119.607 108.185 119.607 109.369V114.009H118.263V109.513C118.263 107.859 117.58 107.033 116.215 107.033C115.532 107.033 114.962 107.283 114.503 107.785C114.055 108.275 113.831 108.979 113.831 109.897V114.009H112.487ZM124.283 114.201C123.622 114.201 123.073 114.089 122.635 113.865C122.198 113.641 121.873 113.342 121.659 112.969C121.446 112.595 121.339 112.19 121.339 111.753C121.339 110.942 121.649 110.318 122.267 109.881C122.886 109.443 123.729 109.225 124.795 109.225H126.939V109.129C126.939 108.435 126.758 107.913 126.395 107.561C126.033 107.198 125.547 107.017 124.939 107.017C124.417 107.017 123.963 107.15 123.579 107.417C123.206 107.673 122.971 108.051 122.875 108.553H121.499C121.553 107.977 121.745 107.491 122.075 107.097C122.417 106.702 122.838 106.403 123.339 106.201C123.841 105.987 124.374 105.881 124.939 105.881C126.049 105.881 126.881 106.179 127.435 106.777C128.001 107.363 128.283 108.147 128.283 109.129V114.009H127.083L127.003 112.585C126.779 113.033 126.449 113.417 126.011 113.737C125.585 114.046 125.009 114.201 124.283 114.201ZM124.491 113.065C125.003 113.065 125.441 112.931 125.803 112.665C126.177 112.398 126.459 112.051 126.651 111.625C126.843 111.198 126.939 110.75 126.939 110.281V110.265H124.907C124.118 110.265 123.558 110.403 123.227 110.681C122.907 110.947 122.747 111.283 122.747 111.689C122.747 112.105 122.897 112.441 123.195 112.697C123.505 112.942 123.937 113.065 124.491 113.065ZM130.3 114.009V102.489H131.644V114.009H130.3ZM134.662 104.313C134.396 104.313 134.172 104.227 133.99 104.057C133.82 103.875 133.734 103.651 133.734 103.385C133.734 103.129 133.82 102.915 133.99 102.745C134.172 102.574 134.396 102.489 134.662 102.489C134.918 102.489 135.137 102.574 135.318 102.745C135.5 102.915 135.59 103.129 135.59 103.385C135.59 103.651 135.5 103.875 135.318 104.057C135.137 104.227 134.918 104.313 134.662 104.313ZM133.99 114.009V106.073H135.334V114.009H133.99ZM137.131 114.009V112.905L141.547 107.193H137.211V106.073H143.051V107.177L138.635 112.889H143.131V114.009H137.131ZM148.477 114.201C147.72 114.201 147.048 114.03 146.461 113.689C145.874 113.337 145.41 112.851 145.069 112.233C144.738 111.614 144.573 110.883 144.573 110.041C144.573 109.209 144.738 108.483 145.069 107.865C145.4 107.235 145.858 106.75 146.445 106.409C147.042 106.057 147.73 105.881 148.509 105.881C149.277 105.881 149.938 106.057 150.493 106.409C151.058 106.75 151.49 107.203 151.789 107.769C152.088 108.334 152.237 108.942 152.237 109.593C152.237 109.71 152.232 109.827 152.221 109.945C152.221 110.062 152.221 110.195 152.221 110.345H145.901C145.933 110.953 146.072 111.459 146.317 111.865C146.573 112.259 146.888 112.558 147.261 112.761C147.645 112.963 148.05 113.065 148.477 113.065C149.032 113.065 149.496 112.937 149.869 112.681C150.242 112.425 150.514 112.078 150.685 111.641H152.013C151.8 112.377 151.389 112.99 150.781 113.481C150.184 113.961 149.416 114.201 148.477 114.201ZM148.477 107.017C147.837 107.017 147.266 107.214 146.765 107.609C146.274 107.993 145.992 108.558 145.917 109.305H150.909C150.877 108.59 150.632 108.03 150.173 107.625C149.714 107.219 149.149 107.017 148.477 107.017ZM157.618 114.201C156.829 114.201 156.136 114.019 155.538 113.657C154.952 113.294 154.493 112.798 154.162 112.169C153.842 111.539 153.682 110.825 153.682 110.025C153.682 109.225 153.848 108.515 154.178 107.897C154.509 107.267 154.968 106.777 155.554 106.425C156.141 106.062 156.834 105.881 157.634 105.881C158.285 105.881 158.861 106.014 159.362 106.281C159.864 106.547 160.253 106.921 160.53 107.401V102.489H161.874V114.009H160.658L160.53 112.697C160.274 113.081 159.906 113.427 159.426 113.737C158.946 114.046 158.344 114.201 157.618 114.201ZM157.762 113.033C158.296 113.033 158.765 112.91 159.17 112.665C159.586 112.409 159.906 112.057 160.13 111.609C160.365 111.161 160.482 110.638 160.482 110.041C160.482 109.443 160.365 108.921 160.13 108.473C159.906 108.025 159.586 107.678 159.17 107.433C158.765 107.177 158.296 107.049 157.762 107.049C157.24 107.049 156.77 107.177 156.354 107.433C155.949 107.678 155.629 108.025 155.394 108.473C155.17 108.921 155.058 109.443 155.058 110.041C155.058 110.638 155.17 111.161 155.394 111.609C155.629 112.057 155.949 112.409 156.354 112.665C156.77 112.91 157.24 113.033 157.762 113.033ZM168.3 114.009V106.073H169.516L169.628 107.593C169.873 107.07 170.246 106.654 170.748 106.345C171.249 106.035 171.868 105.881 172.604 105.881V107.289H172.236C171.766 107.289 171.334 107.374 170.94 107.545C170.545 107.705 170.23 107.982 169.996 108.377C169.761 108.771 169.644 109.315 169.644 110.009V114.009H168.3ZM177.383 114.201C176.626 114.201 175.954 114.03 175.367 113.689C174.781 113.337 174.317 112.851 173.975 112.233C173.645 111.614 173.479 110.883 173.479 110.041C173.479 109.209 173.645 108.483 173.975 107.865C174.306 107.235 174.765 106.75 175.351 106.409C175.949 106.057 176.637 105.881 177.415 105.881C178.183 105.881 178.845 106.057 179.399 106.409C179.965 106.75 180.397 107.203 180.695 107.769C180.994 108.334 181.143 108.942 181.143 109.593C181.143 109.71 181.138 109.827 181.127 109.945C181.127 110.062 181.127 110.195 181.127 110.345H174.807C174.839 110.953 174.978 111.459 175.223 111.865C175.479 112.259 175.794 112.558 176.167 112.761C176.551 112.963 176.957 113.065 177.383 113.065C177.938 113.065 178.402 112.937 178.775 112.681C179.149 112.425 179.421 112.078 179.591 111.641H180.919C180.706 112.377 180.295 112.99 179.687 113.481C179.09 113.961 178.322 114.201 177.383 114.201ZM177.383 107.017C176.743 107.017 176.173 107.214 175.671 107.609C175.181 107.993 174.898 108.558 174.823 109.305H179.815C179.783 108.59 179.538 108.03 179.079 107.625C178.621 107.219 178.055 107.017 177.383 107.017ZM186.573 114.201C185.815 114.201 185.133 114.03 184.525 113.689C183.927 113.337 183.453 112.851 183.101 112.233C182.759 111.603 182.589 110.873 182.589 110.041C182.589 109.209 182.759 108.483 183.101 107.865C183.453 107.235 183.927 106.75 184.525 106.409C185.133 106.057 185.815 105.881 186.573 105.881C187.511 105.881 188.301 106.126 188.941 106.617C189.591 107.107 190.002 107.763 190.173 108.585H188.797C188.69 108.094 188.429 107.715 188.013 107.449C187.597 107.171 187.111 107.033 186.557 107.033C186.109 107.033 185.687 107.145 185.293 107.369C184.898 107.593 184.578 107.929 184.333 108.377C184.087 108.825 183.965 109.379 183.965 110.041C183.965 110.702 184.087 111.257 184.333 111.705C184.578 112.153 184.898 112.494 185.293 112.729C185.687 112.953 186.109 113.065 186.557 113.065C187.111 113.065 187.597 112.931 188.013 112.665C188.429 112.387 188.69 111.998 188.797 111.497H190.173C190.013 112.297 189.607 112.947 188.957 113.449C188.306 113.95 187.511 114.201 186.573 114.201ZM192.866 104.313C192.599 104.313 192.375 104.227 192.194 104.057C192.023 103.875 191.938 103.651 191.938 103.385C191.938 103.129 192.023 102.915 192.194 102.745C192.375 102.574 192.599 102.489 192.866 102.489C193.122 102.489 193.34 102.574 193.522 102.745C193.703 102.915 193.794 103.129 193.794 103.385C193.794 103.651 193.703 103.875 193.522 104.057C193.34 104.227 193.122 104.313 192.866 104.313ZM192.194 114.009V106.073H193.538V114.009H192.194ZM195.878 117.529V106.073H197.094L197.222 107.385C197.478 107.001 197.84 106.654 198.31 106.345C198.79 106.035 199.398 105.881 200.134 105.881C200.923 105.881 201.611 106.062 202.198 106.425C202.784 106.787 203.238 107.283 203.558 107.913C203.888 108.542 204.054 109.257 204.054 110.057C204.054 110.857 203.888 111.571 203.558 112.201C203.238 112.819 202.779 113.31 202.182 113.673C201.595 114.025 200.907 114.201 200.118 114.201C199.467 114.201 198.886 114.067 198.374 113.801C197.872 113.534 197.488 113.161 197.222 112.681V117.529H195.878ZM199.974 113.033C200.507 113.033 200.976 112.91 201.382 112.665C201.787 112.409 202.107 112.057 202.342 111.609C202.576 111.161 202.694 110.638 202.694 110.041C202.694 109.443 202.576 108.921 202.342 108.473C202.107 108.025 201.787 107.678 201.382 107.433C200.976 107.177 200.507 107.049 199.974 107.049C199.44 107.049 198.971 107.177 198.566 107.433C198.16 107.678 197.84 108.025 197.606 108.473C197.371 108.921 197.254 109.443 197.254 110.041C197.254 110.638 197.371 111.161 197.606 111.609C197.84 112.057 198.16 112.409 198.566 112.665C198.971 112.91 199.44 113.033 199.974 113.033ZM209.493 114.201C208.735 114.201 208.063 114.03 207.477 113.689C206.89 113.337 206.426 112.851 206.085 112.233C205.754 111.614 205.589 110.883 205.589 110.041C205.589 109.209 205.754 108.483 206.085 107.865C206.415 107.235 206.874 106.75 207.461 106.409C208.058 106.057 208.746 105.881 209.525 105.881C210.293 105.881 210.954 106.057 211.509 106.409C212.074 106.75 212.506 107.203 212.805 107.769C213.103 108.334 213.253 108.942 213.253 109.593C213.253 109.71 213.247 109.827 213.237 109.945C213.237 110.062 213.237 110.195 213.237 110.345H206.917C206.949 110.953 207.087 111.459 207.333 111.865C207.589 112.259 207.903 112.558 208.277 112.761C208.661 112.963 209.066 113.065 209.493 113.065C210.047 113.065 210.511 112.937 210.885 112.681C211.258 112.425 211.53 112.078 211.701 111.641H213.029C212.815 112.377 212.405 112.99 211.797 113.481C211.199 113.961 210.431 114.201 209.493 114.201ZM209.493 107.017C208.853 107.017 208.282 107.214 207.781 107.609C207.29 107.993 207.007 108.558 206.933 109.305H211.925C211.893 108.59 211.647 108.03 211.189 107.625C210.73 107.219 210.165 107.017 209.493 107.017ZM218.074 114.201C217.125 114.201 216.335 113.961 215.706 113.481C215.077 113.001 214.709 112.35 214.602 111.529H215.978C216.063 111.945 216.282 112.307 216.634 112.617C216.997 112.915 217.482 113.065 218.09 113.065C218.655 113.065 219.071 112.947 219.338 112.713C219.605 112.467 219.738 112.179 219.738 111.849C219.738 111.369 219.562 111.049 219.21 110.889C218.869 110.729 218.383 110.585 217.754 110.457C217.327 110.371 216.901 110.249 216.474 110.089C216.047 109.929 215.69 109.705 215.402 109.417C215.114 109.118 214.97 108.729 214.97 108.249C214.97 107.555 215.226 106.99 215.738 106.553C216.261 106.105 216.965 105.881 217.85 105.881C218.693 105.881 219.381 106.094 219.914 106.521C220.458 106.937 220.773 107.534 220.858 108.313H219.53C219.477 107.907 219.301 107.593 219.002 107.369C218.714 107.134 218.325 107.017 217.834 107.017C217.354 107.017 216.981 107.118 216.714 107.321C216.458 107.523 216.33 107.79 216.33 108.121C216.33 108.441 216.495 108.691 216.826 108.873C217.167 109.054 217.626 109.209 218.202 109.337C218.693 109.443 219.157 109.577 219.594 109.737C220.042 109.886 220.405 110.115 220.682 110.425C220.97 110.723 221.114 111.161 221.114 111.737C221.125 112.451 220.853 113.043 220.298 113.513C219.754 113.971 219.013 114.201 218.074 114.201ZM223.498 114.089C223.231 114.089 223.007 114.003 222.826 113.833C222.655 113.651 222.57 113.433 222.57 113.177C222.57 112.921 222.655 112.707 222.826 112.537C223.007 112.355 223.231 112.265 223.498 112.265C223.754 112.265 223.967 112.355 224.138 112.537C224.319 112.707 224.41 112.921 224.41 113.177C224.41 113.433 224.319 113.651 224.138 113.833C223.967 114.003 223.754 114.089 223.498 114.089Z" fill="black"/>
<g opacity="0.428172" filter="url(#filter1_f_17_2991)">
<path fill-rule="evenodd" clip-rule="evenodd" d="M147.01 63.5371C132.101 63.5371 120 51.5448 120 36.7686C120 21.9923 132.101 10 147.01 10C161.92 10 174.021 21.9923 174.021 36.7686C174.021 51.5448 161.92 63.5371 147.01 63.5371Z" fill="black"/>
</g>
<path fill-rule="evenodd" clip-rule="evenodd" d="M147.01 63.5371C132.101 63.5371 120 51.5448 120 36.7686C120 21.9923 132.101 10 147.01 10C161.92 10 174.021 21.9923 174.021 36.7686C174.021 51.5448 161.92 63.5371 147.01 63.5371Z" fill="#BADA00"/>
<path fill-rule="evenodd" clip-rule="evenodd" d="M159.846 23.7023C157.672 23.7023 155.904 25.9755 155.904 28.7703C155.904 30.7344 156.796 32.5211 158.157 33.3489V49.0422C158.157 49.9736 158.915 50.7316 159.846 50.7316C160.778 50.7316 161.536 49.9736 161.536 49.0422V33.3489C162.896 32.5211 163.788 30.7344 163.788 28.7703C163.788 25.9755 162.02 23.7023 159.846 23.7023ZM160.732 32.5042C160.535 32.5972 160.409 32.7954 160.409 33.0133V49.0422C160.409 49.3531 160.156 49.6053 159.846 49.6053C159.536 49.6053 159.283 49.3531 159.283 49.0422V33.0133C159.283 32.7954 159.157 32.5972 158.96 32.5042C157.806 31.9592 157.031 30.4585 157.031 28.7703C157.031 26.5972 158.294 24.8285 159.846 24.8285C161.399 24.8285 162.662 26.5972 162.662 28.7703C162.662 30.4585 161.886 31.9592 160.732 32.5042Z" fill="#404B00"/>
<path fill-rule="evenodd" clip-rule="evenodd" d="M136.195 23.7023C135.762 23.7023 135.367 23.8656 135.068 24.1336C134.769 23.8656 134.375 23.7023 133.942 23.7023C133.51 23.7023 133.115 23.8656 132.816 24.1336C132.517 23.8656 132.122 23.7023 131.69 23.7023C130.758 23.7023 130 24.4602 130 25.3916V31.0227C130 31.9541 130.758 32.712 131.69 32.712H132.253V49.0422C132.253 49.9736 133.011 50.7316 133.942 50.7316C134.874 50.7316 135.632 49.9736 135.632 49.0422V32.712H136.195C137.126 32.712 137.884 31.9541 137.884 31.0227V25.3916C137.884 24.4602 137.126 23.7023 136.195 23.7023ZM136.758 31.0227C136.758 31.3335 136.505 31.5858 136.195 31.5858H135.068C134.758 31.5858 134.505 31.8375 134.505 32.1489V49.0422C134.505 49.3531 134.252 49.6053 133.942 49.6053C133.632 49.6053 133.379 49.3531 133.379 49.0422V32.1489C133.379 31.8375 133.127 31.5858 132.816 31.5858H131.69C131.379 31.5858 131.127 31.3335 131.127 31.0227V25.3916C131.127 25.0808 131.379 24.8285 131.69 24.8285C132 24.8285 132.253 25.0808 132.253 25.3916V28.7703C132.253 29.0817 132.505 29.3334 132.816 29.3334C133.127 29.3334 133.379 29.0817 133.379 28.7703V25.3916C133.379 25.0808 133.632 24.8285 133.942 24.8285C134.252 24.8285 134.505 25.0808 134.505 25.3916V28.7703C134.505 29.0817 134.758 29.3334 135.068 29.3334C135.379 29.3334 135.632 29.0817 135.632 28.7703V25.3916C135.632 25.0808 135.884 24.8285 136.195 24.8285C136.505 24.8285 136.758 25.0808 136.758 25.3916V31.0227Z" fill="#404B00"/>
<path fill-rule="evenodd" clip-rule="evenodd" d="M154.245 41.192C154.087 41.1757 150.356 40.8023 148.212 42.9466C147.913 43.2457 147.667 43.5779 147.458 43.9248V40.5923C147.55 40.5951 147.652 40.5968 147.763 40.5968C149.012 40.5968 151.423 40.3732 152.99 38.8067C155.135 36.6612 154.762 32.9312 154.744 32.7741C154.716 32.5105 154.508 32.3022 154.245 32.274C154.087 32.2577 150.357 31.8838 148.212 34.0281C147.913 34.3277 147.667 34.6594 147.458 35.0062V33.5314C148.144 32.9188 150.274 30.8077 150.274 28.2061C150.274 25.1726 147.372 22.7991 147.248 22.7C147.042 22.5339 146.747 22.5339 146.541 22.7C146.417 22.8003 143.515 25.1738 143.515 28.2072C143.515 30.8088 145.645 32.9199 146.331 33.5326V35.0074C146.122 34.6605 145.876 34.3282 145.577 34.0292C143.432 31.8838 139.701 32.2583 139.544 32.2751C139.281 32.3033 139.073 32.5117 139.045 32.7752C139.028 32.9323 138.654 36.6623 140.799 38.8078C142.365 40.3744 144.777 40.5979 146.026 40.5979C146.138 40.5979 146.239 40.5962 146.331 40.5934V43.9259C146.122 43.579 145.876 43.2473 145.577 42.9478C143.432 40.8023 139.702 41.1768 139.544 41.1931C139.281 41.2213 139.073 41.4296 139.045 41.6932C139.028 41.8503 138.654 45.5803 140.799 47.7263C142.365 49.2923 144.776 49.5159 146.025 49.5159C146.137 49.5159 146.239 49.5142 146.332 49.5114V51.8579H147.458V49.5097C147.55 49.5125 147.652 49.5142 147.765 49.5142C149.013 49.5148 151.424 49.2906 152.99 47.7252C155.135 45.5792 154.762 41.8491 154.744 41.692C154.716 41.4285 154.508 41.2201 154.245 41.192ZM149.008 34.8255C150.369 33.4644 152.662 33.3524 153.65 33.3704C153.671 34.357 153.559 36.6449 152.194 38.011C150.833 39.3715 148.536 39.4807 147.552 39.4666C147.53 38.4801 147.642 36.1916 149.008 34.8255ZM146.236 39.4666C145.247 39.4835 142.956 39.3715 141.595 38.011C140.233 36.65 140.12 34.357 140.14 33.3698C141.122 33.3451 143.415 33.4594 144.781 34.8255C146.141 36.1865 146.256 38.4784 146.236 39.4666ZM146.236 48.3846C145.248 48.4099 142.961 48.2945 141.595 46.929C140.233 45.5679 140.12 43.2744 140.14 42.2872C141.123 42.263 143.415 42.3773 144.781 43.7434C146.142 45.1045 146.256 47.3975 146.236 48.3846ZM147.256 32.149H146.532C145.76 31.3246 144.642 29.8481 144.642 28.2072C144.642 26.2831 146.181 24.5819 146.894 23.8972C147.607 24.5819 149.147 26.2831 149.147 28.2072C149.147 29.8481 148.028 31.3246 147.256 32.149ZM152.194 46.929C150.833 48.29 148.539 48.3992 147.552 48.384C147.53 47.3975 147.642 45.1096 149.008 43.7434C150.368 42.383 152.664 42.2709 153.648 42.2878C153.669 43.2761 153.554 45.5685 152.194 46.929Z" fill="#404B00"/>
<path fill-rule="evenodd" clip-rule="evenodd" d="M138.778 22.401C138.448 22.5823 138.121 22.7766 137.806 22.9782L138.415 23.9265C138.71 23.7373 139.011 23.5576 139.32 23.3887L138.778 22.401Z" fill="#404B00"/>
<path fill-rule="evenodd" clip-rule="evenodd" d="M146.334 20.3333L146.372 21.4584C146.722 21.4466 147.076 21.4477 147.426 21.4589L147.464 20.3339C147.088 20.3209 146.71 20.3203 146.334 20.3333Z" fill="#404B00"/>
<path fill-rule="evenodd" clip-rule="evenodd" d="M145.208 20.407C144.835 20.4441 144.458 20.4943 144.088 20.5568L144.275 21.6678C144.619 21.6098 144.968 21.563 145.32 21.5281L145.208 20.407Z" fill="#404B00"/>
<path fill-rule="evenodd" clip-rule="evenodd" d="M148.59 20.4082L148.479 21.5288C148.831 21.5637 149.179 21.611 149.523 21.6684L149.71 20.558C149.34 20.496 148.963 20.4459 148.59 20.4082Z" fill="#404B00"/>
<path fill-rule="evenodd" clip-rule="evenodd" d="M142.981 20.781C142.617 20.8672 142.251 20.968 141.891 21.0789L142.225 22.1544C142.559 22.0508 142.898 21.9579 143.242 21.8763L142.981 20.781Z" fill="#404B00"/>
<path fill-rule="evenodd" clip-rule="evenodd" d="M150.816 20.7827L150.555 21.878C150.898 21.9602 151.236 22.0531 151.571 22.1567L151.906 21.0812C151.55 20.9708 151.184 20.8706 150.816 20.7827Z" fill="#404B00"/>
<path fill-rule="evenodd" clip-rule="evenodd" d="M140.825 21.4498C140.474 21.5844 140.125 21.7331 139.785 21.8907L140.26 22.9122C140.578 22.7647 140.901 22.6273 141.23 22.5L140.825 21.4498Z" fill="#404B00"/>
<path fill-rule="evenodd" clip-rule="evenodd" d="M155.019 22.4065L154.475 23.3925C154.784 23.5626 155.086 23.7422 155.382 23.9314L155.989 22.9826C155.672 22.7804 155.349 22.5884 155.019 22.4065Z" fill="#404B00"/>
<path fill-rule="evenodd" clip-rule="evenodd" d="M152.972 21.4532L152.566 22.5034C152.894 22.6307 153.218 22.7681 153.535 22.9156L154.012 21.8953C153.674 21.7376 153.324 21.589 152.972 21.4532Z" fill="#404B00"/>
<path fill-rule="evenodd" clip-rule="evenodd" d="M140.253 51.5183L139.777 52.5387C140.115 52.6963 140.464 52.845 140.816 52.9807L141.222 51.9305C140.894 51.8032 140.571 51.6658 140.253 51.5183Z" fill="#404B00"/>
<path fill-rule="evenodd" clip-rule="evenodd" d="M149.513 52.7656C149.169 52.8242 148.82 52.8709 148.468 52.9058L148.58 54.0264C148.953 53.9893 149.33 53.9391 149.7 53.8766L149.513 52.7656Z" fill="#404B00"/>
<path fill-rule="evenodd" clip-rule="evenodd" d="M138.407 50.502L137.8 51.4514C138.116 51.6535 138.439 51.8455 138.769 52.0274L139.313 51.0408C139.005 50.8708 138.702 50.6912 138.407 50.502Z" fill="#404B00"/>
<path fill-rule="evenodd" clip-rule="evenodd" d="M142.218 52.2769L141.883 53.3524C142.239 53.4628 142.605 53.5636 142.973 53.6508L143.234 52.5556C142.891 52.4734 142.552 52.3805 142.218 52.2769Z" fill="#404B00"/>
<path fill-rule="evenodd" clip-rule="evenodd" d="M147.416 52.9757C147.066 52.9869 146.712 52.9864 146.361 52.9751L146.324 54.1002C146.514 54.1069 146.704 54.1103 146.894 54.1103C147.082 54.1103 147.268 54.1075 147.454 54.1008L147.416 52.9757Z" fill="#404B00"/>
<path fill-rule="evenodd" clip-rule="evenodd" d="M155.374 50.5076C155.079 50.6968 154.777 50.8764 154.468 51.0453L155.011 52.033C155.34 51.8517 155.667 51.6574 155.982 51.4558L155.374 50.5076Z" fill="#404B00"/>
<path fill-rule="evenodd" clip-rule="evenodd" d="M144.265 52.7656L144.079 53.8761C144.448 53.938 144.825 53.9881 145.197 54.0259L145.309 52.9053C144.957 52.8704 144.609 52.8231 144.265 52.7656Z" fill="#404B00"/>
<path fill-rule="evenodd" clip-rule="evenodd" d="M151.564 52.2797C151.229 52.3833 150.89 52.4762 150.547 52.5578L150.807 53.6531C151.171 53.5669 151.538 53.4661 151.897 53.3552L151.564 52.2797Z" fill="#404B00"/>
<path fill-rule="evenodd" clip-rule="evenodd" d="M153.528 51.5217C153.211 51.6693 152.888 51.8067 152.559 51.9339L152.964 52.9841C153.314 52.8495 153.664 52.7009 154.003 52.5432L153.528 51.5217Z" fill="#404B00"/>
<defs>
<filter id="filter0_f_17_2991" x="0.99124" y="44.991" width="279.018" height="123.018" filterUnits="userSpaceOnUse" color-interpolation-filters="sRGB">
<feFlood flood-opacity="0" result="BackgroundImageFix"/>
<feBlend mode="normal" in="SourceGraphic" in2="BackgroundImageFix" result="shape"/>
<feGaussianBlur stdDeviation="7.5045" result="effect1_foregroundBlur_17_2991"/>
</filter>
<filter id="filter1_f_17_2991" x="110.743" y="0.743166" width="72.534" height="72.0508" filterUnits="userSpaceOnUse" color-interpolation-filters="sRGB">
<feFlood flood-opacity="0" result="BackgroundImageFix"/>
<feBlend mode="normal" in="SourceGraphic" in2="BackgroundImageFix" result="shape"/>
<feGaussianBlur stdDeviation="4.62842" result="effect1_foregroundBlur_17_2991"/>
</filter>
</defs>
</svg>
