<svg width="138" height="90" viewBox="0 0 138 90" fill="none" xmlns="http://www.w3.org/2000/svg">
<g filter="url(#filter0_d_17_2751)">
<path fill-rule="evenodd" clip-rule="evenodd" d="M69.1159 76.4487C58.2335 76.4487 48.2463 74.8275 40.4237 72.1251C41.5492 76.6034 43.6636 79.9903 46.2707 81.0742C52.1549 83.5207 60.219 85.0295 69.1159 85.0295C78.0128 85.0295 86.0768 83.5207 91.9611 81.0742C94.5682 79.9903 96.6826 76.6034 97.8081 72.1251C89.9854 74.8275 79.9982 76.4487 69.1159 76.4487Z" fill="url(#paint0_linear_17_2751)"/>
<path fill-rule="evenodd" clip-rule="evenodd" d="M135.03 34.1509C135.03 15.7197 3.20139 15.7197 3.20139 34.1509C3.20139 52.5821 18.6918 79.6095 69.1158 79.6095C119.54 79.6095 135.03 52.5824 135.03 34.1509Z" fill="url(#paint1_linear_17_2751)"/>
<path fill-rule="evenodd" clip-rule="evenodd" d="M135.03 34.1509C135.03 52.5821 3.20139 52.5821 3.20139 34.1509C3.20139 15.7197 135.03 15.7197 135.03 34.1509Z" fill="url(#paint2_linear_17_2751)"/>
<path fill-rule="evenodd" clip-rule="evenodd" d="M116.678 20.7947C116.678 40.4858 25.0733 40.4858 25.0733 20.7947C25.0733 17.3995 27.7981 14.5905 32.3058 12.3663C33.9433 11.5583 35.4537 10.2469 36.7164 8.46841L36.8519 8.27779C39.5975 4.41087 43.5728 3.32569 47.0322 5.49866L47.0347 5.50022C49.99 7.3567 53.3594 6.85741 56.0229 4.16851L56.2762 3.91262C59.2134 0.947546 62.9904 0.704401 66.0819 3.28096L66.3182 3.47782C69.1577 5.84426 72.5956 5.84478 75.4353 3.47886L75.6731 3.2807C78.7652 0.704661 82.5422 0.948847 85.4794 3.91444L85.7868 4.22468C88.4355 6.89902 91.7896 7.37777 94.7196 5.49996C98.1536 3.2989 102.118 4.35912 104.851 8.2094L105.035 8.46841C106.298 10.2469 107.808 11.5586 109.445 12.3663C113.953 14.5905 116.678 17.3998 116.678 20.7947Z" fill="url(#paint3_linear_17_2751)"/>
<path fill-rule="evenodd" clip-rule="evenodd" d="M102.335 13.8575C99.696 13.8575 97.5568 16.0097 97.5568 18.6648C97.5568 21.3199 99.696 23.4721 102.335 23.4721C104.974 23.4721 107.114 21.3199 107.114 18.6648C107.114 16.0097 104.974 13.8575 102.335 13.8575ZM102.335 20.7054C101.215 20.7054 100.307 19.7919 100.307 18.6648C100.307 17.5378 101.215 16.6242 102.335 16.6242C103.455 16.6242 104.364 17.5378 104.364 18.6648C104.364 19.7919 103.455 20.7054 102.335 20.7054Z" fill="url(#paint4_linear_17_2751)"/>
<path fill-rule="evenodd" clip-rule="evenodd" d="M65.5464 4.62891C62.9073 4.62891 60.768 6.78107 60.768 9.43616C60.768 12.0913 62.9073 14.2434 65.5464 14.2434C68.1853 14.2434 70.3248 12.0913 70.3248 9.43616C70.3248 6.78107 68.1856 4.62891 65.5464 4.62891ZM65.5464 11.4765C64.4261 11.4765 63.5181 10.563 63.5181 9.4359C63.5181 8.30885 64.4261 7.3953 65.5464 7.3953C66.6667 7.3953 67.5748 8.30885 67.5748 9.4359C67.5748 10.563 66.6667 11.4765 65.5464 11.4765Z" fill="url(#paint5_linear_17_2751)"/>
<path d="M93.4057 31.4248C98.3373 31.4248 102.335 27.4028 102.335 22.4414C102.335 17.48 98.3373 13.458 93.4057 13.458C88.4741 13.458 84.4762 17.48 84.4762 22.4414C84.4762 27.4028 88.4741 31.4248 93.4057 31.4248Z" fill="url(#paint6_linear_17_2751)"/>
<path fill-rule="evenodd" clip-rule="evenodd" d="M90.8917 34.2298L63.4273 6.58485C61.7084 4.85553 59.665 4.17342 57.5185 3.40186C57.0817 3.70871 56.6846 3.50015 56.2762 3.91259L56.0229 4.16848C53.3592 6.85738 49.9898 7.35667 47.0348 5.50019L47.0322 5.49863C45.9395 4.81236 45.054 4.85111 43.9135 4.79988C42.9535 5.41541 42.0886 5.99506 41.2503 6.8384C35.0425 13.0837 34.7382 22.9565 40.9461 29.2021L44.9343 33.2143C58.3997 35.9586 76.3256 36.2975 90.8917 34.2298Z" fill="url(#paint7_linear_17_2751)"/>
<path fill-rule="evenodd" clip-rule="evenodd" d="M129.587 34.1507C129.587 47.7339 8.64462 47.7339 8.64462 34.1507C8.64462 20.5676 129.587 20.5679 129.587 34.1507Z" fill="url(#paint8_linear_17_2751)"/>
<path fill-rule="evenodd" clip-rule="evenodd" d="M4.85367 44.8296C5.69918 47.5791 6.89081 50.3663 8.47638 53.1056C31.1512 63.0606 107.08 63.0606 129.755 53.1056C131.341 50.3663 132.532 47.5791 133.378 44.8296C115.879 57.4516 22.3525 57.4516 4.85367 44.8296Z" fill="url(#paint9_linear_17_2751)"/>
<path fill-rule="evenodd" clip-rule="evenodd" d="M129.522 33.6215C129.395 34.5213 129.067 35.3951 128.56 36.2402C126.605 38.1503 121.969 39.7225 115.598 40.9567C112.124 41.63 108.134 40.9024 103.782 41.3744C99.8361 41.8024 95.5928 43.448 91.1669 43.7106C84.3728 44.1137 77.1486 44.3223 69.9094 44.3355C63.4989 44.3511 49.6698 41.8183 49.5405 40.5908C49.2071 37.4313 51.3138 34.5629 55.0334 32.0743C55.4444 31.8012 55.8425 31.4839 56.2199 31.1251C57.0858 30.3059 57.8613 29.2709 58.5075 28.0383L58.6057 27.8485C59.6061 25.9423 60.9347 24.6421 62.4158 24.018C63.6902 23.4823 65.0757 23.451 66.4612 23.9711C66.7171 24.0674 66.973 24.1818 67.2263 24.317L67.2289 24.3196C69.2735 25.3962 71.3931 25.248 73.1922 23.9841C73.8229 23.5421 74.4148 22.9596 74.9499 22.247L75.1464 21.9844C77.4237 18.9522 80.6987 18.3749 83.6506 20.4865L83.8755 20.6477C86.5871 22.5877 89.5907 22.2704 91.8395 19.8052L92.0282 19.5971C94.4761 16.9134 97.8003 16.7912 100.654 19.2799L100.954 19.5399C103.528 21.7841 106.504 21.9194 108.882 19.8988C110.006 18.9444 111.257 18.4737 112.532 18.4737C114.413 18.4737 116.347 19.4957 117.996 21.4825L118.179 21.7061C119.456 23.243 120.904 24.3248 122.414 24.9255C126.567 26.5768 129.222 28.9407 129.553 32.1003C129.607 32.6152 129.597 33.1249 129.522 33.6215Z" fill="url(#paint10_linear_17_2751)"/>
<path fill-rule="evenodd" clip-rule="evenodd" d="M63.4273 6.58475C57.2195 0.339425 47.1542 0.339425 40.9461 6.58475C34.738 12.8301 34.7382 22.9561 40.9461 29.2017C47.1539 35.447 57.2192 35.447 63.4273 29.2017C69.6354 22.9564 69.6354 12.8303 63.4273 6.58475ZM45.0488 25.0745C41.1071 21.109 41.1071 14.6777 45.0488 10.7122C48.9905 6.74676 55.3816 6.74832 59.3233 10.7138C63.265 14.6793 63.2665 21.109 59.3248 25.0745C55.3832 29.0399 48.9905 29.0399 45.0488 25.0745Z" fill="url(#paint11_linear_17_2751)"/>
<path fill-rule="evenodd" clip-rule="evenodd" d="M42.8366 27.3002C47.9999 32.4947 56.3737 32.4947 61.537 27.3002C66.7018 22.1042 66.7003 13.6815 61.537 8.48699C56.3721 3.29096 48.0015 3.29096 42.8366 8.48699C37.6733 13.6812 37.6718 22.1042 42.8366 27.3002ZM59.3248 10.7122C63.2665 14.6777 63.2665 21.109 59.3248 25.0744C55.3831 29.0399 48.992 29.0384 45.0503 25.0729C41.1087 21.1074 41.1071 14.6777 45.0488 10.7122C48.9905 6.74674 55.3831 6.74674 59.3248 10.7122Z" fill="url(#paint12_linear_17_2751)"/>
<path fill-rule="evenodd" clip-rule="evenodd" d="M124.163 14.0817C119.197 9.0862 111.147 9.0862 106.181 14.0817C101.215 19.0773 101.215 27.1767 106.181 32.1723C111.147 37.1678 119.197 37.1678 124.163 32.1723C129.129 27.1767 129.129 19.0773 124.163 14.0817ZM109.462 28.871C106.31 25.6991 106.31 20.5549 109.462 17.383C112.615 14.2112 117.727 14.2125 120.88 17.3843C124.033 20.5562 124.034 25.6991 120.881 28.871C117.729 32.0428 112.615 32.0428 109.462 28.871Z" fill="url(#paint13_linear_17_2751)"/>
<path fill-rule="evenodd" clip-rule="evenodd" d="M107.693 30.6511C111.823 34.8059 118.521 34.8059 122.651 30.6511C126.782 26.495 126.781 19.758 122.651 15.6032C118.52 11.4471 111.824 11.4471 107.693 15.6032C103.563 19.758 103.562 26.495 107.693 30.6511ZM120.881 17.3832C124.034 20.555 124.034 25.6993 120.881 28.8711C117.729 32.0429 112.617 32.0416 109.464 28.8698C106.311 25.698 106.31 20.555 109.462 17.3832C112.615 14.2114 117.729 14.2114 120.881 17.3832Z" fill="url(#paint14_linear_17_2751)"/>
<path fill-rule="evenodd" clip-rule="evenodd" d="M78.9581 9.43547C79.641 9.41337 80.1771 8.83866 80.1551 8.15135C80.1332 7.4643 79.5619 6.92496 78.8787 6.94707C78.1958 6.96917 77.6597 7.54388 77.6817 8.23119C77.7036 8.91823 78.2751 9.45758 78.9581 9.43547Z" fill="url(#paint15_linear_17_2751)"/>
<path fill-rule="evenodd" clip-rule="evenodd" d="M73.2124 11.7666C73.2021 11.4394 72.9301 11.1828 72.605 11.1934C72.2798 11.2038 72.0249 11.4774 72.0352 11.8046C72.0456 12.1317 72.3178 12.3881 72.6427 12.3777C72.9679 12.367 73.223 12.0935 73.2124 11.7666Z" fill="url(#paint16_linear_17_2751)"/>
<path fill-rule="evenodd" clip-rule="evenodd" d="M80.8303 11.4528C80.6767 11.1644 80.3198 11.0557 80.0331 11.2102C79.7464 11.3646 79.6384 11.7238 79.7919 12.0122C79.9455 12.3005 80.3024 12.4092 80.5891 12.2548C80.8758 12.1006 80.9838 11.7414 80.8303 11.4528Z" fill="url(#paint17_linear_17_2751)"/>
<path fill-rule="evenodd" clip-rule="evenodd" d="M85.5847 9.1564C85.4311 8.86801 85.0742 8.75931 84.7875 8.91378C84.5008 9.06825 84.3928 9.42737 84.5463 9.71577C84.6999 10.0042 85.0568 10.1129 85.3435 9.95839C85.6302 9.80392 85.7382 9.4448 85.5847 9.1564Z" fill="url(#paint18_linear_17_2751)"/>
<path fill-rule="evenodd" clip-rule="evenodd" d="M73.5386 13.4314C73.1966 13.0574 72.6183 13.0332 72.2466 13.3773C71.8749 13.7213 71.8509 14.3031 72.1929 14.677C72.5348 15.051 73.1131 15.0751 73.4848 14.7311C73.8565 14.387 73.8805 13.8051 73.5386 13.4314Z" fill="url(#paint19_linear_17_2751)"/>
<path fill-rule="evenodd" clip-rule="evenodd" d="M76.5334 9.44048C76.2636 9.14532 75.8068 9.12608 75.5134 9.39783C75.2201 9.66932 75.2009 10.1288 75.4711 10.424C75.7409 10.7191 76.1977 10.7384 76.491 10.4666C76.7842 10.1951 76.8033 9.73563 76.5334 9.44048Z" fill="url(#paint20_linear_17_2751)"/>
<path fill-rule="evenodd" clip-rule="evenodd" d="M82.9429 6.84368C82.673 6.54852 82.2163 6.52928 81.9229 6.80103C81.6295 7.07252 81.6104 7.53203 81.8805 7.82718C82.1504 8.12234 82.6071 8.14158 82.9005 7.86983C83.1936 7.59834 83.2128 7.13883 82.9429 6.84368Z" fill="url(#paint21_linear_17_2751)"/>
<path fill-rule="evenodd" clip-rule="evenodd" d="M77.541 11.3195C77.7036 11.4973 77.9792 11.509 78.156 11.3453C78.3328 11.1815 78.3444 10.9048 78.1816 10.727C78.0187 10.5492 77.7434 10.5375 77.5666 10.7013C77.3896 10.865 77.3782 11.1418 77.541 11.3195Z" fill="url(#paint22_linear_17_2751)"/>
<path fill-rule="evenodd" clip-rule="evenodd" d="M82.032 12.6886C76.7299 7.35446 68.1331 7.35446 62.831 12.6886C57.5289 18.0227 57.5289 26.6714 62.831 32.0055C68.1331 37.3396 76.7299 37.3396 82.032 32.0055C87.3341 26.6714 87.3341 18.0227 82.032 12.6886ZM66.3348 28.4803C62.9682 25.0934 62.9682 19.6004 66.3348 16.2135C69.7013 12.8267 75.1601 12.828 78.5266 16.2148C81.8932 19.6017 81.8945 25.0934 78.5279 28.4803C75.1614 31.8672 69.7013 31.8672 66.3348 28.4803Z" fill="url(#paint23_linear_17_2751)"/>
<path fill-rule="evenodd" clip-rule="evenodd" d="M64.4455 30.3809C68.8553 34.8173 76.0074 34.8173 80.4172 30.3809C84.8283 25.9432 84.827 18.7492 80.4172 14.3127C76.0059 9.87476 68.8566 9.87476 64.4455 14.3127C60.0357 18.7492 60.0342 25.9432 64.4455 30.3809ZM78.5279 16.2134C81.8945 19.6003 81.8945 25.0933 78.5279 28.4802C75.1614 31.8671 69.7026 31.8658 66.3361 28.4789C62.9695 25.092 62.9683 19.6003 66.3348 16.2134C69.7013 12.8266 75.1614 12.8266 78.5279 16.2134Z" fill="url(#paint24_linear_17_2751)"/>
<path fill-rule="evenodd" clip-rule="evenodd" d="M58.0632 32.3442C55.7138 40.8543 25.0809 32.2948 27.4305 23.7847C29.7802 15.2746 38.5419 10.2921 47.0009 12.6557C55.4599 15.0193 60.4128 23.8341 58.0632 32.3442Z" fill="url(#paint25_linear_17_2751)"/>
<path fill-rule="evenodd" clip-rule="evenodd" d="M113.693 10.5183C107.485 4.27302 97.42 4.27302 91.2119 10.5183C85.0038 16.7637 85.0041 26.8897 91.2119 33.1353C97.4198 39.3806 107.485 39.3806 113.693 33.1353C119.901 26.89 119.901 16.7637 113.693 10.5183ZM95.3146 29.0078C91.373 25.0423 91.373 18.6111 95.3146 14.6456C99.2563 10.6801 105.647 10.6817 109.589 14.6471C113.531 18.6126 113.532 25.0423 109.591 29.0078C105.649 32.9733 99.2563 32.9733 95.3146 29.0078Z" fill="url(#paint26_linear_17_2751)"/>
<path fill-rule="evenodd" clip-rule="evenodd" d="M93.1025 31.2332C98.2658 36.4277 106.64 36.4277 111.803 31.2332C116.968 26.0372 116.966 17.6144 111.803 12.42C106.638 7.22394 98.2674 7.22394 93.1025 12.42C87.9392 17.6144 87.9377 26.0372 93.1025 31.2332ZM109.591 14.6455C113.532 18.6109 113.532 25.0422 109.591 29.0077C105.649 32.9732 99.2579 32.9716 95.3162 29.0061C91.3745 25.0406 91.373 18.6109 95.3147 14.6455C99.2563 10.68 105.649 10.68 109.591 14.6455Z" fill="url(#paint27_linear_17_2751)"/>
<path fill-rule="evenodd" clip-rule="evenodd" d="M34.3446 14.5156C29.0458 9.18489 20.4544 9.18489 15.1557 14.5156C9.85695 19.8464 9.85695 28.4896 15.1557 33.8203C20.4544 39.1511 29.0458 39.1511 34.3446 33.8203C39.6433 28.4896 39.6433 19.8464 34.3446 14.5156ZM18.6574 30.2975C15.293 26.9127 15.293 21.4233 18.6574 18.0385C22.0219 14.6537 27.4771 14.655 30.8415 18.0398C34.206 21.4246 34.2073 26.9127 30.8428 30.2975C27.4783 33.6822 22.0217 33.6822 18.6574 30.2975Z" fill="url(#paint28_linear_17_2751)"/>
<path fill-rule="evenodd" clip-rule="evenodd" d="M16.7692 32.1973C21.1761 36.6309 28.3239 36.6309 32.7308 32.1973C37.1393 27.7622 37.1378 20.5729 32.7308 16.1393C28.3223 11.7042 21.1774 11.7042 16.7692 16.1393C12.3622 20.5729 12.3607 27.7622 16.7692 32.1973ZM30.8428 18.0387C34.2073 21.4235 34.2073 26.9129 30.8428 30.2977C27.4783 33.6825 22.0232 33.6812 18.6587 30.2964C15.2943 26.9116 15.293 21.4235 18.6574 18.0387C22.0219 14.6539 27.4783 14.6539 30.8428 18.0387Z" fill="url(#paint29_linear_17_2751)"/>
<path fill-rule="evenodd" clip-rule="evenodd" d="M129.522 33.6215C129.395 34.5213 129.067 35.3951 128.56 36.2402C126.603 38.1524 121.958 39.7259 115.577 40.9606C111.901 41.6721 107.648 40.7107 103.002 41.1973C99.277 41.5874 95.2986 43.4654 91.161 43.7109C84.3687 44.114 77.1466 44.322 69.9094 44.3355C63.4989 44.3511 49.6698 41.8183 49.5405 40.5908C49.2071 37.4313 51.3138 34.5629 55.0334 32.0743C55.4444 31.8012 55.8425 31.4839 56.2199 31.1251C57.0858 30.3059 57.8613 29.2709 58.5075 28.0383L58.6057 27.8485C59.6061 25.9423 60.9347 24.6421 62.4158 24.018C63.6902 23.4823 65.0757 23.451 66.4612 23.9711C66.7171 24.0674 66.973 24.1818 67.2263 24.317L67.2289 24.3196C69.2735 25.3962 71.3931 25.248 73.1922 23.9841C73.8229 23.5421 74.4148 22.9596 74.9499 22.247L75.1464 21.9844C77.4237 18.9522 80.6987 18.3749 83.6506 20.4865L83.8755 20.6477C86.5871 22.5877 89.5907 22.2704 91.8395 19.8052L92.0282 19.5971C94.4761 16.9134 97.8003 16.7912 100.654 19.2799L100.954 19.5399C103.528 21.7841 106.504 21.9194 108.882 19.8988C110.006 18.9444 111.257 18.4737 112.532 18.4737C114.413 18.4737 116.347 19.4957 117.996 21.4825L118.179 21.7061C119.456 23.243 120.904 24.3248 122.414 24.9255C126.567 26.5768 129.222 28.9407 129.553 32.1003C129.607 32.6152 129.597 33.1249 129.522 33.6215Z" fill="url(#paint30_linear_17_2751)"/>
<path fill-rule="evenodd" clip-rule="evenodd" d="M69.3164 44.0346C69.4219 44.168 69.4493 44.2029 69.5548 44.336C76.8994 44.329 84.2353 44.1212 91.1295 43.713C95.4439 43.4573 99.5854 42.0832 103.447 41.6705C107.921 41.1926 112.02 41.6495 115.579 40.9606C121.959 39.7259 126.604 38.1523 128.56 36.2405C129.067 35.3953 129.395 34.5215 129.522 33.6218C129.597 33.1251 129.607 32.6154 129.553 32.1005C129.541 31.9832 129.525 31.8672 129.506 31.7523C129.079 29.1167 126.832 27.2334 124.197 26.9138C122.965 26.7646 121.724 26.1831 120.564 25.1718L120.264 24.9117C117.41 22.423 114.086 22.5453 111.638 25.229L111.449 25.437C109.2 27.9023 106.197 28.2195 103.485 26.2796L103.26 26.1183C100.308 24.0067 97.0333 24.584 94.7561 27.6162L94.5596 27.8789C94.0245 28.5914 93.4326 29.1739 92.8019 29.616C91.0028 30.8798 88.8832 31.028 86.8386 29.9514L86.836 29.9488C86.5827 29.8136 86.3268 29.6992 86.0709 29.603C84.6854 29.0829 83.2999 29.1141 82.0255 29.6498C80.5444 30.2739 79.2158 31.5741 78.2154 33.4803L78.1172 33.6701C77.471 34.9028 76.6955 35.9378 75.8296 36.7569C75.4522 37.1158 75.0541 37.433 74.6431 37.7061C71.8021 39.6068 69.9063 41.7298 69.3164 44.0346Z" fill="url(#paint31_linear_17_2751)"/>
<path fill-rule="evenodd" clip-rule="evenodd" d="M105.835 42.0948C101.233 42.6508 96.6143 43.0305 91.1406 43.7113C84.3545 44.1133 77.1396 44.3211 69.9094 44.3357C63.4989 44.3513 49.6698 41.8184 49.5405 40.591C49.2071 37.4314 51.3138 34.563 55.0334 32.0744C55.4444 31.8013 55.8425 31.4841 56.2199 31.1252C57.0858 30.306 57.8613 29.2711 58.5075 28.0384L58.6057 27.8486C59.6061 25.9424 60.9347 24.6422 62.4158 24.0181C63.6902 23.4824 65.0757 23.4512 66.4612 23.9713C66.7171 24.0675 66.973 24.1819 67.2263 24.3171L67.2289 24.3197C69.2735 25.3963 71.3931 25.2481 73.1922 23.9843C73.8229 23.5422 74.4148 22.9597 74.9499 22.2471L75.1464 21.9845C77.4236 18.9523 80.6987 18.375 83.6506 20.4866L83.8755 20.6478C84.3511 20.9885 84.8345 21.259 85.323 21.4592L105.835 42.0948Z" fill="url(#paint32_linear_17_2751)"/>
<path fill-rule="evenodd" clip-rule="evenodd" d="M85.719 28.5203C83.0799 28.5203 80.9406 30.6724 80.9406 33.3275C80.9406 35.9826 83.0799 38.1348 85.719 38.1348C88.3579 38.1348 90.4974 35.9826 90.4974 33.3275C90.4974 30.6724 88.3582 28.5203 85.719 28.5203ZM85.719 35.3681C84.5987 35.3681 83.6907 34.4546 83.6907 33.3275C83.6907 32.2005 84.5987 31.2869 85.719 31.2869C86.8393 31.2869 87.7474 32.2005 87.7474 33.3275C87.7474 34.4546 86.8393 35.3681 85.719 35.3681Z" fill="url(#paint33_linear_17_2751)"/>
<path fill-rule="evenodd" clip-rule="evenodd" d="M110.92 30.3219C108.281 30.3219 106.142 32.4741 106.142 35.1292C106.142 37.7843 108.281 39.9364 110.92 39.9364C113.559 39.9364 115.699 37.7843 115.699 35.1292C115.699 32.4741 113.559 30.3219 110.92 30.3219ZM110.92 37.1698C109.8 37.1698 108.892 36.2562 108.892 35.1292C108.892 34.0021 109.8 33.0886 110.92 33.0886C112.04 33.0886 112.948 34.0021 112.948 35.1292C112.948 36.2562 112.04 37.1698 110.92 37.1698Z" fill="url(#paint34_linear_17_2751)"/>
<path fill-rule="evenodd" clip-rule="evenodd" d="M84.5494 17.2739C84.9829 17.0411 85.1467 16.4989 84.9154 16.0628C84.684 15.6267 84.1451 15.4618 83.7116 15.6946C83.2781 15.9273 83.1142 16.4695 83.3456 16.9056C83.5769 17.3417 84.1159 17.5066 84.5494 17.2739Z" fill="url(#paint35_linear_17_2751)"/>
<path fill-rule="evenodd" clip-rule="evenodd" d="M81.9262 15.9311C81.7435 15.5868 81.318 15.4566 80.9758 15.6404C80.6335 15.8243 80.504 16.2523 80.6868 16.5966C80.8695 16.9409 81.295 17.0712 81.6372 16.8873C81.9795 16.7035 82.1087 16.2755 81.9262 15.9311Z" fill="url(#paint36_linear_17_2751)"/>
<path fill-rule="evenodd" clip-rule="evenodd" d="M80.5203 19.4209C80.4102 19.2135 80.1538 19.1351 79.9472 19.2458C79.7407 19.3565 79.6629 19.6143 79.773 19.8219C79.8831 20.0296 80.1396 20.1078 80.3461 19.9971C80.5524 19.8861 80.6304 19.6283 80.5203 19.4209Z" fill="url(#paint37_linear_17_2751)"/>
<path fill-rule="evenodd" clip-rule="evenodd" d="M84.9035 23.81C84.5039 23.5223 83.9481 23.6152 83.6622 24.0172C83.3763 24.4193 83.4686 24.9784 83.8682 25.266C84.2679 25.5536 84.8236 25.4608 85.1095 25.0587C85.3954 24.6567 85.3031 24.0976 84.9035 23.81Z" fill="url(#paint38_linear_17_2751)"/>
<path fill-rule="evenodd" clip-rule="evenodd" d="M92.2596 21.1603C91.9439 20.9333 91.5053 21.0064 91.2796 21.3239C91.054 21.6414 91.1266 22.0827 91.4422 22.3097C91.7578 22.5367 92.1965 22.4637 92.4222 22.1462C92.6478 21.8286 92.5749 21.3873 92.2596 21.1603Z" fill="url(#paint39_linear_17_2751)"/>
<path fill-rule="evenodd" clip-rule="evenodd" d="M86.6979 17.715C86.5077 17.578 86.2432 17.6222 86.107 17.8135C85.9711 18.0048 86.0147 18.2706 86.205 18.4076C86.3952 18.5443 86.6597 18.5004 86.7959 18.3091C86.9321 18.1178 86.8882 17.8519 86.6979 17.715Z" fill="url(#paint40_linear_17_2751)"/>
<path fill-rule="evenodd" clip-rule="evenodd" d="M83.501 19.9738C83.1623 19.842 82.7816 20.0115 82.6505 20.3522C82.5195 20.6928 82.688 21.0759 83.0266 21.2077C83.3653 21.3396 83.746 21.17 83.8771 20.8294C84.0081 20.4884 83.8396 20.1054 83.501 19.9738Z" fill="url(#paint41_linear_17_2751)"/>
<path fill-rule="evenodd" clip-rule="evenodd" d="M85.1369 18.8557C84.8696 18.7517 84.569 18.8856 84.4656 19.1543C84.3622 19.423 84.4954 19.7252 84.7626 19.8292C85.0299 19.9332 85.3305 19.7993 85.4339 19.5306C85.5373 19.2616 85.4042 18.9596 85.1369 18.8557Z" fill="url(#paint42_linear_17_2751)"/>
<path fill-rule="evenodd" clip-rule="evenodd" d="M82.8193 18.5168C82.9806 18.5794 83.1618 18.4988 83.2241 18.3367C83.2864 18.1745 83.2063 17.9923 83.045 17.9297C82.8837 17.8671 82.7025 17.9476 82.6402 18.1098C82.5779 18.272 82.6583 18.4541 82.8193 18.5168Z" fill="url(#paint43_linear_17_2751)"/>
<path fill-rule="evenodd" clip-rule="evenodd" d="M99.6991 24.3521C100.133 24.1194 100.296 23.5772 100.065 23.1411C99.8338 22.705 99.2948 22.5401 98.8613 22.7728C98.4279 23.0056 98.264 23.5478 98.4953 23.9839C98.7264 24.42 99.2656 24.5848 99.6991 24.3521Z" fill="url(#paint44_linear_17_2751)"/>
<path fill-rule="evenodd" clip-rule="evenodd" d="M91.8511 28.3159C91.6684 27.9716 91.2429 27.8413 90.9007 28.0252C90.5584 28.209 90.4289 28.6371 90.6117 28.9814C90.7944 29.3257 91.2199 29.456 91.5621 29.2721C91.9044 29.0883 92.0339 28.6602 91.8511 28.3159Z" fill="url(#paint45_linear_17_2751)"/>
<path fill-rule="evenodd" clip-rule="evenodd" d="M93.0888 24.4666C92.9787 24.2592 92.7223 24.1807 92.5157 24.2914C92.3095 24.4021 92.2314 24.6599 92.3415 24.8676C92.4516 25.075 92.708 25.1535 92.9146 25.0427C93.1209 24.932 93.1989 24.6742 93.0888 24.4666Z" fill="url(#paint46_linear_17_2751)"/>
<path fill-rule="evenodd" clip-rule="evenodd" d="M103.048 28.0775C102.648 27.7899 102.092 27.8828 101.806 28.2848C101.52 28.6868 101.613 29.2459 102.012 29.5336C102.412 29.8212 102.968 29.7283 103.254 29.3263C103.539 28.9243 103.447 28.3652 103.048 28.0775Z" fill="url(#paint47_linear_17_2751)"/>
<path fill-rule="evenodd" clip-rule="evenodd" d="M103.63 27.0314C103.855 26.7139 103.783 26.2726 103.467 26.0456C103.151 25.8185 102.713 25.8916 102.487 26.2091C102.262 26.5267 102.334 26.968 102.65 27.195C102.965 27.422 103.404 27.3487 103.63 27.0314Z" fill="url(#paint48_linear_17_2751)"/>
<path fill-rule="evenodd" clip-rule="evenodd" d="M101.848 24.793C101.657 24.6563 101.393 24.7002 101.257 24.8915C101.121 25.0828 101.164 25.3486 101.355 25.4856C101.545 25.6223 101.809 25.5784 101.946 25.3871C102.082 25.1958 102.038 24.93 101.848 24.793Z" fill="url(#paint49_linear_17_2751)"/>
<path fill-rule="evenodd" clip-rule="evenodd" d="M95.2316 27.7652C94.893 27.6333 94.5123 27.8029 94.3812 28.1436C94.2502 28.4842 94.4187 28.8673 94.7573 28.9991C95.0959 29.131 95.4767 28.9614 95.6077 28.6207C95.7388 28.2801 95.5703 27.897 95.2316 27.7652Z" fill="url(#paint50_linear_17_2751)"/>
<path fill-rule="evenodd" clip-rule="evenodd" d="M100.287 25.9342C100.019 25.8302 99.7188 25.9638 99.6154 26.2328C99.512 26.5015 99.6451 26.8038 99.9124 26.9077C100.18 27.0117 100.48 26.8778 100.584 26.6091C100.687 26.3404 100.554 26.0382 100.287 25.9342Z" fill="url(#paint51_linear_17_2751)"/>
<path fill-rule="evenodd" clip-rule="evenodd" d="M97.969 25.5951C98.1303 25.6578 98.3115 25.5772 98.3738 25.415C98.4361 25.2529 98.356 25.0707 98.1947 25.0081C98.0334 24.9454 97.8522 25.026 97.7899 25.1882C97.7276 25.3503 97.8077 25.5325 97.969 25.5951Z" fill="url(#paint52_linear_17_2751)"/>
<path fill-rule="evenodd" clip-rule="evenodd" d="M79.5192 40.0804C74.4947 45.1352 66.3583 45.1448 61.3457 40.1019C56.3331 35.0591 56.3429 26.8735 61.3672 21.8187C66.3914 16.7639 78.3615 12.8977 83.3741 17.9406C88.3867 22.9835 84.5437 35.0255 79.5192 40.0804Z" fill="url(#paint53_linear_17_2751)"/>
<path fill-rule="evenodd" clip-rule="evenodd" d="M60.8492 39.5719C65.38 43.5946 72.7293 43.0126 77.5814 38.131C82.3593 33.3242 86.4592 22.5946 82.9996 17.6802C82.8928 17.5284 82.761 17.3949 82.6126 17.2839C77.2387 13.2701 66.1531 17.0044 61.3675 21.8189C56.5151 26.7003 56.3412 34.5009 60.8492 39.5719Z" fill="url(#paint54_linear_17_2751)"/>
<path d="M67.9879 37.6201C71.9697 37.6201 75.1976 34.3727 75.1976 30.3668C75.1976 26.3609 71.9697 23.1135 67.9879 23.1135C64.006 23.1135 60.7781 26.3609 60.7781 30.3668C60.7781 34.3727 64.006 37.6201 67.9879 37.6201Z" fill="url(#paint55_linear_17_2751)"/>
<path fill-rule="evenodd" clip-rule="evenodd" d="M69.9094 44.3356C66.1176 44.345 62.322 44.2995 58.5819 44.2007C57.6591 44.1762 56.7399 42.3283 55.8246 42.2974C54.7359 42.2607 53.6533 44.0397 52.578 43.9937C52.0269 43.9703 51.4779 43.9456 50.9312 43.9196C28.7943 42.8638 10.24 39.829 8.74335 34.8127C8.6994 34.5214 8.67097 34.2275 8.65805 33.9363C8.60376 32.8753 8.74593 31.8143 9.10523 30.7637C10.2038 27.5521 12.9515 25.5315 16.7125 24.4809C18.0774 24.0987 19.5197 23.2119 20.9492 21.8258L21.1017 21.675C24.2061 18.6584 27.2382 18.5622 28.8666 21.4254V21.428C30.2599 23.875 32.6923 24.1897 35.3599 22.2679L35.6132 22.0859C38.5548 19.9665 41.181 20.6192 42.4295 23.7788L42.5252 24.0206C42.6466 24.3249 42.7811 24.6083 42.9258 24.8658C44.1665 27.0658 46.2758 27.5599 48.6746 26.1504L48.8995 26.0178C51.8178 24.3041 54.2864 25.4171 55.3074 28.9096L55.4134 29.2736C55.6227 29.9914 55.8942 30.6103 56.2198 31.1252C57.3184 32.8675 59.0296 33.411 61.0251 32.5684C61.6455 32.3058 62.2375 32.1784 62.7906 32.1784C64.9361 32.1784 66.5051 34.0949 66.9781 37.499L67.0195 37.785C67.2935 39.764 67.888 41.3555 68.7307 42.5023C69.1779 43.1082 69.5708 43.7219 69.9094 44.3356Z" fill="url(#paint56_linear_17_2751)"/>
<path fill-rule="evenodd" clip-rule="evenodd" d="M113.305 36.532C111.202 34.3208 108.036 33.2366 104.85 33.9489C100.502 34.9212 97.5976 38.9093 97.8225 43.2402C97.8246 43.2399 97.8266 43.2399 97.8287 43.2397C97.8716 43.236 104.032 41.9852 106.938 41.6164C109.955 41.2334 113.035 41.4516 115.566 40.9622C116.176 40.8441 116.77 40.7232 117.347 40.5989L113.305 36.532Z" fill="url(#paint57_linear_17_2751)"/>
<path fill-rule="evenodd" clip-rule="evenodd" d="M115.578 40.8161C114.5 35.9397 109.697 32.8651 104.85 33.949C100.502 34.9213 97.5976 38.9094 97.8225 43.2403C104.513 42.6877 110.592 41.9262 115.6 40.9557C115.593 40.9092 115.588 40.8629 115.578 40.8161Z" fill="url(#paint58_linear_17_2751)"/>
<path fill-rule="evenodd" clip-rule="evenodd" d="M103.04 42.1083C103.04 38.7399 100.326 36.0092 96.9778 36.0092C93.6293 36.0092 90.9152 38.7399 90.9152 42.1083C90.9152 42.6633 90.9904 43.2005 91.1282 43.7115C95.2816 43.4655 99.2687 43.1454 103.006 42.754C103.028 42.5416 103.04 42.3265 103.04 42.1083Z" fill="url(#paint59_linear_17_2751)"/>
<path fill-rule="evenodd" clip-rule="evenodd" d="M54.2151 35.8754C51.8473 33.4933 48.8946 32.3699 45.8724 31.8251C40.9701 30.9417 35.7934 32.1247 31.953 35.9882C30.2165 37.7352 28.7478 39.6729 27.9827 41.8573C28.1701 41.8848 28.3629 41.9108 28.5521 41.9379C28.5519 41.9384 28.5516 41.9389 28.5516 41.9394C35.0709 42.8694 42.756 43.5294 50.9312 43.9195C51.473 43.9452 52.0171 43.9696 52.5631 43.993C53.6544 44.0396 54.7535 42.7812 55.8588 42.8184C56.7604 42.8488 57.6661 44.1761 58.575 44.2C59.8995 44.2349 61.2307 44.2632 62.5666 44.2848L54.2151 35.8754Z" fill="url(#paint60_linear_17_2751)"/>
<path fill-rule="evenodd" clip-rule="evenodd" d="M30.2788 28.5203C27.6396 28.5203 25.5004 30.6724 25.5004 33.3275C25.5004 35.9826 27.6396 38.1348 30.2788 38.1348C32.9177 38.1348 35.0572 35.9826 35.0572 33.3275C35.0572 30.6724 32.9179 28.5203 30.2788 28.5203ZM30.2788 35.3681C29.1585 35.3681 28.2504 34.4546 28.2504 33.3275C28.2504 32.2005 29.1585 31.2869 30.2788 31.2869C31.3991 31.2869 32.3071 32.2005 32.3071 33.3275C32.3071 34.4546 31.3991 35.3681 30.2788 35.3681Z" fill="url(#paint61_linear_17_2751)"/>
<path fill-rule="evenodd" clip-rule="evenodd" d="M54.2151 35.8754C48.0072 29.6301 37.942 29.6301 31.7339 35.8754C29.9973 37.6224 28.7475 39.6731 27.9824 41.8573C29.8771 42.135 31.874 42.3896 33.9563 42.6208C34.4283 41.6768 35.0531 40.7906 35.8363 40.0026C39.778 36.0372 46.1691 36.0387 50.1108 40.0042C51.2631 41.1635 52.1448 42.2765 52.6236 43.7338C53.7059 43.7801 54.7266 44.0792 55.8224 44.1161C56.7413 44.147 57.6646 44.1748 58.5915 44.1993C58.019 41.15 56.5611 38.2356 54.2151 35.8754Z" fill="url(#paint62_linear_17_2751)"/>
<path fill-rule="evenodd" clip-rule="evenodd" d="M52.3247 37.7773C47.1599 32.5812 38.7893 32.5812 33.6244 37.7773C32.3193 39.0903 31.3451 40.61 30.6996 42.2314C31.7589 42.3679 32.8461 42.4977 33.9566 42.6209C34.4283 41.677 35.0533 40.7907 35.8365 40.0028C39.7782 36.0373 46.1709 36.0373 50.1126 40.0028C51.2652 41.1623 52.0781 42.5333 52.5566 43.9911C53.6448 44.0377 54.7393 44.0803 55.8415 44.1175C55.2966 41.794 54.1256 39.589 52.3247 37.7773Z" fill="url(#paint63_linear_17_2751)"/>
<path fill-rule="evenodd" clip-rule="evenodd" d="M45.3928 16.3661C45.5616 15.9019 45.3246 15.3878 44.8629 15.2177C44.4015 15.0479 43.8905 15.2864 43.7215 15.7508C43.5527 16.215 43.7897 16.7291 44.2514 16.8989C44.713 17.069 45.2241 16.8305 45.3928 16.3661Z" fill="url(#paint64_linear_17_2751)"/>
<path fill-rule="evenodd" clip-rule="evenodd" d="M42.5479 17.125C42.1837 16.9908 41.7802 17.1794 41.6468 17.5458C41.5135 17.9122 41.7009 18.3181 42.0651 18.4523C42.4293 18.5865 42.8328 18.398 42.9662 18.0316C43.0995 17.6649 42.9121 17.259 42.5479 17.125Z" fill="url(#paint65_linear_17_2751)"/>
<path fill-rule="evenodd" clip-rule="evenodd" d="M43.813 20.6687C43.5932 20.5879 43.35 20.7015 43.2696 20.9224C43.1892 21.1433 43.3022 21.3878 43.5216 21.4687C43.7411 21.5495 43.9846 21.4359 44.065 21.2153C44.1454 20.9941 44.0324 20.7496 43.813 20.6687Z" fill="url(#paint66_linear_17_2751)"/>
<path fill-rule="evenodd" clip-rule="evenodd" d="M49.9882 21.0003C49.4997 21.0538 49.1469 21.4959 49.2004 21.9874C49.2536 22.4789 49.693 22.8339 50.1816 22.78C50.6701 22.7265 51.023 22.2844 50.9695 21.7929C50.916 21.3014 50.4768 20.9464 49.9882 21.0003Z" fill="url(#paint67_linear_17_2751)"/>
<path fill-rule="evenodd" clip-rule="evenodd" d="M53.7149 14.0912C53.3292 14.1335 53.0508 14.4823 53.093 14.8703C53.1351 15.2583 53.4817 15.5383 53.8674 15.4959C54.2531 15.4535 54.5314 15.1046 54.4893 14.7168C54.4472 14.3291 54.1005 14.0488 53.7149 14.0912Z" fill="url(#paint68_linear_17_2751)"/>
<path fill-rule="evenodd" clip-rule="evenodd" d="M47.2865 15.2538C47.0539 15.2792 46.8861 15.4895 46.9115 15.7234C46.9368 15.957 47.1459 16.1259 47.3786 16.1005C47.6109 16.075 47.779 15.8647 47.7536 15.6309C47.728 15.397 47.5189 15.2283 47.2865 15.2538Z" fill="url(#paint69_linear_17_2751)"/>
<path fill-rule="evenodd" clip-rule="evenodd" d="M46.4007 19.0815C46.061 19.2104 45.8894 19.5922 46.0179 19.9339C46.1461 20.2756 46.5255 20.4483 46.8652 20.3193C47.2048 20.1903 47.3765 19.8086 47.2483 19.4668C47.1201 19.1251 46.7403 18.9525 46.4007 19.0815Z" fill="url(#paint70_linear_17_2751)"/>
<path fill-rule="evenodd" clip-rule="evenodd" d="M46.8789 17.1508C46.6106 17.2526 46.4754 17.5536 46.5765 17.8233C46.6778 18.0931 46.9771 18.229 47.2455 18.1274C47.5138 18.0255 47.649 17.7246 47.5479 17.4548C47.4468 17.1851 47.1472 17.0491 46.8789 17.1508Z" fill="url(#paint71_linear_17_2751)"/>
<path fill-rule="evenodd" clip-rule="evenodd" d="M44.9273 18.4527C45.0891 18.3914 45.1705 18.2098 45.1095 18.0473C45.0485 17.8846 44.8678 17.8028 44.7063 17.8641C44.5445 17.9254 44.463 18.1071 44.524 18.2695C44.585 18.432 44.7655 18.5141 44.9273 18.4527Z" fill="url(#paint72_linear_17_2751)"/>
<path fill-rule="evenodd" clip-rule="evenodd" d="M61.3749 11.4802C61.5437 11.016 61.3067 10.5019 60.845 10.3318C60.3836 10.162 59.8726 10.4005 59.7035 10.8649C59.5347 11.3291 59.7718 11.8432 60.2334 12.0133C60.6951 12.1831 61.2061 11.9447 61.3749 11.4802Z" fill="url(#paint73_linear_17_2751)"/>
<path fill-rule="evenodd" clip-rule="evenodd" d="M58.1529 19.6984C57.7887 19.5642 57.3852 19.7527 57.2518 20.1192C57.1184 20.4856 57.3058 20.8915 57.67 21.0257C58.0342 21.1599 58.4377 20.9713 58.5711 20.6049C58.7042 20.2385 58.5171 19.8326 58.1529 19.6984Z" fill="url(#paint74_linear_17_2751)"/>
<path fill-rule="evenodd" clip-rule="evenodd" d="M56.5244 15.9997C56.3047 15.9189 56.0614 16.0324 55.981 16.2533C55.9007 16.4742 56.0136 16.7188 56.2331 16.7993C56.4528 16.8802 56.696 16.7666 56.7764 16.546C56.8568 16.3248 56.7438 16.0802 56.5244 15.9997Z" fill="url(#paint75_linear_17_2751)"/>
<path fill-rule="evenodd" clip-rule="evenodd" d="M66.3397 12.011C65.8512 12.0646 65.4983 12.5067 65.5518 12.9982C65.6051 13.4896 66.0445 13.8446 66.5331 13.7908C67.0216 13.7372 67.3744 13.2951 67.3209 12.8036C67.2674 12.3121 66.8283 11.9572 66.3397 12.011Z" fill="url(#paint76_linear_17_2751)"/>
<path fill-rule="evenodd" clip-rule="evenodd" d="M66.0799 10.8409C66.0378 10.4529 65.6909 10.1728 65.3055 10.2152C64.9198 10.2576 64.6414 10.6063 64.6835 10.9943C64.7257 11.3823 65.0723 11.6623 65.458 11.62C65.8436 11.5778 66.122 11.2288 66.0799 10.8409Z" fill="url(#paint77_linear_17_2751)"/>
<path fill-rule="evenodd" clip-rule="evenodd" d="M63.2686 10.3681C63.0362 10.3936 62.8682 10.6039 62.8935 10.8378C62.9189 11.0714 63.128 11.2403 63.3606 11.2148C63.593 11.1894 63.761 10.9791 63.7357 10.7452C63.7101 10.5113 63.5013 10.3427 63.2686 10.3681Z" fill="url(#paint78_linear_17_2751)"/>
<path fill-rule="evenodd" clip-rule="evenodd" d="M60.3074 17.0207C59.9677 17.1497 59.7961 17.5314 59.9243 17.8731C60.0525 18.2148 60.4319 18.3875 60.7716 18.2585C61.1113 18.1295 61.2829 17.7478 61.1544 17.4061C61.0265 17.0644 60.647 16.8917 60.3074 17.0207Z" fill="url(#paint79_linear_17_2751)"/>
<path fill-rule="evenodd" clip-rule="evenodd" d="M62.8612 12.2652C62.5929 12.3671 62.4577 12.6681 62.5588 12.9378C62.6601 13.2076 62.9594 13.3435 63.2278 13.2419C63.4961 13.14 63.6312 12.8391 63.5302 12.5693C63.4289 12.2996 63.1293 12.1634 62.8612 12.2652Z" fill="url(#paint80_linear_17_2751)"/>
<path fill-rule="evenodd" clip-rule="evenodd" d="M60.9094 13.567C61.0712 13.5057 61.1526 13.324 61.0916 13.1616C61.0306 12.9989 60.8499 12.917 60.6884 12.9784C60.5266 13.0397 60.4452 13.2214 60.5062 13.3838C60.5672 13.5462 60.7478 13.6283 60.9094 13.567Z" fill="url(#paint81_linear_17_2751)"/>
</g>
<defs>
<filter id="filter0_d_17_2751" x="0.596211" y="0.463668" width="137.039" height="88.7342" filterUnits="userSpaceOnUse" color-interpolation-filters="sRGB">
<feFlood flood-opacity="0" result="BackgroundImageFix"/>
<feColorMatrix in="SourceAlpha" type="matrix" values="0 0 0 0 0 0 0 0 0 0 0 0 0 0 0 0 0 0 127 0" result="hardAlpha"/>
<feOffset dy="1.5631"/>
<feGaussianBlur stdDeviation="1.30259"/>
<feColorMatrix type="matrix" values="0 0 0 0 0 0 0 0 0 0 0 0 0 0 0 0 0 0 0.14974 0"/>
<feBlend mode="normal" in2="BackgroundImageFix" result="effect1_dropShadow_17_2751"/>
<feBlend mode="normal" in="SourceGraphic" in2="effect1_dropShadow_17_2751" result="shape"/>
</filter>
<linearGradient id="paint0_linear_17_2751" x1="69.3873" y1="78.4788" x2="69.4134" y2="78.9114" gradientUnits="userSpaceOnUse">
<stop stop-color="#F8F6FB"/>
<stop offset="1" stop-color="#EFDCFB"/>
</linearGradient>
<linearGradient id="paint1_linear_17_2751" x1="59.0425" y1="44.7271" x2="74.8245" y2="68.381" gradientUnits="userSpaceOnUse">
<stop stop-color="#F8F6FB"/>
<stop offset="1" stop-color="#EFDCFB"/>
</linearGradient>
<linearGradient id="paint2_linear_17_2751" x1="61.1084" y1="32.7206" x2="62.0262" y2="36.448" gradientUnits="userSpaceOnUse">
<stop stop-color="#F8F6FB"/>
<stop offset="1" stop-color="#EFDCFB"/>
</linearGradient>
<linearGradient id="paint3_linear_17_2751" x1="70.8753" y1="2.50264" x2="70.8753" y2="20.978" gradientUnits="userSpaceOnUse">
<stop stop-color="#BADA00"/>
<stop offset="0.2269" stop-color="#B0CE00"/>
<stop offset="0.6378" stop-color="#95AE00"/>
<stop offset="1" stop-color="#798C00"/>
</linearGradient>
<linearGradient id="paint4_linear_17_2751" x1="99.8727" y1="13.6503" x2="102.709" y2="19.3578" gradientUnits="userSpaceOnUse">
<stop stop-color="#8A7889"/>
<stop offset="0.3344" stop-color="#867385"/>
<stop offset="0.7039" stop-color="#7B667B"/>
<stop offset="1" stop-color="#6E566E"/>
</linearGradient>
<linearGradient id="paint5_linear_17_2751" x1="63.0842" y1="4.42165" x2="65.9208" y2="10.1292" gradientUnits="userSpaceOnUse">
<stop stop-color="#8A7889"/>
<stop offset="0.3344" stop-color="#867385"/>
<stop offset="0.7039" stop-color="#7B667B"/>
<stop offset="1" stop-color="#6E566E"/>
</linearGradient>
<linearGradient id="paint6_linear_17_2751" x1="93.4057" y1="13.5298" x2="93.4057" y2="23.149" gradientUnits="userSpaceOnUse">
<stop stop-color="#F8F6FB"/>
<stop offset="1" stop-color="#EFDCFB"/>
</linearGradient>
<linearGradient id="paint7_linear_17_2751" x1="63.8869" y1="22.5353" x2="62.1058" y2="12.0046" gradientUnits="userSpaceOnUse">
<stop stop-color="#798C00" stop-opacity="0"/>
<stop offset="0.6542" stop-color="#556100" stop-opacity="0.654"/>
<stop offset="1" stop-color="#464F00"/>
</linearGradient>
<linearGradient id="paint8_linear_17_2751" x1="69.1158" y1="60.1819" x2="69.1158" y2="-33.8553" gradientUnits="userSpaceOnUse">
<stop stop-color="#EFDCFB" stop-opacity="0"/>
<stop offset="0.0287" stop-color="#E9D6F7" stop-opacity="0.029"/>
<stop offset="0.2203" stop-color="#C5B5DE" stop-opacity="0.22"/>
<stop offset="0.4138" stop-color="#AA9BCB" stop-opacity="0.414"/>
<stop offset="0.6078" stop-color="#9688BD" stop-opacity="0.608"/>
<stop offset="0.8028" stop-color="#8A7DB5" stop-opacity="0.803"/>
<stop offset="1" stop-color="#8679B2"/>
</linearGradient>
<linearGradient id="paint9_linear_17_2751" x1="91.0186" y1="52.8469" x2="98.4451" y2="57.8277" gradientUnits="userSpaceOnUse">
<stop stop-color="#FF6359"/>
<stop offset="0.2243" stop-color="#FE5B50"/>
<stop offset="0.5952" stop-color="#FC4637"/>
<stop offset="1" stop-color="#F82814"/>
</linearGradient>
<linearGradient id="paint10_linear_17_2751" x1="88.5389" y1="30.1927" x2="88.7427" y2="32.5913" gradientUnits="userSpaceOnUse">
<stop stop-color="#BADA00"/>
<stop offset="0.2269" stop-color="#B0CE00"/>
<stop offset="0.6378" stop-color="#95AE00"/>
<stop offset="1" stop-color="#798C00"/>
</linearGradient>
<linearGradient id="paint11_linear_17_2751" x1="56.847" y1="4.09811" x2="50.524" y2="22.6623" gradientUnits="userSpaceOnUse">
<stop stop-color="#FFD945"/>
<stop offset="0.3126" stop-color="#FFD643"/>
<stop offset="0.5593" stop-color="#FFCC3D"/>
<stop offset="0.7826" stop-color="#FFBB33"/>
<stop offset="0.9922" stop-color="#FFA426"/>
<stop offset="1" stop-color="#FFA325"/>
</linearGradient>
<linearGradient id="paint12_linear_17_2751" x1="48.364" y1="29.4109" x2="53.6236" y2="13.9687" gradientUnits="userSpaceOnUse">
<stop stop-color="#FFD945"/>
<stop offset="0.3126" stop-color="#FFD643"/>
<stop offset="0.5593" stop-color="#FFCC3D"/>
<stop offset="0.7826" stop-color="#FFBB33"/>
<stop offset="0.9922" stop-color="#FFA426"/>
<stop offset="1" stop-color="#FFA325"/>
</linearGradient>
<linearGradient id="paint13_linear_17_2751" x1="110.141" y1="12.6632" x2="116.996" y2="26.7489" gradientUnits="userSpaceOnUse">
<stop stop-color="#FF6359"/>
<stop offset="0.2243" stop-color="#FE5B50"/>
<stop offset="0.5952" stop-color="#FC4637"/>
<stop offset="1" stop-color="#F82814"/>
</linearGradient>
<linearGradient id="paint14_linear_17_2751" x1="127.497" y1="35.6763" x2="111.304" y2="19.3858" gradientUnits="userSpaceOnUse">
<stop stop-color="#FF6359"/>
<stop offset="0.2243" stop-color="#FE5B50"/>
<stop offset="0.5952" stop-color="#FC4637"/>
<stop offset="1" stop-color="#F82814"/>
</linearGradient>
<linearGradient id="paint15_linear_17_2751" x1="79.7253" y1="6.5229" x2="76.6091" y2="11.4921" gradientUnits="userSpaceOnUse">
<stop stop-color="#FF6359"/>
<stop offset="0.2243" stop-color="#FE5B50"/>
<stop offset="0.5952" stop-color="#FC4637"/>
<stop offset="1" stop-color="#F82814"/>
</linearGradient>
<linearGradient id="paint16_linear_17_2751" x1="72.911" y1="10.9609" x2="71.4099" y2="13.3258" gradientUnits="userSpaceOnUse">
<stop stop-color="#FF6359"/>
<stop offset="0.2243" stop-color="#FE5B50"/>
<stop offset="0.5952" stop-color="#FC4637"/>
<stop offset="1" stop-color="#F82814"/>
</linearGradient>
<linearGradient id="paint17_linear_17_2751" x1="80.6023" y1="10.9061" x2="79.1012" y2="13.271" gradientUnits="userSpaceOnUse">
<stop stop-color="#FF6359"/>
<stop offset="0.2243" stop-color="#FE5B50"/>
<stop offset="0.5952" stop-color="#FC4637"/>
<stop offset="1" stop-color="#F82814"/>
</linearGradient>
<linearGradient id="paint18_linear_17_2751" x1="85.3584" y1="8.60701" x2="83.8574" y2="10.9722" gradientUnits="userSpaceOnUse">
<stop stop-color="#FF6359"/>
<stop offset="0.2243" stop-color="#FE5B50"/>
<stop offset="0.5952" stop-color="#FC4637"/>
<stop offset="1" stop-color="#F82814"/>
</linearGradient>
<linearGradient id="paint19_linear_17_2751" x1="73.4115" y1="12.8086" x2="71.1086" y2="16.4813" gradientUnits="userSpaceOnUse">
<stop stop-color="#FF6359"/>
<stop offset="0.2243" stop-color="#FE5B50"/>
<stop offset="0.5952" stop-color="#FC4637"/>
<stop offset="1" stop-color="#F82814"/>
</linearGradient>
<linearGradient id="paint20_linear_17_2751" x1="76.3937" y1="8.9336" x2="74.5759" y2="11.8324" gradientUnits="userSpaceOnUse">
<stop stop-color="#FF6359"/>
<stop offset="0.2243" stop-color="#FE5B50"/>
<stop offset="0.5952" stop-color="#FC4637"/>
<stop offset="1" stop-color="#F82814"/>
</linearGradient>
<linearGradient id="paint21_linear_17_2751" x1="82.806" y1="6.33374" x2="80.988" y2="9.23267" gradientUnits="userSpaceOnUse">
<stop stop-color="#FF6359"/>
<stop offset="0.2243" stop-color="#FE5B50"/>
<stop offset="0.5952" stop-color="#FC4637"/>
<stop offset="1" stop-color="#F82814"/>
</linearGradient>
<linearGradient id="paint22_linear_17_2751" x1="78.0259" y1="10.3965" x2="76.9179" y2="12.144" gradientUnits="userSpaceOnUse">
<stop stop-color="#FF6359"/>
<stop offset="0.2243" stop-color="#FE5B50"/>
<stop offset="0.5952" stop-color="#FC4637"/>
<stop offset="1" stop-color="#F82814"/>
</linearGradient>
<linearGradient id="paint23_linear_17_2751" x1="76.4121" y1="10.5612" x2="71.0116" y2="26.4169" gradientUnits="userSpaceOnUse">
<stop stop-color="#FFD945"/>
<stop offset="0.3126" stop-color="#FFD643"/>
<stop offset="0.5593" stop-color="#FFCC3D"/>
<stop offset="0.7826" stop-color="#FFBB33"/>
<stop offset="0.9922" stop-color="#FFA426"/>
<stop offset="1" stop-color="#FFA325"/>
</linearGradient>
<linearGradient id="paint24_linear_17_2751" x1="69.1685" y1="32.1916" x2="73.6606" y2="19.0027" gradientUnits="userSpaceOnUse">
<stop stop-color="#FFD945"/>
<stop offset="0.3126" stop-color="#FFD643"/>
<stop offset="0.5593" stop-color="#FFCC3D"/>
<stop offset="0.7826" stop-color="#FFBB33"/>
<stop offset="0.9922" stop-color="#FFA426"/>
<stop offset="1" stop-color="#FFA325"/>
</linearGradient>
<linearGradient id="paint25_linear_17_2751" x1="40.5953" y1="17.7923" x2="42.2701" y2="26.8401" gradientUnits="userSpaceOnUse">
<stop stop-color="#FF6359"/>
<stop offset="0.2243" stop-color="#FE5B50"/>
<stop offset="0.5952" stop-color="#FC4637"/>
<stop offset="1" stop-color="#F82814"/>
</linearGradient>
<linearGradient id="paint26_linear_17_2751" x1="107.105" y1="8.03103" x2="100.782" y2="26.5953" gradientUnits="userSpaceOnUse">
<stop stop-color="#FFDECF"/>
<stop offset="0.3791" stop-color="#FDC4B0"/>
<stop offset="0.7655" stop-color="#FBAE97"/>
<stop offset="1" stop-color="#FAA68E"/>
</linearGradient>
<linearGradient id="paint27_linear_17_2751" x1="98.6225" y1="33.3433" x2="103.882" y2="17.9011" gradientUnits="userSpaceOnUse">
<stop stop-color="#FFDECF"/>
<stop offset="0.3791" stop-color="#FDC4B0"/>
<stop offset="0.7655" stop-color="#FBAE97"/>
<stop offset="1" stop-color="#FAA68E"/>
</linearGradient>
<linearGradient id="paint28_linear_17_2751" x1="28.7354" y1="12.3893" x2="23.3383" y2="28.2349" gradientUnits="userSpaceOnUse">
<stop stop-color="#FFDECF"/>
<stop offset="0.3791" stop-color="#FDC4B0"/>
<stop offset="0.7655" stop-color="#FBAE97"/>
<stop offset="1" stop-color="#FAA68E"/>
</linearGradient>
<linearGradient id="paint29_linear_17_2751" x1="21.4961" y1="34.0064" x2="25.9854" y2="20.8258" gradientUnits="userSpaceOnUse">
<stop stop-color="#FFDECF"/>
<stop offset="0.3791" stop-color="#FDC4B0"/>
<stop offset="0.7655" stop-color="#FBAE97"/>
<stop offset="1" stop-color="#FAA68E"/>
</linearGradient>
<linearGradient id="paint30_linear_17_2751" x1="88.5386" y1="30.1927" x2="88.7424" y2="32.5911" gradientUnits="userSpaceOnUse">
<stop stop-color="#BADA00"/>
<stop offset="0.2269" stop-color="#B0CE00"/>
<stop offset="0.6378" stop-color="#95AE00"/>
<stop offset="1" stop-color="#798C00"/>
</linearGradient>
<linearGradient id="paint31_linear_17_2751" x1="99.3623" y1="33.8459" x2="99.2659" y2="29.858" gradientUnits="userSpaceOnUse">
<stop stop-color="#798C00" stop-opacity="0"/>
<stop offset="0.6542" stop-color="#556100" stop-opacity="0.654"/>
<stop offset="1" stop-color="#464F00"/>
</linearGradient>
<linearGradient id="paint32_linear_17_2751" x1="87.6409" y1="34.8099" x2="69.5474" y2="20.5334" gradientUnits="userSpaceOnUse">
<stop stop-color="#798C00" stop-opacity="0"/>
<stop offset="0.6542" stop-color="#556100" stop-opacity="0.654"/>
<stop offset="1" stop-color="#464F00"/>
</linearGradient>
<linearGradient id="paint33_linear_17_2751" x1="83.2568" y1="28.313" x2="86.0934" y2="34.0205" gradientUnits="userSpaceOnUse">
<stop stop-color="#8A7889"/>
<stop offset="0.3344" stop-color="#867385"/>
<stop offset="0.7039" stop-color="#7B667B"/>
<stop offset="1" stop-color="#6E566E"/>
</linearGradient>
<linearGradient id="paint34_linear_17_2751" x1="108.458" y1="30.1146" x2="111.294" y2="35.8221" gradientUnits="userSpaceOnUse">
<stop stop-color="#8A7889"/>
<stop offset="0.3344" stop-color="#867385"/>
<stop offset="0.7039" stop-color="#7B667B"/>
<stop offset="1" stop-color="#6E566E"/>
</linearGradient>
<linearGradient id="paint35_linear_17_2751" x1="84.0849" y1="15.0587" x2="83.6424" y2="19.2715" gradientUnits="userSpaceOnUse">
<stop stop-color="#FFDECF"/>
<stop offset="0.3791" stop-color="#FDC4B0"/>
<stop offset="0.7655" stop-color="#FBAE97"/>
<stop offset="1" stop-color="#FAA68E"/>
</linearGradient>
<linearGradient id="paint36_linear_17_2751" x1="81.2316" y1="15.1223" x2="80.882" y2="18.448" gradientUnits="userSpaceOnUse">
<stop stop-color="#FFDECF"/>
<stop offset="0.3791" stop-color="#FDC4B0"/>
<stop offset="0.7655" stop-color="#FBAE97"/>
<stop offset="1" stop-color="#FAA68E"/>
</linearGradient>
<linearGradient id="paint37_linear_17_2751" x1="80.0248" y1="18.9044" x2="79.8118" y2="20.9083" gradientUnits="userSpaceOnUse">
<stop stop-color="#FFDECF"/>
<stop offset="0.3791" stop-color="#FDC4B0"/>
<stop offset="0.7655" stop-color="#FBAE97"/>
<stop offset="1" stop-color="#FAA68E"/>
</linearGradient>
<linearGradient id="paint38_linear_17_2751" x1="84.3368" y1="23.1122" x2="83.8941" y2="27.3252" gradientUnits="userSpaceOnUse">
<stop stop-color="#FFDECF"/>
<stop offset="0.3791" stop-color="#FDC4B0"/>
<stop offset="0.7655" stop-color="#FBAE97"/>
<stop offset="1" stop-color="#FAA68E"/>
</linearGradient>
<linearGradient id="paint39_linear_17_2751" x1="91.773" y1="20.5977" x2="91.4237" y2="23.9237" gradientUnits="userSpaceOnUse">
<stop stop-color="#FFDECF"/>
<stop offset="0.3791" stop-color="#FDC4B0"/>
<stop offset="0.7655" stop-color="#FBAE97"/>
<stop offset="1" stop-color="#FAA68E"/>
</linearGradient>
<linearGradient id="paint40_linear_17_2751" x1="86.3301" y1="17.3474" x2="86.1171" y2="19.3513" gradientUnits="userSpaceOnUse">
<stop stop-color="#FFDECF"/>
<stop offset="0.3791" stop-color="#FDC4B0"/>
<stop offset="0.7655" stop-color="#FBAE97"/>
<stop offset="1" stop-color="#FAA68E"/>
</linearGradient>
<linearGradient id="paint41_linear_17_2751" x1="83.18" y1="19.5181" x2="82.8528" y2="22.6316" gradientUnits="userSpaceOnUse">
<stop stop-color="#FFDECF"/>
<stop offset="0.3791" stop-color="#FDC4B0"/>
<stop offset="0.7655" stop-color="#FBAE97"/>
<stop offset="1" stop-color="#FAA68E"/>
</linearGradient>
<linearGradient id="paint42_linear_17_2751" x1="84.8431" y1="18.4822" x2="84.582" y2="20.9384" gradientUnits="userSpaceOnUse">
<stop stop-color="#FFDECF"/>
<stop offset="0.3791" stop-color="#FDC4B0"/>
<stop offset="0.7655" stop-color="#FBAE97"/>
<stop offset="1" stop-color="#FAA68E"/>
</linearGradient>
<linearGradient id="paint43_linear_17_2751" x1="82.793" y1="17.676" x2="82.6356" y2="19.1569" gradientUnits="userSpaceOnUse">
<stop stop-color="#FFDECF"/>
<stop offset="0.3791" stop-color="#FDC4B0"/>
<stop offset="0.7655" stop-color="#FBAE97"/>
<stop offset="1" stop-color="#FAA68E"/>
</linearGradient>
<linearGradient id="paint44_linear_17_2751" x1="99.2309" y1="22.1431" x2="98.7883" y2="26.356" gradientUnits="userSpaceOnUse">
<stop stop-color="#FFDECF"/>
<stop offset="0.3791" stop-color="#FDC4B0"/>
<stop offset="0.7655" stop-color="#FBAE97"/>
<stop offset="1" stop-color="#FAA68E"/>
</linearGradient>
<linearGradient id="paint45_linear_17_2751" x1="91.1508" y1="27.5109" x2="90.8013" y2="30.8367" gradientUnits="userSpaceOnUse">
<stop stop-color="#FFDECF"/>
<stop offset="0.3791" stop-color="#FDC4B0"/>
<stop offset="0.7655" stop-color="#FBAE97"/>
<stop offset="1" stop-color="#FAA68E"/>
</linearGradient>
<linearGradient id="paint46_linear_17_2751" x1="92.5907" y1="23.9557" x2="92.3776" y2="25.9592" gradientUnits="userSpaceOnUse">
<stop stop-color="#FFDECF"/>
<stop offset="0.3791" stop-color="#FDC4B0"/>
<stop offset="0.7655" stop-color="#FBAE97"/>
<stop offset="1" stop-color="#FAA68E"/>
</linearGradient>
<linearGradient id="paint47_linear_17_2751" x1="102.478" y1="27.3875" x2="102.036" y2="31.6005" gradientUnits="userSpaceOnUse">
<stop stop-color="#FFDECF"/>
<stop offset="0.3791" stop-color="#FDC4B0"/>
<stop offset="0.7655" stop-color="#FBAE97"/>
<stop offset="1" stop-color="#FAA68E"/>
</linearGradient>
<linearGradient id="paint48_linear_17_2751" x1="102.978" y1="25.4875" x2="102.629" y2="28.8137" gradientUnits="userSpaceOnUse">
<stop stop-color="#FFDECF"/>
<stop offset="0.3791" stop-color="#FDC4B0"/>
<stop offset="0.7655" stop-color="#FBAE97"/>
<stop offset="1" stop-color="#FAA68E"/>
</linearGradient>
<linearGradient id="paint49_linear_17_2751" x1="101.476" y1="24.4316" x2="101.263" y2="26.4355" gradientUnits="userSpaceOnUse">
<stop stop-color="#FFDECF"/>
<stop offset="0.3791" stop-color="#FDC4B0"/>
<stop offset="0.7655" stop-color="#FBAE97"/>
<stop offset="1" stop-color="#FAA68E"/>
</linearGradient>
<linearGradient id="paint50_linear_17_2751" x1="94.9067" y1="27.3145" x2="94.5798" y2="30.4279" gradientUnits="userSpaceOnUse">
<stop stop-color="#FFDECF"/>
<stop offset="0.3791" stop-color="#FDC4B0"/>
<stop offset="0.7655" stop-color="#FBAE97"/>
<stop offset="1" stop-color="#FAA68E"/>
</linearGradient>
<linearGradient id="paint51_linear_17_2751" x1="99.989" y1="25.5669" x2="99.7278" y2="28.0231" gradientUnits="userSpaceOnUse">
<stop stop-color="#FFDECF"/>
<stop offset="0.3791" stop-color="#FDC4B0"/>
<stop offset="0.7655" stop-color="#FBAE97"/>
<stop offset="1" stop-color="#FAA68E"/>
</linearGradient>
<linearGradient id="paint52_linear_17_2751" x1="97.9389" y1="24.7606" x2="97.7816" y2="26.2414" gradientUnits="userSpaceOnUse">
<stop stop-color="#FFDECF"/>
<stop offset="0.3791" stop-color="#FDC4B0"/>
<stop offset="0.7655" stop-color="#FBAE97"/>
<stop offset="1" stop-color="#FAA68E"/>
</linearGradient>
<linearGradient id="paint53_linear_17_2751" x1="71.997" y1="28.9383" x2="76.8707" y2="44.4223" gradientUnits="userSpaceOnUse">
<stop stop-color="#F8F6FB"/>
<stop offset="1" stop-color="#EFDCFB"/>
</linearGradient>
<linearGradient id="paint54_linear_17_2751" x1="71.5093" y1="29.5059" x2="84.9074" y2="93.0374" gradientUnits="userSpaceOnUse">
<stop stop-color="#EFDCFB" stop-opacity="0"/>
<stop offset="0.0287" stop-color="#E9D6F7" stop-opacity="0.029"/>
<stop offset="0.2203" stop-color="#C5B5DE" stop-opacity="0.22"/>
<stop offset="0.4138" stop-color="#AA9BCB" stop-opacity="0.414"/>
<stop offset="0.6078" stop-color="#9688BD" stop-opacity="0.608"/>
<stop offset="0.8028" stop-color="#8A7DB5" stop-opacity="0.803"/>
<stop offset="1" stop-color="#8679B2"/>
</linearGradient>
<linearGradient id="paint55_linear_17_2751" x1="63.6781" y1="25.8456" x2="74.9119" y2="37.4896" gradientUnits="userSpaceOnUse">
<stop stop-color="#FFD945"/>
<stop offset="0.3126" stop-color="#FFD643"/>
<stop offset="0.5593" stop-color="#FFCC3D"/>
<stop offset="0.7826" stop-color="#FFBB33"/>
<stop offset="0.9922" stop-color="#FFA426"/>
<stop offset="1" stop-color="#FFA325"/>
</linearGradient>
<linearGradient id="paint56_linear_17_2751" x1="39.4212" y1="31.9684" x2="39.3637" y2="34.4854" gradientUnits="userSpaceOnUse">
<stop stop-color="#BADA00"/>
<stop offset="0.2269" stop-color="#B0CE00"/>
<stop offset="0.6378" stop-color="#95AE00"/>
<stop offset="1" stop-color="#798C00"/>
</linearGradient>
<linearGradient id="paint57_linear_17_2751" x1="115.504" y1="41.1861" x2="107.514" y2="33.1476" gradientUnits="userSpaceOnUse">
<stop stop-color="#798C00" stop-opacity="0"/>
<stop offset="0.6542" stop-color="#556100" stop-opacity="0.654"/>
<stop offset="1" stop-color="#464F00"/>
</linearGradient>
<linearGradient id="paint58_linear_17_2751" x1="103.394" y1="37.4747" x2="104.676" y2="40.1089" gradientUnits="userSpaceOnUse">
<stop stop-color="#FF6359"/>
<stop offset="0.2243" stop-color="#FE5B50"/>
<stop offset="0.5952" stop-color="#FC4637"/>
<stop offset="1" stop-color="#F82814"/>
</linearGradient>
<linearGradient id="paint59_linear_17_2751" x1="95.6086" y1="39.2113" x2="96.6583" y2="42.1448" gradientUnits="userSpaceOnUse">
<stop stop-color="#FFA936"/>
<stop offset="0.4112" stop-color="#FF8548"/>
<stop offset="0.7781" stop-color="#FF6C54"/>
<stop offset="1" stop-color="#FF6359"/>
</linearGradient>
<linearGradient id="paint60_linear_17_2751" x1="45.2665" y1="38.8095" x2="45.275" y2="37.3085" gradientUnits="userSpaceOnUse">
<stop stop-color="#798C00" stop-opacity="0"/>
<stop offset="0.6542" stop-color="#556100" stop-opacity="0.654"/>
<stop offset="1" stop-color="#464F00"/>
</linearGradient>
<linearGradient id="paint61_linear_17_2751" x1="27.8165" y1="28.313" x2="30.6531" y2="34.0205" gradientUnits="userSpaceOnUse">
<stop stop-color="#8A7889"/>
<stop offset="0.3344" stop-color="#867385"/>
<stop offset="0.7039" stop-color="#7B667B"/>
<stop offset="1" stop-color="#6E566E"/>
</linearGradient>
<linearGradient id="paint62_linear_17_2751" x1="38.5174" y1="36.7707" x2="40.3499" y2="40.5364" gradientUnits="userSpaceOnUse">
<stop stop-color="#FFDECF"/>
<stop offset="0.3791" stop-color="#FDC4B0"/>
<stop offset="0.7655" stop-color="#FBAE97"/>
<stop offset="1" stop-color="#FAA68E"/>
</linearGradient>
<linearGradient id="paint63_linear_17_2751" x1="47.1444" y1="40.105" x2="39.2188" y2="32.1317" gradientUnits="userSpaceOnUse">
<stop stop-color="#FFDECF"/>
<stop offset="0.3791" stop-color="#FDC4B0"/>
<stop offset="0.7655" stop-color="#FBAE97"/>
<stop offset="1" stop-color="#FAA68E"/>
</linearGradient>
<linearGradient id="paint64_linear_17_2751" x1="43.7743" y1="14.9532" x2="46.2283" y2="18.3757" gradientUnits="userSpaceOnUse">
<stop stop-color="#FFDECF"/>
<stop offset="0.3791" stop-color="#FDC4B0"/>
<stop offset="0.7655" stop-color="#FBAE97"/>
<stop offset="1" stop-color="#FAA68E"/>
</linearGradient>
<linearGradient id="paint65_linear_17_2751" x1="41.6884" y1="16.916" x2="43.6254" y2="19.6178" gradientUnits="userSpaceOnUse">
<stop stop-color="#FFDECF"/>
<stop offset="0.3791" stop-color="#FDC4B0"/>
<stop offset="0.7655" stop-color="#FBAE97"/>
<stop offset="1" stop-color="#FAA68E"/>
</linearGradient>
<linearGradient id="paint66_linear_17_2751" x1="43.29" y1="20.543" x2="44.4716" y2="22.1709" gradientUnits="userSpaceOnUse">
<stop stop-color="#FFDECF"/>
<stop offset="0.3791" stop-color="#FDC4B0"/>
<stop offset="0.7655" stop-color="#FBAE97"/>
<stop offset="1" stop-color="#FAA68E"/>
</linearGradient>
<linearGradient id="paint67_linear_17_2751" x1="49.3019" y1="20.7847" x2="51.7558" y2="24.2073" gradientUnits="userSpaceOnUse">
<stop stop-color="#FFDECF"/>
<stop offset="0.3791" stop-color="#FDC4B0"/>
<stop offset="0.7655" stop-color="#FBAE97"/>
<stop offset="1" stop-color="#FAA68E"/>
</linearGradient>
<linearGradient id="paint68_linear_17_2751" x1="53.1728" y1="13.9211" x2="55.1103" y2="16.6231" gradientUnits="userSpaceOnUse">
<stop stop-color="#FFDECF"/>
<stop offset="0.3791" stop-color="#FDC4B0"/>
<stop offset="0.7655" stop-color="#FBAE97"/>
<stop offset="1" stop-color="#FAA68E"/>
</linearGradient>
<linearGradient id="paint69_linear_17_2751" x1="46.9554" y1="15.1512" x2="48.1362" y2="16.7797" gradientUnits="userSpaceOnUse">
<stop stop-color="#FFDECF"/>
<stop offset="0.3791" stop-color="#FDC4B0"/>
<stop offset="0.7655" stop-color="#FBAE97"/>
<stop offset="1" stop-color="#FAA68E"/>
</linearGradient>
<linearGradient id="paint70_linear_17_2751" x1="46.054" y1="18.8836" x2="47.8675" y2="21.4131" gradientUnits="userSpaceOnUse">
<stop stop-color="#FFDECF"/>
<stop offset="0.3791" stop-color="#FDC4B0"/>
<stop offset="0.7655" stop-color="#FBAE97"/>
<stop offset="1" stop-color="#FAA68E"/>
</linearGradient>
<linearGradient id="paint71_linear_17_2751" x1="46.6" y1="16.9946" x2="48.0477" y2="18.9908" gradientUnits="userSpaceOnUse">
<stop stop-color="#FFDECF"/>
<stop offset="0.3791" stop-color="#FDC4B0"/>
<stop offset="0.7655" stop-color="#FBAE97"/>
<stop offset="1" stop-color="#FAA68E"/>
</linearGradient>
<linearGradient id="paint72_linear_17_2751" x1="44.538" y1="17.7698" x2="45.4108" y2="18.9732" gradientUnits="userSpaceOnUse">
<stop stop-color="#FFDECF"/>
<stop offset="0.3791" stop-color="#FDC4B0"/>
<stop offset="0.7655" stop-color="#FBAE97"/>
<stop offset="1" stop-color="#FAA68E"/>
</linearGradient>
<linearGradient id="paint73_linear_17_2751" x1="59.7564" y1="10.0674" x2="62.2103" y2="13.4897" gradientUnits="userSpaceOnUse">
<stop stop-color="#FFDECF"/>
<stop offset="0.3791" stop-color="#FDC4B0"/>
<stop offset="0.7655" stop-color="#FBAE97"/>
<stop offset="1" stop-color="#FAA68E"/>
</linearGradient>
<linearGradient id="paint74_linear_17_2751" x1="57.2932" y1="19.4896" x2="59.2304" y2="22.1913" gradientUnits="userSpaceOnUse">
<stop stop-color="#FFDECF"/>
<stop offset="0.3791" stop-color="#FDC4B0"/>
<stop offset="0.7655" stop-color="#FBAE97"/>
<stop offset="1" stop-color="#FAA68E"/>
</linearGradient>
<linearGradient id="paint75_linear_17_2751" x1="56.0017" y1="15.8737" x2="57.1825" y2="17.5019" gradientUnits="userSpaceOnUse">
<stop stop-color="#FFDECF"/>
<stop offset="0.3791" stop-color="#FDC4B0"/>
<stop offset="0.7655" stop-color="#FBAE97"/>
<stop offset="1" stop-color="#FAA68E"/>
</linearGradient>
<linearGradient id="paint76_linear_17_2751" x1="65.6533" y1="11.7954" x2="68.1072" y2="15.218" gradientUnits="userSpaceOnUse">
<stop stop-color="#FFDECF"/>
<stop offset="0.3791" stop-color="#FDC4B0"/>
<stop offset="0.7655" stop-color="#FBAE97"/>
<stop offset="1" stop-color="#FAA68E"/>
</linearGradient>
<linearGradient id="paint77_linear_17_2751" x1="64.7634" y1="10.0451" x2="66.7009" y2="12.7469" gradientUnits="userSpaceOnUse">
<stop stop-color="#FFDECF"/>
<stop offset="0.3791" stop-color="#FDC4B0"/>
<stop offset="0.7655" stop-color="#FBAE97"/>
<stop offset="1" stop-color="#FAA68E"/>
</linearGradient>
<linearGradient id="paint78_linear_17_2751" x1="62.9375" y1="10.2658" x2="64.1186" y2="11.894" gradientUnits="userSpaceOnUse">
<stop stop-color="#FFDECF"/>
<stop offset="0.3791" stop-color="#FDC4B0"/>
<stop offset="0.7655" stop-color="#FBAE97"/>
<stop offset="1" stop-color="#FAA68E"/>
</linearGradient>
<linearGradient id="paint79_linear_17_2751" x1="59.9609" y1="16.8228" x2="61.7741" y2="19.3519" gradientUnits="userSpaceOnUse">
<stop stop-color="#FFDECF"/>
<stop offset="0.3791" stop-color="#FDC4B0"/>
<stop offset="0.7655" stop-color="#FBAE97"/>
<stop offset="1" stop-color="#FAA68E"/>
</linearGradient>
<linearGradient id="paint80_linear_17_2751" x1="62.582" y1="12.1091" x2="64.0299" y2="14.1049" gradientUnits="userSpaceOnUse">
<stop stop-color="#FFDECF"/>
<stop offset="0.3791" stop-color="#FDC4B0"/>
<stop offset="0.7655" stop-color="#FBAE97"/>
<stop offset="1" stop-color="#FAA68E"/>
</linearGradient>
<linearGradient id="paint81_linear_17_2751" x1="60.5201" y1="12.8841" x2="61.3929" y2="14.0875" gradientUnits="userSpaceOnUse">
<stop stop-color="#FFDECF"/>
<stop offset="0.3791" stop-color="#FDC4B0"/>
<stop offset="0.7655" stop-color="#FBAE97"/>
<stop offset="1" stop-color="#FAA68E"/>
</linearGradient>
</defs>
</svg>
